<svg width="292" height="406" viewBox="0 0 292 406" fill="none" xmlns="http://www.w3.org/2000/svg">
<g clip-path="url(#clip0_410_6544)">
<ellipse cx="145.99" cy="327.638" rx="145.99" ry="41.6379" fill="#462E81"/>
<ellipse cx="145.99" cy="335.863" rx="145.99" ry="41.6379" fill="#1B0E3A"/>
<path fill-rule="evenodd" clip-rule="evenodd" d="M166.611 61.9226C167.957 64.2666 169.531 66.6392 170.541 69.3026C171.562 72.0002 173.022 74.4925 174.128 77.0988C174.071 74.9601 173.598 72.6789 173.273 70.9223C173.193 70.4945 173.244 70.0155 173.158 69.6048C173.067 69.1372 172.6 68.4699 172.303 67.8654C171.254 65.6867 170.176 63.6963 168.374 62.5842C167.837 62.2534 167.227 61.723 166.554 61.7458C166.554 61.8257 166.577 61.877 166.611 61.9283V61.9226Z" fill="#82C3DE"/>
<path d="M241.46 311.01C240.496 309.122 238.814 307.565 236.721 306.63C236.493 306.527 236.282 306.43 236.082 306.333C235.415 306.02 234.725 305.689 233.727 305.466C233.225 305.352 232.7 305.21 232.158 305.067C230.601 304.651 228.833 304.177 227.042 304.172C225.782 304.172 224.658 304.349 223.33 304.622C222.908 304.708 222.491 304.833 222.092 304.953C221.505 305.124 220.951 305.29 220.467 305.324C219.229 305.392 218.014 305.495 216.771 305.94C216.315 306.099 215.853 306.231 215.368 306.373C214.872 306.516 214.364 306.664 213.857 306.841C212.06 307.48 210.332 308.324 208.416 309.481C207.863 309.818 207.247 310.086 206.591 310.371C206.374 310.468 206.163 310.559 205.952 310.656C202.159 312.373 199.262 314.523 196.855 317.409C195.316 318.053 194.637 319.433 194.084 320.557C193.901 320.928 193.73 321.276 193.548 321.566C193.394 321.806 193.165 322.068 192.926 322.348C192.732 322.57 192.538 322.798 192.361 323.026C192.173 323.272 191.996 323.517 191.819 323.762C191.608 324.059 191.397 324.35 191.181 324.623C189.966 326.158 188.956 327.811 187.981 329.408C187.531 330.15 187.074 330.891 186.601 331.627L186.441 331.872C185.74 332.961 185.016 334.085 184.382 335.266C184.171 335.665 184.017 336.064 183.881 336.423C183.767 336.726 183.658 337.011 183.533 337.245C183.379 337.53 183.219 337.798 183.059 338.066C182.865 338.391 182.677 338.716 182.5 339.052L182.044 339.914C181.548 340.849 181.04 341.818 180.521 342.742C180.288 343.164 180.065 343.598 179.843 344.037C179.449 344.801 179.084 345.531 178.639 346.153C178.639 346.124 178.639 346.096 178.645 346.062C178.685 345.548 178.725 345.029 178.748 344.516C178.765 344.128 178.771 343.74 178.771 343.353C178.776 342.702 178.782 342.081 178.85 341.511C178.89 341.203 178.93 340.895 178.976 340.592C179.073 339.908 179.175 339.195 179.204 338.448C179.238 337.501 179.341 336.56 179.449 335.568C179.563 334.558 179.677 333.515 179.712 332.454C179.751 331.308 179.928 330.11 180.099 328.952C180.208 328.228 180.316 327.481 180.39 326.739C180.675 324.053 180.812 321.378 180.961 318.549C181.029 317.192 181.103 315.823 181.189 314.443C181.223 313.93 181.263 313.417 181.303 312.892C181.417 311.352 181.537 309.755 181.537 308.17C181.537 307.24 181.622 306.27 181.708 305.335C181.805 304.229 181.913 303.082 181.879 301.947C181.867 301.571 181.81 301.28 181.759 301.052C181.731 300.909 181.708 300.807 181.702 300.704L181.645 299.74C181.457 296.592 181.297 293.872 180.698 291.345C180.094 288.796 179.25 286.589 178.36 284.25L178.137 283.669C177.926 283.115 177.744 282.574 177.561 282.038C177.333 281.359 177.094 280.652 176.814 279.967C176.335 278.798 175.679 277.794 175.041 276.819L174.071 275.336C173.067 273.802 172.035 272.222 171.02 270.534C169.959 268.766 168.664 267.301 167.41 265.875C167.102 265.527 166.794 265.179 166.497 264.831C165.801 264.01 164.952 263.057 163.976 262.173C163.195 261.466 162.505 260.525 161.895 259.698C161.376 258.985 160.845 258.278 160.309 257.565C158.125 254.662 155.872 251.674 154.481 247.984C155.53 248.337 156.619 248.548 157.788 248.634C158.764 248.708 159.756 248.936 160.714 249.159C161.9 249.432 163.127 249.712 164.376 249.723C164.644 249.723 164.912 249.735 165.174 249.74C166.383 249.769 167.518 249.797 168.453 249.455C170.518 248.708 171.613 246.991 172.577 245.474C172.691 245.292 172.805 245.115 172.925 244.933C173.073 244.699 173.227 244.448 173.375 244.185C173.666 243.689 173.997 243.13 174.282 242.868C174.562 242.611 174.944 242.378 175.354 242.127C175.594 241.978 175.833 241.83 176.067 241.676C178.137 240.245 179.643 238.625 181.394 236.646L181.89 236.087C183.829 233.908 185.825 231.661 186.898 228.542C187.81 227.429 188.814 226.409 189.88 225.331C190.382 224.817 190.89 224.31 191.386 223.785C192.835 222.262 194.335 220.5 195.971 218.407C196.279 218.013 196.582 217.609 196.89 217.204C197.933 215.818 199.017 214.386 200.266 213.343C204.15 210.075 207.572 206.328 210.88 202.706C212.168 201.297 213.497 199.837 214.849 198.417C217.872 195.235 220.843 191.545 222.092 186.178C222.115 186.076 222.155 185.979 222.189 185.882C222.269 185.654 222.36 185.403 222.4 185.1C222.446 184.792 222.423 184.496 222.411 184.285C222.411 184.251 222.411 184.211 222.406 184.176C222.423 184.142 222.44 184.114 222.451 184.079C222.577 183.828 222.765 183.452 222.811 182.905C222.93 181.336 222.297 180.19 221.784 179.266C221.761 179.232 221.744 179.192 221.721 179.158C222.086 177.39 221.048 175.947 220.335 174.949C220.238 174.812 220.142 174.681 220.05 174.549C219.834 174.236 219.634 173.922 219.44 173.625C219.047 173.015 218.67 172.445 218.22 171.88C216.794 170.107 215.237 168.538 213.72 167.335C213.018 166.782 212.322 166.154 211.655 165.55C210.834 164.808 209.99 164.038 209.077 163.36C208.136 162.653 207.304 161.803 206.425 160.907C205.884 160.354 205.325 159.784 204.743 159.253C203.374 157.999 201.817 156.584 200.426 155.124C199.068 153.693 197.819 152.216 196.439 150.567C196.085 150.145 195.726 149.729 195.361 149.307C194.38 148.172 193.456 147.1 192.646 145.931C191.5 144.277 190.245 142.743 188.808 141.26C188.38 139.868 187.793 138.545 187.228 137.268L187.023 136.806C186.242 135.038 185.346 133.743 184.126 132.614C183.441 131.981 182.723 131.416 182.033 130.869C181.577 130.504 181.115 130.144 180.67 129.762C180.099 129.277 179.569 128.713 178.999 128.114C178.548 127.641 178.08 127.144 177.584 126.682C176.928 126.066 176.233 125.49 175.565 124.937C174.003 123.643 172.531 122.422 171.579 120.774C171.402 120.46 171.214 120.147 171.026 119.827C170.073 118.19 169.087 116.497 168.425 114.791C168.311 114.495 168.174 114.192 168.031 113.896C167.832 113.468 167.644 113.063 167.581 112.738C167.501 112.367 167.467 111.957 167.433 111.518C167.404 111.141 167.37 110.748 167.307 110.348C167.09 108.951 166.748 107.691 166.417 106.47C166.144 105.461 165.887 104.514 165.71 103.533C165.22 100.807 164.507 98.1722 163.845 95.9707C165.054 95.697 166.206 95.4004 167.284 94.9727C167.592 94.8529 167.838 94.6932 168.031 94.5677C168.134 94.4993 168.237 94.4366 168.277 94.4195C168.368 94.3795 168.51 94.3453 168.664 94.2997C168.887 94.2427 169.138 94.1742 169.4 94.0659C173.324 92.4633 175.48 88.8645 177.356 85.3114C178.069 83.9541 178.348 82.4655 178.617 81.0226C178.674 80.709 178.736 80.3896 178.799 80.0759C178.845 79.8421 178.896 79.6197 178.947 79.3972C179.107 78.7071 179.272 77.9999 179.278 77.1673C179.284 76.2947 179.17 75.4449 179.056 74.6236L178.982 74.0818C178.691 71.8918 178.411 70.0953 177.721 68.6239C177.613 68.3958 177.51 68.1562 177.407 67.911C177.196 67.4148 176.98 66.9072 176.695 66.4053C176.466 66.0118 176.193 65.6867 175.953 65.3959C175.731 65.1278 175.537 64.894 175.411 64.6602C175.349 64.5461 175.303 64.4206 175.257 64.3009C175.16 64.0556 175.041 63.7533 174.852 63.4454C174.721 63.2287 174.573 63.029 174.419 62.8294C174.328 62.7097 174.236 62.5899 174.151 62.453C173.98 62.185 173.757 61.9169 173.529 61.6261C173.33 61.3751 172.987 60.9531 172.919 60.8048C172.834 60.5824 172.782 60.1946 172.725 59.8124C172.685 59.5159 172.64 59.2136 172.583 58.9227C172.315 57.5996 172.246 56.1795 172.178 54.6739C172.143 53.8868 172.103 53.077 172.035 52.25L171.91 50.7101C171.733 48.5087 171.567 46.4042 171.282 44.4366C171.767 44.3853 172.309 44.2655 172.788 43.9005L173.803 43.1249L173.141 42.0299C172.48 40.9406 171.413 40.4159 170.467 40.0223C170.25 39.3037 170.039 38.568 169.834 37.8494C170.067 37.7068 170.313 37.5472 170.547 37.3761L170.701 37.2677C171.214 36.9027 172.275 36.1499 172.206 34.7754L172.143 33.5093L170.877 33.4237C170.261 33.3838 169.588 33.458 168.881 33.5378C168.75 33.5549 168.619 33.5663 168.488 33.5834C168.431 33.4751 168.379 33.3667 168.322 33.2583C168.151 32.9219 167.991 32.6139 167.872 32.3002C167.895 32.2774 167.912 32.2603 167.929 32.2432L168.545 31.6386C168.961 31.2337 169.372 30.8402 169.737 30.4581C169.765 30.4353 169.799 30.4067 169.834 30.3839C170.678 29.7338 170.98 28.9924 170.723 28.1768L170.393 27.1217L169.286 27.1844C168.06 27.2529 166.6 27.7376 165.265 28.1996C164.142 27.0248 162.767 26.2092 161.433 25.4164C161.821 24.3842 162.203 23.2207 162.134 21.8177L161.935 17.8939L159.574 21.0364C159.391 21.2759 159.055 21.5155 158.695 21.7664C158.456 21.9375 158.216 22.1029 157.994 22.2854L157.714 22.5135C157.463 22.7188 157.212 22.9241 156.984 23.0895C156.836 23.004 156.682 22.9127 156.528 22.8215C155.553 22.2398 154.378 21.5383 152.667 21.4185C152.388 19.9984 152.028 18.6011 151.344 17.4491L148.812 13.2002L148.698 18.1449C148.68 18.9661 148.532 19.7988 148.372 20.6771C148.304 21.0421 148.241 21.4185 148.179 21.8063C147.5 21.9204 146.912 22.1485 146.365 22.3538C146.342 22.3652 146.314 22.3709 146.291 22.3823C146.228 22.2227 146.165 22.0573 146.103 21.8919C145.601 20.5744 145.03 19.0745 143.707 18.1506L141.643 16.7077L141.466 19.2171C141.358 20.7683 141.42 22.3196 141.534 23.734C140.525 24.0021 139.584 24.3214 138.66 24.6294C138.415 24.7093 138.175 24.7948 137.93 24.8746C137.753 24.4013 137.565 23.9165 137.32 23.4603C136.841 22.5477 136.305 21.601 135.483 20.9223L133.538 19.314L133.168 21.812C132.968 23.1409 132.877 24.7606 132.786 26.329C132.774 26.5571 132.757 26.7852 132.746 27.0133C131.006 27.9943 129.672 29.3003 128.622 30.5493C128.309 30.2414 127.984 29.9334 127.647 29.6482C127.607 29.614 127.567 29.5741 127.527 29.5285C126.489 28.4563 125.651 28.7927 125.24 29.095L124.607 29.557L124.664 30.3383C124.761 31.7299 125.121 33.0473 125.474 34.3134C125.634 34.8838 125.782 35.4256 125.896 35.9331C125.833 36.1099 125.708 36.3837 125.64 36.5491C125.525 36.8057 125.423 37.0339 125.354 37.2449C125.32 37.3532 125.286 37.4616 125.257 37.57C124.51 37.3475 123.558 37.2962 122.862 38.1688C121.767 39.549 123.05 41.1059 123.666 41.8531C123.678 41.8645 123.683 41.8759 123.695 41.8873C122.469 44.9157 121.322 48.2349 120.912 51.9762C120.49 55.8145 120.284 60.0463 121.727 63.1317C121.362 63.3769 121.009 63.6279 120.655 63.8788C119.805 64.4777 119.001 65.048 118.146 65.5327C117.153 66.0974 116.338 66.6164 115.562 67.1753C115.197 67.4376 114.803 67.6772 114.381 67.9281C113.971 68.1733 113.543 68.43 113.132 68.7208C108.912 71.6808 103.665 75.3651 100.226 80.6234C99.8668 81.1709 99.4847 81.7241 99.0969 82.2716L98.595 82.9902C98.3326 83.3666 98.0931 83.7545 97.8536 84.1423C97.5741 84.5928 97.3118 85.0149 97.0209 85.4198C95.886 86.9882 94.7111 88.6079 93.6902 90.4158C92.7378 92.104 91.945 93.8263 91.1067 95.657L90.9584 95.9821C90.7075 96.5239 90.4451 97.06 90.1771 97.5961C89.5383 98.8965 88.871 100.237 88.392 101.714C87.8102 103.499 87.3882 105.352 86.9433 107.32L86.7038 108.375C86.0936 111.056 85.6829 113.291 85.4263 115.419C85.1126 118.008 85.2951 120.723 85.5346 123.511C86.065 129.682 86.9662 133.84 88.5573 137.41C89.3444 139.172 90.2341 141.174 91.3918 142.994C91.8139 143.661 92.3329 144.288 92.8347 144.887C93.2853 145.429 93.7073 145.936 94.0153 146.416C94.0837 146.524 94.1465 146.661 94.2206 146.82C94.3689 147.14 94.5571 147.539 94.8993 147.921C95.2016 148.258 95.5438 148.503 95.8403 148.72C95.9715 148.817 96.1084 148.914 96.2281 149.016C97.1521 149.792 97.9562 150.431 99.2451 150.932C99.4448 151.007 99.6729 151.138 99.9124 151.269C100.135 151.389 100.357 151.508 100.58 151.617C101.766 152.176 102.924 152.398 104.315 152.632C105 152.746 105.695 152.883 106.403 153.026C108.159 153.373 109.979 153.738 111.906 153.79C112.745 153.813 113.537 153.721 114.307 153.636C114.826 153.579 115.322 153.522 115.836 153.493C116.583 153.453 117.336 153.436 118.089 153.425C118.322 153.425 118.556 153.413 118.784 153.408C118.596 153.567 118.408 153.721 118.22 153.881C115.682 155.997 113.058 158.187 110.275 160.143L109.785 160.485C107.309 162.219 104.503 164.187 102.211 166.32C102.034 166.485 101.8 166.639 101.555 166.804C101.264 167.004 100.933 167.226 100.625 167.506C99.2109 168.783 98.3783 170.226 98.0703 171.909C97.5456 174.8 98.2813 177.635 98.9942 179.511C99.325 180.384 99.7128 181.245 100.084 182.078C100.54 183.098 100.973 184.068 101.315 185.043C101.606 185.882 101.903 186.714 102.205 187.553C102.593 188.642 102.986 189.737 103.363 190.855C103.671 191.767 103.876 192.594 103.859 193.667C103.779 197.95 102.028 200.51 100.175 203.225L100.066 203.385C99.3478 204.44 98.5893 205.569 97.979 206.79C97.6425 207.457 97.3517 208.141 97.0665 208.803C96.8156 209.385 96.5817 209.932 96.3194 210.462C95.9658 211.181 95.578 211.865 95.1616 212.584C94.2491 214.164 93.3081 215.801 92.7948 217.888C92.4184 219.422 92.2929 221.156 92.1846 222.941C91.9907 226.26 91.8424 230.452 92.4412 233.441C92.6636 234.57 93.0001 235.614 93.3252 236.623C93.4393 236.982 93.5591 237.347 93.6674 237.712C94.0837 239.087 94.7453 240.341 95.3841 241.556L95.424 241.63C97.4543 245.48 99.9809 248.28 103.38 250.448C105.045 251.508 108.33 253.596 111.564 252.096C112.151 252.615 112.779 253.1 113.435 253.607L113.754 253.852C114.997 254.805 116.452 255.78 117.957 255.883C117.353 257.04 116.743 258.329 116.417 259.801L116.292 260.4C116.104 261.295 115.927 262.133 115.659 262.96C115.596 263.16 115.516 263.354 115.437 263.548C115.311 263.861 115.168 264.215 115.066 264.597C114.957 265.002 114.895 265.39 114.832 265.761C114.792 265.989 114.758 266.223 114.707 266.462L114.598 266.97C114.142 269.114 113.669 271.327 113.224 273.557C113.053 274.418 112.87 275.296 112.688 276.18C112.009 279.471 111.307 282.876 110.817 286.235C110.754 286.669 110.743 287.079 110.737 287.444C110.731 287.695 110.726 287.946 110.697 288.197C110.612 288.995 110.469 289.794 110.326 290.644C110.218 291.277 110.11 291.91 110.018 292.549C109.864 293.655 109.807 294.767 109.756 295.845C109.733 296.353 109.705 296.86 109.671 297.373C109.625 297.989 109.579 298.605 109.539 299.227C109.351 301.788 109.157 304.434 109.1 307.103C108.98 312.755 108.969 320.095 109.973 326.728L110.133 327.794C110.96 333.252 111.809 338.893 113.132 344.083C113.486 345.463 113.868 346.832 114.239 348.16C114.615 349.512 114.975 350.784 115.3 352.061C115.59 353.213 115.967 354.531 116.509 355.854C113.834 355.004 110.925 354.462 108.074 353.938C107.384 353.812 106.699 353.681 106.021 353.55C103.545 353.071 100.859 352.62 98.0418 352.569C96.9182 352.541 95.8175 352.62 94.751 352.694L93.9754 352.746C93.2511 352.797 92.5154 352.809 91.734 352.82C91.0896 352.831 90.4451 352.837 89.7949 352.871C88.757 352.917 87.7475 353.071 86.7722 353.219C86.4472 353.271 86.1164 353.316 85.797 353.362C85.3179 353.424 84.8446 353.47 84.3712 353.516C83.5385 353.596 82.6773 353.681 81.8276 353.858C79.8657 354.269 78.0007 354.873 76.1985 355.455C75.7651 355.597 75.3373 355.734 74.9096 355.871C73.2956 356.384 71.8013 357.035 70.3527 357.662C69.7482 357.924 69.1437 358.187 68.5391 358.432C66.7255 359.173 64.7807 359.806 62.9044 360.422L62.1287 360.673C59.8931 361.415 57.7772 362.652 55.9693 363.753C54.9313 364.386 53.8192 364.968 52.747 365.532C51.9428 365.954 51.1101 366.394 50.3117 366.85C49.3992 367.375 48.5095 368.019 47.6483 368.641C47.1863 368.977 46.7358 369.302 46.2852 369.604C46.1027 369.73 45.8632 369.85 45.6066 369.981C45.3898 370.089 45.1674 370.203 44.945 370.329C41.1524 372.547 37.5593 374.931 35.3237 379.648C34.799 380.749 34.6051 382.032 34.4169 383.275L34.3484 383.703C34.0975 385.294 34.0005 386.6 34.2971 388.203C34.8674 391.299 35.74 393.393 37.2114 395.195C37.9301 396.084 38.7855 396.894 39.7551 397.613C40.1258 397.887 40.4965 398.212 40.8843 398.554C41.2949 398.913 41.717 399.29 42.196 399.643C44.0553 401.029 46.5704 402.05 49.1026 402.432C50.8592 402.694 52.707 402.734 54.6632 402.774C55.5929 402.797 56.5567 402.814 57.5034 402.86C58.068 402.888 58.6327 402.917 59.1973 402.951C60.6744 403.037 62.1915 403.122 63.6857 403.122C64.4841 403.122 65.2769 403.099 66.0582 403.037C72.269 402.546 77.2821 402.329 82.2724 402.329C83.761 402.329 85.2381 402.255 86.6696 402.175C87.9984 402.101 89.3786 402.027 90.7189 402.027C93.7929 402.027 96.5589 401.907 99.1767 401.662C99.3991 401.639 99.6273 401.605 99.8497 401.577C100.249 401.52 100.625 401.463 100.922 401.485C101.139 401.502 101.35 401.531 101.561 401.565C102.017 401.634 102.536 401.708 103.129 401.668C103.677 401.628 104.224 401.565 104.772 401.502C105.587 401.411 106.357 401.326 107.098 401.309C109.42 401.246 112.077 401.006 115.231 400.579C117.974 400.202 120.467 399.66 122.651 398.965C128.32 397.145 132.101 394.989 134.559 392.183C136.419 390.062 140.582 384.404 139.093 377.623C138.757 376.078 138.341 374.857 137.816 373.888C137.536 373.38 137.285 372.861 137.035 372.353C136.276 370.814 135.495 369.222 134.194 367.962L133.972 367.751C133.493 367.289 132.597 366.439 132.375 365.966C132.158 365.51 132.004 364.705 131.862 363.93C131.81 363.639 131.753 363.348 131.691 363.057C131.463 361.962 131.206 360.725 130.938 359.647C130.442 357.656 129.757 355.449 128.959 353.265C128.234 351.274 127.693 349.164 127.128 346.929C126.866 345.896 126.603 344.864 126.318 343.843C126.198 343.415 126.067 342.993 125.942 342.577C125.742 341.933 125.554 341.328 125.429 340.741C125.32 340.227 125.235 339.714 125.155 339.201C125.052 338.573 124.944 337.929 124.801 337.29C124.636 336.577 124.448 335.887 124.259 335.22C124.151 334.821 124.043 334.427 123.934 334.017C123.564 332.602 123.318 331.136 123.062 329.579C122.931 328.787 122.799 327.994 122.645 327.207C121.442 320.876 121.031 312.607 121.528 304.525C121.596 303.419 121.642 302.295 121.682 301.212C121.739 299.718 121.796 298.172 121.927 296.701C122.024 295.617 122.143 294.539 122.258 293.473C122.412 292.081 122.571 290.644 122.668 289.241C122.845 286.76 123.313 284.382 123.723 282.283C123.815 281.815 123.889 281.348 123.957 280.886C124.06 280.201 124.162 279.557 124.322 278.969C125.195 275.833 126.273 272.781 127.311 269.827C127.596 269.017 127.898 268.213 128.195 267.409C128.634 266.234 129.084 265.014 129.483 263.793L129.746 262.989C130.219 261.529 130.664 260.137 131.251 258.826C133.248 258.786 135.284 258.597 137.189 258.278C138.791 258.016 140.263 257.474 141.62 256.949C141.757 256.898 141.894 256.858 142.025 256.818C142.321 256.727 142.658 256.63 142.972 256.459C143.143 256.367 143.302 256.259 143.439 256.156C143.473 256.208 143.508 256.253 143.536 256.299C143.844 256.807 144.146 257.16 144.392 257.445C144.466 257.537 144.54 257.616 144.608 257.708C145.207 258.466 145.618 259.453 145.943 260.251C147.825 264.785 150.363 268.578 152.599 271.686C153.38 272.776 154.258 273.688 155.108 274.572C155.713 275.199 156.283 275.793 156.813 276.443L157.104 276.796C158.285 278.234 159.505 279.716 160.446 281.308C161.587 283.218 162.899 285.112 164.165 286.937C164.718 287.735 165.265 288.516 165.784 289.292C165.984 289.583 166.189 289.874 166.4 290.165C166.8 290.712 167.182 291.231 167.455 291.784C168.402 293.655 168.647 297.516 168.727 298.788C168.915 301.748 168.528 304.428 168.123 306.658C167.838 308.221 167.541 309.761 167.244 311.295C166.822 313.474 166.389 315.721 166.012 317.951C165.79 319.274 165.676 320.54 165.562 321.88L165.545 322.074C165.425 323.426 165.271 324.812 165.117 326.158C164.969 327.486 164.815 328.861 164.689 330.23C164.598 331.222 164.513 332.22 164.427 333.224C164.284 334.929 164.136 336.691 163.948 338.425C163.617 341.459 163.343 344.202 163.372 347.048C163.389 348.514 163.469 349.985 163.543 351.411C163.617 352.814 163.697 354.269 163.714 355.689C163.737 358.13 163.817 360.976 164.216 363.776L164.153 363.861C163.885 364.238 163.606 364.62 163.349 365.059C163.155 365.213 162.933 365.361 162.705 365.515C161.872 366.086 160.857 366.776 160.304 368.042C157.903 369.912 156.186 372.314 154.521 374.64C153.716 375.77 152.798 377.173 152.119 378.992L151.886 379.619C151.087 381.735 150.089 384.364 150.888 387.353C151.207 388.545 151.789 389.703 152.302 390.718C152.496 391.1 152.684 391.476 152.85 391.836L152.924 391.995C153.386 393.005 153.751 393.803 154.372 394.619C155.695 396.375 157.589 397.795 159.442 398.417C159.978 398.6 160.532 398.719 161.062 398.833C161.547 398.936 162.043 399.044 162.539 399.198C164.222 399.735 166.315 400.271 168.761 400.795C169.144 400.881 169.497 400.983 169.874 401.092C170.535 401.286 171.22 401.485 172.029 401.548C173.432 401.662 174.676 401.388 175.816 401.08C178.999 400.225 181.582 398.657 183.966 397.117C184.531 396.752 185.01 396.335 185.478 395.936C185.723 395.719 185.974 395.508 186.236 395.303L186.721 394.927C188.015 393.917 189.356 392.879 190.582 391.647C191.54 390.695 192.578 389.914 193.673 389.087C194.021 388.824 194.374 388.562 194.722 388.288C195.219 387.906 195.715 387.524 196.211 387.148C197.158 386.423 198.133 385.676 199.074 384.912C199.861 384.279 200.591 383.594 201.298 382.939C201.937 382.34 202.547 381.775 203.186 381.245C203.511 380.977 203.836 380.737 204.161 380.492C204.555 380.195 204.96 379.893 205.365 379.551C205.644 379.317 205.923 379.078 206.197 378.832C206.614 378.473 207.03 378.108 207.452 377.766C208.45 376.939 209.311 375.986 210.138 375.057C210.549 374.6 210.954 374.144 211.387 373.699L211.786 373.289C212.294 372.77 212.819 372.234 213.309 371.669C213.554 371.39 213.817 371.122 214.079 370.848C214.461 370.454 214.86 370.044 215.231 369.587C216.241 368.344 217.33 367.152 218.379 366C219.138 365.167 219.919 364.312 220.672 363.434C220.877 363.2 221.088 362.966 221.305 362.732C221.738 362.264 222.183 361.78 222.571 361.244C222.782 360.947 223.027 360.656 223.29 360.348C223.632 359.943 223.991 359.516 224.311 359.042C224.932 358.107 225.611 357.223 226.261 356.362C226.706 355.774 227.151 355.187 227.584 354.588C227.892 354.166 228.16 353.732 228.423 353.316C228.662 352.934 228.885 352.58 229.13 352.238C229.712 351.423 230.316 350.641 230.955 349.814C231.462 349.153 231.976 348.497 232.478 347.818C233.208 346.826 233.727 345.691 234.228 344.59C234.559 343.86 234.879 343.17 235.249 342.52C235.455 342.155 235.683 341.801 235.928 341.425C236.196 341.009 236.475 340.575 236.732 340.113C237.046 339.549 237.32 338.978 237.582 338.425C237.742 338.089 237.901 337.752 238.067 337.433C239.704 334.21 241.118 330.195 242.281 325.49C243.616 320.072 243.297 314.66 241.426 311.004L241.46 311.01ZM171.083 184.519C171.995 180.789 172.936 176.928 173.911 173.209C174.14 172.348 174.305 171.458 174.47 170.603C174.596 169.924 174.733 169.223 174.892 168.561C175.366 166.571 175.628 165.036 175.725 163.588C175.822 162.168 175.845 160.77 175.862 159.419C175.89 157.463 175.913 155.615 176.17 153.852C176.273 153.122 176.427 152.37 176.575 151.64C176.712 150.955 176.854 150.254 176.963 149.547V149.518C177.014 149.221 177.06 148.931 177.105 148.645C177.887 149.763 178.736 150.807 179.569 151.834C180.151 152.552 180.75 153.288 181.303 154.029L181.497 154.286C182.135 155.141 182.797 156.02 183.59 156.744C184.297 157.388 185.004 158.107 185.683 158.803C186.51 159.647 187.365 160.52 188.278 161.318C189.099 162.042 189.949 162.721 190.77 163.377C191.648 164.078 192.475 164.74 193.285 165.458C193.713 165.841 194.112 166.303 194.54 166.787C194.831 167.124 195.122 167.455 195.424 167.768C195.937 168.31 196.485 168.801 197.015 169.274C197.3 169.531 197.591 169.787 197.876 170.055C199.37 171.458 200.665 172.981 202.028 174.595L202.148 174.738C202.656 175.336 203.209 175.844 203.739 176.329C204.019 176.58 204.292 176.836 204.56 177.104C205.028 177.572 205.49 178.12 205.935 178.644C206.18 178.929 206.42 179.215 206.653 179.483C207.868 180.874 208.901 182.289 209.859 183.891C209.323 184.701 208.821 185.522 208.33 186.321C207.19 188.186 206.112 189.942 204.703 191.425C203.568 192.623 202.308 193.752 201.093 194.841C199.844 195.959 198.555 197.117 197.357 198.383C196.793 198.976 196.217 199.535 195.612 200.134C195.008 200.727 194.38 201.337 193.77 201.982C193.331 202.444 192.857 202.877 192.356 203.328C191.591 204.024 190.804 204.736 190.103 205.615C189.293 206.624 188.403 207.634 187.542 208.603L186.835 209.402C186.379 209.921 185.962 210.468 185.563 210.999C185.152 211.54 184.759 212.059 184.337 212.533C183.516 212.219 182.7 212.037 181.959 211.871C181.166 211.694 180.413 211.523 179.837 211.227C178.428 210.514 177.362 209.402 176.238 208.221C175.959 207.925 175.674 207.628 175.383 207.337C174.499 206.43 173.586 205.495 172.885 204.525C172.731 204.314 172.583 204.103 172.44 203.898C171.79 202.974 171.117 202.022 170.102 201.235C169.822 201.018 169.543 200.881 169.315 200.773C169.161 200.699 169.035 200.636 168.944 200.567C168.75 200.419 168.528 200.157 168.294 199.883C168.043 199.581 167.752 199.239 167.404 198.931C168.699 194.265 169.902 189.315 171.071 184.524L171.083 184.519ZM146.987 146.108C146.673 146.974 146.359 147.83 146.068 148.691C144.899 152.159 143.987 154.776 143.12 157.183C142.082 160.063 140.867 162.538 139.521 164.546C138.477 166.103 137.559 167.728 136.67 169.302C136.202 170.129 135.74 170.956 135.261 171.755C134.571 172.907 133.812 174.053 133.082 175.165C132.324 176.312 131.542 177.492 130.824 178.707C130.31 179.568 129.854 180.458 129.409 181.319C129.21 181.713 129.004 182.1 128.799 182.494C127.921 184.148 126.94 185.728 125.908 187.393C124.733 189.286 123.518 191.248 122.469 193.313C122.109 194.026 121.801 194.75 121.505 195.457C121.237 196.096 120.986 196.701 120.695 197.288C120.535 197.613 120.375 197.933 120.227 198.246C119.953 197.647 119.68 197.054 119.406 196.467C118.168 193.792 116.885 191.032 115.921 188.163C115.471 186.828 115.157 185.454 114.826 183.994C114.581 182.905 114.324 181.781 114.005 180.669L113.748 179.762C113.229 177.943 112.699 176.078 111.992 174.281C112.562 173.797 113.195 173.363 113.857 172.913C114.421 172.525 115.009 172.126 115.562 171.686C115.841 171.47 116.058 171.23 116.252 171.025C116.372 170.899 116.48 170.774 116.583 170.694C117.13 170.226 117.723 169.782 118.345 169.314C118.83 168.949 119.32 168.584 119.794 168.202C121.277 167.01 122.731 165.755 124.134 164.54C125.451 163.4 126.809 162.225 128.172 161.124C129.472 160.075 130.693 158.94 131.879 157.839L132.352 157.4C133.846 156.008 135.489 154.662 137.069 153.362C138.968 151.805 140.93 150.191 142.738 148.434C143.131 148.052 143.468 147.653 143.793 147.265C144.061 146.946 144.312 146.644 144.58 146.376C145.156 145.794 145.903 145.298 146.69 144.779C147.009 144.568 147.329 144.357 147.631 144.14C147.671 144.111 147.705 144.089 147.745 144.06C147.506 144.75 147.255 145.435 147.009 146.113L146.987 146.108ZM153.34 124.162C152.422 125.011 151.401 125.759 150.323 126.546C149.405 127.219 148.458 127.914 147.563 128.684C147.517 128.724 147.466 128.764 147.42 128.81C147.95 127.447 148.458 125.952 148.949 124.293C149.114 123.74 149.285 123.192 149.456 122.645C149.907 121.219 150.374 119.747 150.688 118.162C151.104 116.057 151.127 113.673 151.144 111.369C151.161 109.168 151.184 106.892 151.543 104.879C151.977 102.484 152.388 100.208 153.049 98.098C153.078 98.1265 153.106 98.155 153.135 98.1836C153.289 98.3432 153.454 98.5143 153.642 98.6911C154.327 101.663 155.148 104.531 155.941 107.314C156.614 109.676 157.309 112.116 157.931 114.632C157.994 114.883 158.079 115.162 158.165 115.453C158.273 115.812 158.456 116.411 158.456 116.588C158.416 116.833 158.005 117.477 157.788 117.82C157.612 118.093 157.452 118.35 157.321 118.584C156.02 120.951 154.897 122.713 153.329 124.162H153.34Z" fill="#1B0E3A"/>
<path fill-rule="evenodd" clip-rule="evenodd" d="M163.252 66.0008C166.366 72.1602 168.51 79.3405 170.769 86.4011C172.006 85.0608 173.084 83.0362 173.558 80.6979C172.12 77.9376 170.695 74.9206 169.235 71.9378C168.858 71.1736 168.681 70.3067 168.322 69.5367C167.256 67.2498 166.075 65.151 164.849 63.1149C164.849 63.0807 164.843 63.0465 164.792 63.0579C164.296 64.0503 163.697 64.94 163.252 65.995V66.0008Z" fill="#82C3DE"/>
<path fill-rule="evenodd" clip-rule="evenodd" d="M159.665 72.0005C162.539 77.3273 164.016 84.0685 165.3 91.015C166.628 90.3534 167.547 89.2584 168.773 88.4942C166.708 81.3709 164.461 74.4415 161.997 67.7402C161.176 69.1147 160.344 70.4778 159.659 72.0005H159.665Z" fill="#82C3DE"/>
<path fill-rule="evenodd" clip-rule="evenodd" d="M157.212 77.9428C158.171 79.3287 158.153 81.1537 158.353 83.1612C158.587 85.5338 159.186 88.2314 159.151 90.7807C159.996 91.4651 161.227 92.5943 162.568 91.8586C162.094 85.1403 160.708 79.3743 158.524 74.4639C158.068 75.6045 157.714 76.8478 157.212 77.9428Z" fill="#82C3DE"/>
<path fill-rule="evenodd" clip-rule="evenodd" d="M155.678 82.4432C155.484 83.0193 155.079 83.7721 155.108 84.3595C155.125 84.6903 155.387 85.2036 155.507 85.6199C155.775 86.5609 156.106 87.2054 156.477 87.9582C156.642 88.3004 156.785 88.8821 157.041 88.8023C156.796 86.0591 156.562 83.3044 156.3 80.584C156.134 81.1942 155.901 81.776 155.672 82.4432H155.678Z" fill="#82C3DE"/>
<path fill-rule="evenodd" clip-rule="evenodd" d="M157.897 30.8517C157.731 31.1825 157.532 31.4677 157.212 31.6274C153.363 38.1632 148.635 44.9728 144.631 51.5429C144.34 52.0163 144.112 52.6265 143.833 52.9231C143.627 53.1455 143.211 53.3109 142.92 53.579C142.156 54.3033 141.158 54.9991 139.96 55.1416C138.232 55.3413 137.97 54.5884 137.114 53.8242C135.129 52.0448 133.955 49.735 131.993 47.8872C130.698 46.6667 129.278 45.5888 128.006 44.4653C127.869 44.3455 127.738 44.0375 127.493 44.106C126.677 46.8663 125.44 50.0943 125.217 53.579C125.137 54.7995 125.029 56.134 125.046 57.3602C125.075 59.3449 125.679 60.7194 126.187 62.2821C128.257 60.9703 130.738 59.8069 133.476 58.9799C136.202 58.1586 139.059 57.2575 142.298 57.2404C145.743 57.2176 149.034 57.6396 152.211 58.3183C152.513 57.9989 152.484 57.326 152.952 57.1777C153.368 57.3602 153.785 57.48 153.865 57.8963C154.623 58.2727 155.188 58.8145 156.197 58.9172C159.026 59.208 160.936 57.5028 162.522 56.2138C163.007 55.826 164.056 55.2557 164.176 54.8394C164.33 54.2805 164.119 53.0657 164.119 52.3813V49.8035C164.119 46.0964 163.674 43.741 163.035 40.9236C162.157 37.0682 160.811 32.9277 158.821 30.4867C158.764 30.4867 158.752 30.4411 158.707 30.4297C158.444 30.5723 158.25 30.789 157.914 30.846L157.897 30.8517Z" fill="#82C3DE"/>
<path fill-rule="evenodd" clip-rule="evenodd" d="M155.792 47.2829C156.551 47.1403 157.167 47.5737 157.275 48.3038C157.361 48.8969 157.024 49.3246 156.933 49.9805C156.887 50.2999 157.001 50.6649 156.933 50.8816C156.676 51.7029 155.262 51.874 154.144 51.4804C153.83 51.3721 153.682 51.0641 153.346 50.8816C152.821 50.5907 152.456 50.7732 152.319 50.22C152.017 48.9881 153.254 48.7885 153.91 48.4178C154.686 47.9844 155.017 47.4255 155.792 47.2772V47.2829Z" fill="#1B0E3A"/>
<path fill-rule="evenodd" clip-rule="evenodd" d="M129.592 51.6621C130.099 51.548 130.55 51.5765 130.904 51.7819C131.554 52.164 132.751 54.451 131.987 55.5003C131.497 56.1733 129.917 56.7379 129.079 56.1619C128.742 55.9281 127.932 54.8331 127.83 54.3597C127.601 53.3502 128.046 52.9339 128.622 52.3807C129.033 51.9872 129.073 51.7819 129.592 51.6564V51.6621Z" fill="#1B0E3A"/>
<path d="M91.6769 105.564C92.5495 104.315 93.1541 103.072 93.3993 102.131C95.4011 99.1593 97.4543 96.2222 99.5645 93.3249C100.694 92.6862 102.467 90.9695 104.247 88.7909C106.465 86.0705 107.982 83.5097 107.88 82.5516C110.041 79.9224 112.254 77.3332 114.547 74.8066C112.117 77.1963 109.756 79.6487 107.446 82.1581C106.494 82.1695 104.127 84.0629 101.863 86.8404C100.026 89.0931 98.7717 91.2775 98.4523 92.5322C96.1711 95.3096 93.9468 98.1327 91.7739 100.996C91.5401 101.526 91.3233 102.062 91.1465 102.615C90.6276 104.201 90.234 105.912 89.8291 107.714C90.4336 107.155 91.0781 106.425 91.6826 105.558L91.6769 105.564Z" fill="#82C3DE"/>
<path d="M89.9147 118.265C90.736 117.33 91.6656 116.058 92.5439 114.598C93.6902 112.699 94.5229 110.885 94.8936 109.591C95.2529 108.963 95.6179 108.342 96.0057 107.726C97.6996 104.943 99.4333 102.188 101.213 99.4618C102.861 97.8934 105.604 94.5057 108.587 90.5077C112.534 85.1981 115.602 80.6526 115.608 79.4778C117.655 76.9284 119.748 74.4133 121.915 71.9609C119.657 74.3164 117.461 76.7345 115.311 79.1926C114.205 79.3409 110.161 83.2362 106.117 88.6713C103.066 92.7605 100.836 96.5816 99.9865 98.6918C98.0931 101.344 96.2452 104.024 94.4373 106.733C94.0039 107.366 93.5876 108.011 93.1769 108.661C92.2188 109.596 91.0382 111.148 89.909 113.013C89.2474 114.108 88.6942 115.168 88.2665 116.115C88.1296 117.421 88.1296 118.796 88.198 120.216L88.6486 120.472L89.9147 118.271V118.265Z" fill="#82C3DE"/>
<path d="M56.9615 397.248C56.163 395.783 54.8 393.758 53.2658 391.528C50.7336 387.895 48.5721 384.878 47.6196 384.656C46.8668 383.344 46.1596 382.009 45.498 380.641C46.0227 382.061 46.5988 383.469 47.2261 384.85C47.055 385.255 47.2033 386.213 47.671 387.524C48.2356 389.11 49.285 391.18 50.7336 393.279C52.359 395.634 54.1213 397.471 55.4615 398.532C55.8379 399.022 56.2315 399.507 56.625 399.992C56.9786 400.003 57.3322 400.014 57.6858 400.032C58.2561 400.06 58.8321 400.094 59.4024 400.123C59.5507 400.134 59.699 400.14 59.8473 400.146C58.8606 399.205 57.8968 398.241 56.9672 397.243L56.9615 397.248Z" fill="#82C3DE"/>
<path d="M126.01 390.838C125.388 389.914 124.676 389.184 124.031 388.728C121.801 385.762 119.372 382.956 116.828 380.276C116.554 379.871 116.246 379.432 115.887 378.958C114.25 376.78 111.735 373.979 108.724 371.151C105.707 368.322 102.787 365.989 100.574 364.432C98.6747 363.103 97.3002 362.345 96.7698 362.35C94.7737 360.731 92.7661 359.117 90.77 357.497C92.6863 359.208 94.614 360.913 96.5302 362.63C96.6785 363.776 101.099 368.248 106.619 373.403C109.585 376.186 112.282 378.684 114.296 380.447C115.014 381.074 115.647 381.604 116.183 382.021C118.299 384.507 120.301 387.085 122.138 389.766C122.32 390.564 122.788 391.562 123.466 392.572C124.014 393.382 124.613 394.072 125.172 394.551C125.252 394.688 125.326 394.825 125.406 394.961C126.198 394.631 126.94 394.288 127.624 393.935C127.47 393.707 127.322 393.473 127.174 393.239C126.968 392.515 126.58 391.676 126.016 390.844L126.01 390.838Z" fill="#82C3DE"/>
<path d="M236.162 316.115C236.835 317.398 237.473 318.699 238.078 320.005C237.804 320.689 238.044 321.887 238.711 323.062C238.996 323.552 239.321 323.974 239.658 324.316C239.943 323.033 240.154 321.59 240.234 320.107C239.783 319.72 239.327 319.486 238.933 319.457C238.027 318.322 237.103 317.205 236.156 316.115H236.162Z" fill="#82C3DE"/>
<path d="M230.664 330.835C228.177 326.392 225.337 323.221 224.293 322.993C223.238 321.602 222.16 320.227 221.037 318.893C222.029 320.335 222.97 321.813 223.883 323.301C223.752 324.39 225.582 328.063 227.978 332.346C229.318 334.73 230.618 336.858 231.679 338.352C232.078 339.247 232.466 340.143 232.848 341.044C233.076 340.645 233.322 340.262 233.561 339.892C233.818 339.492 234.063 339.116 234.274 338.74C234.297 338.7 234.314 338.66 234.337 338.62C234.103 338.198 233.869 337.776 233.63 337.354C233.048 335.592 232.033 333.276 230.658 330.829L230.664 330.835Z" fill="#82C3DE"/>
<path d="M225.497 336.036C222.434 330.549 219.092 326.54 218.014 326.266C216.971 324.818 215.91 323.38 214.809 321.972C215.796 323.477 216.737 325 217.661 326.534C217.541 327.698 219.839 332.215 222.816 337.541C224.459 340.473 226.027 343.096 227.288 344.944C227.772 345.999 228.252 347.06 228.725 348.115C228.731 348.104 228.742 348.092 228.748 348.087C229.244 347.448 229.74 346.803 230.225 346.148C230.27 346.091 230.305 346.022 230.345 345.959C229.974 345.292 229.603 344.619 229.227 343.952C228.457 341.836 227.174 339.019 225.497 336.036Z" fill="#82C3DE"/>
<path d="M211.13 352.501C207.651 346.496 204.121 341.939 202.889 341.334C201.429 339.178 199.958 337.028 198.475 334.89C199.809 337.125 201.127 339.372 202.433 341.625C202.444 343.005 205.028 348.115 208.467 354.041C210.383 357.337 212.191 360.297 213.611 362.39C214.107 363.411 214.592 364.438 215.077 365.47C215.493 365.008 215.904 364.546 216.314 364.101C216.474 363.93 216.634 363.748 216.794 363.571C216.377 362.835 215.967 362.094 215.545 361.364C214.592 358.991 213.069 355.838 211.13 352.501Z" fill="#82C3DE"/>
<path d="M196.832 381.645C195.047 379.386 193.314 377.082 191.631 374.738C191.061 373.136 189.755 370.632 188.107 367.906C185.723 363.982 183.43 360.908 182.455 360.657C181.434 358.923 180.43 357.172 179.472 355.404C180.299 357.235 181.166 359.043 182.055 360.845C181.69 361.746 183.019 365.453 185.472 369.497C187.177 372.32 188.991 374.578 190.262 375.725C191.768 378.183 193.331 380.601 194.945 382.991C194.888 383.316 194.945 383.647 195.144 383.909C195.23 384.023 195.333 384.109 195.441 384.183C196.074 383.692 196.713 383.202 197.323 382.706C197.471 382.586 197.608 382.46 197.751 382.335C197.716 382.244 197.677 382.158 197.62 382.078C197.431 381.822 197.146 381.679 196.832 381.633V381.645Z" fill="#82C3DE"/>
<path d="M190.724 384.632C188.945 382.465 187.205 380.264 185.523 378.017C185.044 376.511 183.726 374.013 182.044 371.281C179.677 367.46 177.441 364.454 176.546 364.426C175.885 363.262 175.24 362.088 174.618 360.901C175.149 362.133 175.702 363.354 176.278 364.569C175.788 365.31 176.991 368.966 179.426 372.901C181.154 375.707 183.019 377.897 184.263 378.895C185.785 381.29 187.371 383.651 189.008 385.973C189.053 386.48 189.281 387.056 189.681 387.575C189.863 387.809 190.063 388.009 190.274 388.174C190.85 387.706 191.431 387.267 192.002 386.834C192.184 386.697 192.367 386.56 192.549 386.417C192.441 386.172 192.304 385.921 192.122 385.687C191.722 385.168 191.215 384.803 190.73 384.638L190.724 384.632Z" fill="#82C3DE"/>
<path d="M180.327 392.526C179.523 391.647 178.662 390.98 177.943 390.666C176.095 388.636 174.35 386.509 172.731 384.279C172.485 382.939 171.276 380.401 169.765 377.555C167.695 373.699 165.784 370.625 164.98 370.933C164.193 371.23 164.877 374.96 167.05 379.003C168.641 381.992 170.535 384.21 171.693 384.975C173.153 387.364 174.75 389.674 176.472 391.898C176.666 392.68 177.208 393.666 178.052 394.596C178.702 395.309 179.398 395.845 180.036 396.181C180.048 396.193 180.059 396.21 180.071 396.221C180.795 395.811 181.491 395.377 182.169 394.938C182.021 394.796 181.873 394.659 181.725 394.522C181.422 393.894 180.949 393.204 180.333 392.526H180.327Z" fill="#82C3DE"/>
<path d="M173.62 395.179C172.713 394.198 171.75 393.445 170.98 393.108C169.138 391.084 167.427 388.934 165.858 386.675C165.83 385.557 164.929 383.333 163.708 380.864C162.1 377.653 160.497 375.121 159.687 375.4C158.889 375.668 159.248 378.822 160.953 382.232C162.259 384.862 163.913 386.755 164.929 387.28C166.32 389.698 167.871 392.036 169.571 394.266C169.776 395.105 170.392 396.217 171.362 397.26C171.921 397.865 172.508 398.355 173.067 398.715C173.723 398.675 174.384 398.538 175.132 398.338C175.434 398.258 175.73 398.167 176.021 398.07C175.748 397.825 175.468 397.58 175.194 397.329C174.846 396.662 174.305 395.909 173.626 395.179H173.62Z" fill="#82C3DE"/>
<path d="M89.6295 130.025L90.7929 130.464C91.1351 129.506 91.4944 128.553 91.8594 127.601C92.6579 126.283 93.5761 124.544 94.5228 122.61C95.7205 120.152 96.69 117.894 97.1634 116.325L98.2413 114.358C99.9351 111.301 101.652 108.261 103.408 105.238C105.422 102.803 108.781 97.9212 112.545 92.2922C117.718 84.5301 122.012 78.1482 122.035 76.8707C123.917 74.3955 125.856 71.966 127.858 69.582C125.782 71.8861 123.769 74.2472 121.807 76.6483C120.643 76.865 115.282 82.6367 109.996 90.5812C106.146 96.3357 103.289 101.628 102.085 104.543C100.237 107.491 98.4238 110.457 96.633 113.434L95.4467 115.43C94.3517 116.685 92.9772 118.761 91.7567 121.27C90.8271 123.169 90.1599 124.994 89.7606 126.483C89.504 127.087 89.2588 127.698 89.0078 128.302C89.0934 128.855 89.1846 129.386 89.2816 129.893L89.6352 130.025H89.6295Z" fill="#82C3DE"/>
<path d="M98.2186 131.753C99.5646 128.599 100.625 125.719 101.15 123.751C102.855 119.913 104.629 116.109 106.5 112.345C107.156 111.438 107.954 110.24 108.866 108.803C111.153 105.227 114.005 100.157 117.17 94.585C120.324 89.0073 123.267 84.0398 125.423 80.4468C126.763 78.2225 127.784 76.5116 128.286 75.4679C130.242 72.736 132.284 70.0612 134.451 67.4834C132.421 69.7647 130.487 72.1258 128.628 74.544C128.639 74.4356 128.628 74.3615 128.582 74.3272C128.263 74.0706 126.307 75.8728 123.638 79.2035C120.98 82.5341 117.678 87.4275 114.496 93.0622C111.296 98.6913 108.741 103.944 106.956 107.759C106.477 108.803 106.06 109.744 105.713 110.565C103.54 114.603 101.458 118.692 99.4733 122.827C98.2984 124.51 96.7814 127.276 95.3898 130.544C94.3233 133.036 93.5078 135.374 93.0002 137.239C92.7835 137.753 92.5724 138.272 92.3557 138.785C92.8063 139.709 93.291 140.633 93.8385 141.488C93.8557 141.511 93.8728 141.534 93.8842 141.557C94.3233 140.382 94.7739 139.218 95.2244 138.049C96.1369 136.372 97.1806 134.182 98.2186 131.753Z" fill="#82C3DE"/>
<path d="M103.482 138.123C104.657 134.798 105.57 131.776 106.009 129.7C107.708 125.109 109.511 120.552 111.433 116.046C111.912 115.151 112.442 114.124 113.035 112.989C114.204 110.759 115.607 108.113 117.204 105.199C118.807 102.29 120.598 99.102 122.525 95.777C126.381 89.1328 129.962 83.133 132.409 78.6959C134.65 74.6466 135.951 71.9091 135.882 71.2932C137.097 69.5309 138.329 67.7857 139.589 66.0576C138.289 67.7401 137.017 69.4396 135.768 71.1563C135.278 71.1791 133.356 73.5858 130.567 77.5325C127.647 81.6787 123.757 87.5131 119.862 94.2314C117.917 97.5906 116.178 100.864 114.689 103.893C113.206 106.921 111.986 109.71 111.062 112.088C110.343 113.936 109.79 115.527 109.408 116.793C107.606 120.774 105.895 124.795 104.264 128.85C103.174 130.681 101.806 133.641 100.585 137.091C99.6384 139.754 98.9426 142.241 98.5263 144.209C98.2583 144.99 97.9902 145.777 97.7222 146.558C97.8533 146.655 97.9788 146.746 98.1043 146.849C98.7259 147.374 99.205 147.75 99.8095 148.058C100.14 146.98 100.483 145.897 100.819 144.819C101.64 143.022 102.57 140.69 103.482 138.118V138.123Z" fill="#82C3DE"/>
<path d="M109.625 141.528C110.463 138.557 111.153 135.854 111.473 133.96C112.026 132.324 112.602 130.698 113.212 129.078C114.518 125.599 115.927 122.16 117.393 118.733C117.684 118.123 117.986 117.478 118.3 116.794C120.689 111.638 123.82 104.458 127.522 96.6728C129.381 92.7832 131.229 89.1275 132.957 85.8253C133.841 84.1885 134.662 82.6144 135.483 81.1772C135.888 80.4529 136.265 79.7457 136.652 79.0784C137.035 78.4112 137.405 77.7724 137.759 77.1622C140.479 72.4627 142.304 69.5256 142.11 69.0636C142.789 68.1169 143.479 67.1759 144.192 66.252C143.456 67.1588 142.743 68.0827 142.036 69.0066C141.591 68.961 139.156 71.4818 135.922 75.9816C135.512 76.569 135.078 77.185 134.628 77.8237C134.183 78.4682 133.75 79.1583 133.288 79.8655C132.358 81.2742 131.44 82.8197 130.47 84.4509C128.571 87.7302 126.621 91.4145 124.733 95.3497C120.986 103.237 118.151 110.6 116.275 115.978C115.579 117.974 115.02 119.697 114.604 121.083C113.52 123.501 112.471 125.942 111.473 128.405C110.828 129.997 110.212 131.599 109.619 133.213C108.661 134.913 107.543 137.57 106.659 140.696C105.952 143.177 105.547 145.498 105.393 147.334C105.205 148.173 105.028 149.011 104.863 149.849C105.564 149.964 106.277 150.106 107.001 150.249C107.093 150.266 107.184 150.283 107.27 150.3C107.418 149.422 107.578 148.543 107.754 147.671C108.325 145.994 108.958 143.855 109.619 141.528H109.625Z" fill="#82C3DE"/>
<path d="M117.147 143.644C117.695 141.368 118.083 139.287 118.214 137.775C118.978 135.049 119.834 132.346 120.752 129.66C121.305 128.04 121.875 126.426 122.463 124.818C123.056 123.574 123.74 122.074 124.493 120.358C126.854 114.98 129.849 107.457 133.253 99.2216C134.959 95.1039 136.641 91.2143 138.204 87.6955C138.996 85.9389 139.738 84.2678 140.468 82.7166C141.175 81.1539 141.871 79.7224 142.493 78.3993C145.002 73.1352 146.616 69.8787 146.234 69.6448C146.205 69.6277 146.165 69.6391 146.12 69.6562C146.662 68.8065 147.209 67.9567 147.774 67.124C147.152 67.9966 146.547 68.8749 145.949 69.7646C145.184 70.3577 143.154 73.0668 140.571 77.3727C139.818 78.6445 138.996 80.0361 138.187 81.5702C137.348 83.093 136.504 84.7412 135.637 86.4864C133.915 89.9881 132.13 93.8891 130.413 98.0411C126.98 106.345 124.299 114.01 122.463 119.582C122.098 120.688 121.773 121.709 121.482 122.645C120.632 124.766 119.799 126.894 119.001 129.038C118.003 131.718 117.062 134.433 116.212 137.176C115.494 138.545 114.724 140.57 114.159 142.925C113.691 144.859 113.458 146.661 113.406 148.104C113.218 149.045 113.047 149.992 112.887 150.938C113.258 150.91 113.646 150.87 114.039 150.824C114.484 150.773 114.952 150.727 115.431 150.693C115.533 149.974 115.642 149.262 115.762 148.549C116.224 147.22 116.697 145.514 117.153 143.65L117.147 143.644Z" fill="#82C3DE"/>
<path d="M125.371 145.127C125.816 143.313 126.039 141.637 126.039 140.399C127.094 135.968 128.211 131.553 129.386 127.156C129.814 125.999 130.287 124.664 130.795 123.17C131.268 121.79 131.77 120.273 132.301 118.641C132.865 117.022 133.47 115.294 134.103 113.474C135.38 109.841 136.806 105.855 138.352 101.691C141.437 93.3591 144.46 85.905 146.639 80.4927C148.794 75.1659 150.089 71.8067 149.758 71.5216C150.26 70.5121 150.756 69.4969 151.275 68.4932C150.722 69.4912 150.192 70.5007 149.656 71.5045C149.125 71.7041 147.203 74.6925 144.66 79.5859C141.956 84.8043 138.58 92.2071 135.46 100.619C133.898 104.823 132.54 108.878 131.4 112.59C130.829 114.45 130.316 116.223 129.854 117.883C129.426 119.56 129.044 121.122 128.702 122.548C128.451 123.603 128.229 124.578 128.029 125.48C126.575 130.299 125.2 135.146 123.9 140.011C123.352 141.101 122.805 142.64 122.377 144.391C122.018 145.863 121.807 147.243 121.733 148.366C121.567 149.011 121.408 149.661 121.242 150.306C121.299 150.294 121.356 150.277 121.413 150.266C122.092 150.106 122.799 149.946 123.586 149.935H123.849C123.911 149.65 123.974 149.37 124.037 149.091C124.516 148.036 124.989 146.661 125.366 145.121L125.371 145.127Z" fill="#82C3DE"/>
<path d="M152.941 75.1948C153.676 73.4439 154.429 71.7045 155.21 69.9707C154.378 71.676 153.574 73.3926 152.781 75.115C151.72 75.6055 145.777 87.8616 140.776 103.728C137.622 113.623 135.58 122.571 134.628 128.149C133.493 132.472 132.409 136.812 131.365 141.152C130.989 141.734 130.658 142.538 130.453 143.456C130.27 144.278 130.219 145.059 130.276 145.709C130.168 146.177 130.054 146.644 129.945 147.112L131.16 147.38L132.375 147.648C132.472 147.181 132.569 146.713 132.66 146.251C132.991 145.686 133.276 144.956 133.464 144.129C133.67 143.211 133.709 142.344 133.612 141.654C134.593 136.96 135.614 132.272 136.698 127.596C138.386 122.178 140.787 113.88 143.724 104.658C148.663 88.9909 153.351 76.3811 152.952 75.1891L152.941 75.1948Z" fill="#82C3DE"/>
<path d="M143.468 130.703C143.639 129.751 143.81 128.804 143.987 127.852C144.038 127.669 144.089 127.481 144.146 127.293C145.31 123.118 146.724 117.318 148.258 110.925C148.275 110.85 148.293 110.782 148.31 110.708C148.332 108.592 148.384 106.425 148.749 104.383C149.239 101.663 149.747 98.8566 150.665 96.2845V96.216C150.625 95.2522 151.275 94.699 151.908 94.5906L152.102 94.5564L152.228 94.5678C152.228 94.5678 152.228 94.5621 152.228 94.5564C153.226 90.3589 153.756 87.7183 153.346 87.57C152.952 87.4331 151.692 89.8399 150.146 93.9177C148.595 97.9897 146.815 103.75 145.264 110.195C143.713 116.645 142.635 122.542 142.013 126.837C141.985 127.042 141.956 127.236 141.928 127.435C141.346 129.893 140.77 132.357 140.2 134.815L140.816 134.941L141.7 133.68C142.338 132.774 142.92 131.781 143.473 130.692L143.468 130.703Z" fill="#82C3DE"/>
<path d="M45.5608 394.431C43.8042 391.774 42.1047 389.686 41.215 389.55C40.6333 388.608 40.0686 387.662 39.5439 386.687C39.9204 387.725 40.331 388.751 40.7644 389.766C40.3424 390.548 41.1237 393.291 42.9887 396.12C43.251 396.519 43.5134 396.895 43.7871 397.249C43.8442 397.289 43.8955 397.34 43.9468 397.38C45.2528 398.355 46.9923 399.108 48.8002 399.49C48.4752 399.131 48.1444 398.777 47.825 398.412C47.3345 397.306 46.5304 395.903 45.5608 394.426V394.431Z" fill="#82C3DE"/>
<path d="M60.834 388.733C57.1611 384.034 54.3095 379.996 53.3 379.751C52.5301 378.456 51.7944 377.139 51.1157 375.787C51.686 377.184 52.3134 378.553 52.9807 379.905C52.8153 380.344 53.1289 381.599 53.9103 383.332C54.8057 385.34 56.3513 387.969 58.3987 390.615C60.68 393.558 63.0411 395.874 64.7863 397.254C65.619 398.218 66.4801 399.165 67.3413 400.106C68.4192 400.026 69.4743 399.952 70.4895 399.889C69.0352 398.589 67.6094 397.254 66.2235 395.88C64.9916 394.077 63.0126 391.551 60.834 388.733Z" fill="#82C3DE"/>
<path d="M75.8562 393.997C75.7022 393.769 75.5368 393.529 75.36 393.284C73.8829 391.214 71.6758 388.516 69.1949 385.607C66.714 382.699 64.4669 380.092 62.7959 378.222C61.3245 376.579 60.2637 375.524 59.7789 375.45C58.912 374.195 58.085 372.912 57.3037 371.595C57.9938 372.963 58.7352 374.304 59.5223 375.615C59.4025 376.089 59.9272 377.52 61.0279 379.488C62.2826 381.735 64.3301 384.644 66.8509 387.604C69.3774 390.564 71.8526 393.039 73.7403 394.738C73.9571 394.932 74.1681 395.115 74.3677 395.286C75.5539 396.706 76.7288 398.126 77.8866 399.557C78.9416 399.529 79.9853 399.512 81.0233 399.506L81.0347 399.495C79.3295 397.63 77.5957 395.81 75.8619 393.997H75.8562Z" fill="#82C3DE"/>
<path d="M84.4966 391.905C84.2685 391.586 84.029 391.261 83.7609 390.907C82.0728 388.683 79.5691 385.791 76.7517 382.672C73.9343 379.552 71.3793 376.769 69.4801 374.767C67.8034 373.005 66.6114 371.881 66.1095 371.807C65.1685 370.552 64.2503 369.28 63.3777 367.969C64.1647 369.326 65.0031 370.649 65.87 371.955C65.7502 372.423 66.4175 373.963 67.7577 376.102C69.252 378.485 71.6074 381.577 74.4647 384.73C77.322 387.884 80.0824 390.553 82.1697 392.39C82.4891 392.669 82.7857 392.92 83.0708 393.16C84.816 395.184 86.5384 397.226 88.2607 399.262C89.0877 399.222 89.9204 399.194 90.7587 399.194C90.8443 399.194 90.9241 399.194 91.004 399.194L91.2606 398.971C89.0022 396.616 86.7608 394.243 84.4966 391.905Z" fill="#82C3DE"/>
<path d="M101.002 397.716C100.791 397.471 100.5 397.345 100.18 397.317C97.7792 394.704 95.3326 392.144 92.8688 389.6C92.5779 389.184 92.2586 388.745 91.8935 388.26C90.1598 385.967 87.5876 382.967 84.6448 379.774C81.7019 376.574 78.9587 373.762 76.8998 371.789C75.0805 370.05 73.7688 368.972 73.2555 368.932C72.0236 367.517 70.8088 366.08 69.6226 364.62C70.729 366.143 71.8696 367.643 73.0274 369.126C72.976 369.639 73.7859 371.139 75.2516 373.215C76.9112 375.576 79.4207 378.65 82.3806 381.867C85.3406 385.083 88.1579 387.844 90.3024 389.748C90.7301 390.131 91.1236 390.467 91.4943 390.775C93.8326 393.455 96.1481 396.147 98.4066 398.885C98.4066 398.885 98.4066 398.891 98.4066 398.896C98.5834 398.879 98.7716 398.868 98.9484 398.851C99.1252 398.834 99.3077 398.805 99.4959 398.782C99.9978 398.714 100.562 398.628 101.167 398.668C101.264 398.674 101.349 398.691 101.446 398.702C101.395 398.645 101.344 398.588 101.292 398.531C101.292 398.235 101.207 397.955 101.013 397.727L101.002 397.716Z" fill="#82C3DE"/>
<path d="M109.99 396.325C109.494 395.709 108.923 395.252 108.387 394.996C106.066 392.304 103.682 389.669 101.247 387.08C99.5701 384.616 96.4504 380.801 92.5951 376.78C86.7265 370.649 81.4681 366.081 80.356 366.035C78.9302 364.609 77.5101 363.183 76.0957 361.746C77.436 363.252 78.7876 364.746 80.1393 366.235C80.0936 367.33 84.5022 372.782 90.3651 378.901C94.2661 382.973 97.8078 386.458 100.066 388.352C102.313 390.986 104.503 393.661 106.631 396.382C106.762 396.969 107.087 397.636 107.589 398.258C107.646 398.326 107.703 398.389 107.76 398.452C108.798 398.406 109.91 398.332 111.108 398.212C111.033 398.121 110.959 398.03 110.885 397.944C110.72 397.425 110.423 396.861 109.99 396.325Z" fill="#82C3DE"/>
<path d="M118.482 394.306C117.895 393.485 117.233 392.84 116.628 392.441C114.41 389.629 112.077 386.92 109.665 384.291C109.334 383.783 108.941 383.213 108.479 382.591C106.728 380.225 104.07 377.151 100.905 373.997C94.962 368.1 89.4983 363.919 88.3634 363.908C86.6866 362.419 85.0156 360.931 83.3389 359.437C84.9358 361.005 86.5441 362.568 88.141 364.136C88.1923 365.265 92.8404 370.341 98.7261 376.181C101.857 379.301 104.714 382.084 106.859 384.052C107.435 384.582 107.96 385.05 108.427 385.443C110.651 388.101 112.79 390.827 114.798 393.633C114.957 394.357 115.362 395.241 115.973 396.091C116.338 396.599 116.737 397.038 117.13 397.391C118.094 397.215 119.018 397.015 119.891 396.792C119.771 396.633 119.657 396.467 119.537 396.308C119.326 395.686 118.967 394.99 118.471 394.294L118.482 394.306Z" fill="#82C3DE"/>
<path d="M130.259 383.64C128.348 381.136 126.318 378.735 124.179 376.443C123.084 374.526 120.638 371.412 117.307 368.316C112.699 364.01 108.233 361.318 107.144 361.415C104.96 359.801 102.741 358.238 100.483 356.732C102.661 358.358 104.8 360.035 106.899 361.757C107.104 362.869 110.754 366.399 115.203 370.563C118.391 373.523 121.18 376.129 122.93 377.435C124.949 379.842 126.854 382.34 128.617 384.923C128.839 385.745 129.335 386.765 130.02 387.798C130.578 388.636 131.183 389.36 131.748 389.879C131.89 390.125 132.033 390.37 132.175 390.615C132.267 390.512 132.364 390.416 132.455 390.313C132.826 389.891 133.299 389.303 133.801 388.585C133.573 387.832 133.168 386.959 132.586 386.092C131.845 384.98 130.995 384.119 130.259 383.64Z" fill="#82C3DE"/>
<path d="M130.561 371.841C129.843 370.381 128.103 368.082 125.696 365.83C122.32 362.653 118.944 360.788 118.077 361.079C116.759 360.121 115.419 359.185 114.062 358.29C115.356 359.282 116.617 360.309 117.86 361.364C117.797 362.288 120.341 365.014 123.586 368.071C125.913 370.25 128.046 372.08 129.409 372.902C131.223 375.052 132.939 377.276 134.548 379.569C134.565 380.065 134.753 380.618 135.112 381.114C135.42 381.536 135.808 381.844 136.207 382.032C136.281 382.147 136.356 382.261 136.435 382.375C136.646 381.086 136.658 379.717 136.356 378.291C136.35 378.291 136.338 378.28 136.333 378.28C134.508 376.038 132.58 373.888 130.567 371.835L130.561 371.841Z" fill="#82C3DE"/>
<path d="M235.683 325.725C233.892 322.685 231.81 320.552 230.863 320.404C229.934 319.2 228.981 318.02 228 316.856C228.816 318.134 229.603 319.434 230.362 320.74C230.139 321.676 231.291 324.339 233.025 327.288C234 328.942 234.993 330.39 235.837 331.388C236.128 332.038 236.418 332.689 236.698 333.339L236.863 333.253C237.217 332.392 237.553 331.485 237.878 330.527C237.844 330.47 237.81 330.413 237.776 330.356C237.399 329.078 236.686 327.43 235.683 325.725Z" fill="#82C3DE"/>
<path d="M221.008 341.625C217.689 335.705 214.096 331.382 212.944 330.977C211.695 329.243 210.435 327.527 209.14 325.833C210.304 327.624 211.444 329.426 212.556 331.251C212.494 332.494 215.089 337.365 218.322 343.131C220.113 346.308 221.739 349.188 223.016 351.241C223.455 352.262 223.872 353.288 224.282 354.32C224.63 353.864 224.972 353.408 225.309 352.94C225.503 352.672 225.691 352.381 225.879 352.085C225.582 351.486 225.292 350.887 224.984 350.294C224.191 347.967 222.839 344.876 221.008 341.625Z" fill="#82C3DE"/>
<path d="M215.995 347.146C212.613 341.015 209.071 336.396 207.897 335.894C206.596 333.96 205.279 332.044 203.921 330.156C205.142 332.147 206.322 334.16 207.486 336.185C207.457 337.519 209.99 342.635 213.303 348.646C215.145 351.977 216.902 354.954 218.299 357.064C218.795 358.125 219.292 359.186 219.776 360.252C219.97 360.035 220.147 359.819 220.301 359.608C220.575 359.225 220.871 358.878 221.151 358.541C221.248 358.427 221.333 358.319 221.425 358.21C221.031 357.497 220.637 356.784 220.238 356.072C219.326 353.699 217.854 350.534 215.989 347.157L215.995 347.146Z" fill="#82C3DE"/>
<path d="M205.821 356.933C202.479 351.218 199.171 346.815 197.984 346.245C196.604 344.123 195.218 342.007 193.833 339.886C195.07 342.093 196.302 344.306 197.528 346.519C197.477 347.836 199.838 352.798 203.163 358.484C205.074 361.74 206.91 364.609 208.353 366.588C209.049 367.94 209.744 369.297 210.429 370.66C210.697 370.381 210.959 370.096 211.21 369.81C211.49 369.491 211.78 369.189 212.071 368.886C212.106 368.852 212.134 368.818 212.168 368.784C211.524 367.7 210.874 366.617 210.218 365.544C209.277 363.275 207.743 360.206 205.821 356.933Z" fill="#82C3DE"/>
<path d="M200.055 360.702C197.135 355.803 194.238 352.016 193.114 351.531C191.745 349.364 190.388 347.191 189.048 345.007C190.228 347.277 191.432 349.535 192.641 351.794C192.504 352.98 194.466 357.343 197.403 362.27C199.211 365.299 201.002 367.899 202.376 369.565C203.488 371.561 204.6 373.557 205.718 375.553C206.34 375.034 206.921 374.435 207.503 373.791C206.391 372.091 205.279 370.392 204.167 368.692C203.368 366.685 201.903 363.805 200.055 360.702Z" fill="#82C3DE"/>
<path d="M194.061 364.318C191.443 359.995 188.905 356.613 187.867 356.248C186.652 354.252 185.449 352.25 184.28 350.226C185.295 352.324 186.35 354.406 187.417 356.482C187.166 357.531 188.757 361.512 191.42 365.915C193.177 368.824 194.985 371.225 196.319 372.605C197.728 375 199.171 377.373 200.631 379.74C200.888 379.512 201.138 379.283 201.406 379.067C201.766 378.77 202.131 378.496 202.49 378.228C202.501 378.217 202.513 378.211 202.524 378.2C200.95 376.021 199.393 373.825 197.859 371.613C197.169 369.833 195.789 367.193 194.055 364.318H194.061Z" fill="#82C3DE"/>
<path d="M186.276 388.967C185.671 388.232 184.976 387.707 184.354 387.462C182.597 385.414 180.898 383.316 179.278 381.154C178.89 379.717 177.584 377.185 175.93 374.384C173.632 370.518 171.499 367.472 170.666 367.626C170.387 367.096 170.113 366.56 169.845 366.023C170.067 366.582 170.301 367.136 170.535 367.683C169.885 368.202 170.894 371.932 173.278 375.947C174.995 378.85 176.9 381.057 178.126 381.947C179.603 384.268 181.16 386.544 182.786 388.762C182.917 389.407 183.299 390.182 183.898 390.912C184.371 391.494 184.901 391.939 185.403 392.23C185.432 392.264 185.455 392.298 185.483 392.332C186.122 391.83 186.744 391.334 187.342 390.821C187.325 390.798 187.302 390.781 187.285 390.758C187.109 390.188 186.772 389.561 186.282 388.967H186.276Z" fill="#82C3DE"/>
<path d="M165.014 395.611C164.604 395.109 164.073 394.784 163.566 394.67C161.883 392.72 160.332 390.65 158.923 388.465C159.038 387.524 158.513 385.756 157.64 383.846C156.745 381.889 155.718 380.298 154.926 379.813C154.903 379.876 154.868 379.939 154.846 380.002L154.606 380.646C154.378 381.251 154.15 381.861 153.962 382.477C154.127 383.281 154.412 384.188 154.84 385.123C155.775 387.176 157.059 388.659 157.931 389.047C159.106 391.425 160.446 393.735 161.958 395.942C161.958 395.999 161.975 396.062 161.98 396.119C162.437 396.216 162.921 396.33 163.452 396.495C164.176 396.723 164.986 396.957 165.87 397.185C165.784 397.094 165.705 397.009 165.619 396.923C165.545 396.484 165.351 396.022 165.014 395.617V395.611Z" fill="#82C3DE"/>
<path d="M155.752 95.1724L160.144 96.3073C160.298 96.7293 160.589 97.0088 160.925 97.0259C161.016 97.0259 161.108 97.0088 161.193 96.9689C161.028 96.41 160.857 95.8624 160.697 95.3378L160.383 94.334C160.338 94.3967 160.298 94.4538 160.258 94.5279L155.752 95.1667V95.1724Z" fill="#82C3DE"/>
<path d="M183.225 136.726C182.341 136.795 181.571 137.068 181.057 137.439C178.924 137.673 176.78 137.867 174.636 138.021C173.626 137.542 171.59 137.239 169.258 137.211C166.138 137.177 163.543 137.65 163.201 138.414C162.146 138.414 161.085 138.397 160.03 138.369C161.079 138.494 162.129 138.608 163.184 138.711C163.44 139.504 166.024 140.256 169.223 140.291C171.636 140.319 173.706 139.931 174.698 139.407C176.866 139.458 179.033 139.469 181.2 139.435C181.765 139.72 182.569 139.874 183.47 139.806C184.086 139.76 184.633 139.612 185.084 139.412C184.941 139.087 184.799 138.762 184.656 138.443L184.451 137.975C184.246 137.513 184.04 137.102 183.818 136.726C183.63 136.72 183.436 136.72 183.236 136.737L183.225 136.726Z" fill="#82C3DE"/>
<path d="M141.3 142.698H139.635L141.124 143.359C141.158 143.895 141.568 144.408 142.19 144.728C142.298 144.608 142.407 144.483 142.527 144.363C143.222 143.661 144.015 143.108 144.791 142.595C144.471 142.304 144.049 142.07 143.547 141.968C142.584 141.768 141.671 142.087 141.3 142.698Z" fill="#82C3DE"/>
<path d="M163.292 158.382C159.688 158.176 156.671 158.484 156.266 159.231C155.473 159.203 154.686 159.163 153.893 159.123C154.674 159.26 155.45 159.391 156.231 159.516C156.477 160.326 159.425 161.25 163.109 161.461C165.465 161.598 167.552 161.416 168.841 161.056C170.216 161.17 171.59 161.267 172.965 161.353C172.982 160.691 172.993 160.03 172.999 159.38C172.999 159.271 172.999 159.163 172.999 159.049C171.624 159.129 170.25 159.197 168.87 159.248C167.615 158.832 165.579 158.518 163.281 158.382H163.292Z" fill="#82C3DE"/>
<path d="M165.568 188.876C164.991 188.853 164.467 189.002 164.073 189.264C161.336 189.241 158.598 189.139 155.861 188.962C154.469 188.346 151.823 187.73 148.772 187.228C144.471 186.538 140.856 186.315 140.308 187C139.293 186.806 138.272 186.612 137.257 186.39C138.249 186.692 139.242 186.966 140.24 187.245C140.371 188.089 143.816 189.555 148.27 190.274C151.424 190.787 154.207 190.793 155.712 190.479C158.456 190.884 161.21 191.209 163.976 191.454C164.347 191.739 164.86 191.927 165.442 191.95C165.756 191.962 166.052 191.916 166.326 191.836C166.543 190.975 166.759 190.12 166.976 189.253C166.931 189.253 166.885 189.253 166.839 189.253C166.491 189.036 166.052 188.888 165.568 188.871V188.876Z" fill="#82C3DE"/>
<path d="M144.483 192.612C140.433 191.734 136.983 191.426 136.367 192.064C135.346 191.848 134.325 191.625 133.304 191.386C134.291 191.722 135.283 192.053 136.282 192.378C136.493 193.234 139.692 194.728 143.827 195.623C146.462 196.199 148.84 196.393 150.368 196.279C151.384 196.513 152.399 196.735 153.42 196.952C153.699 196.678 153.984 196.399 154.281 196.142C154.891 195.612 155.575 195.264 156.288 195.059C154.418 194.893 152.553 194.699 150.682 194.471C149.302 193.844 147.049 193.177 144.477 192.618L144.483 192.612Z" fill="#82C3DE"/>
<path d="M105.844 179.671C104.691 179.101 103.557 178.508 102.439 177.863C103.414 178.702 104.418 179.512 105.45 180.293C105.513 181.126 106.842 182.534 108.803 183.589C109.933 184.2 111.033 184.57 111.906 184.701C111.963 184.736 112.02 184.77 112.077 184.81C112.066 184.747 112.049 184.684 112.032 184.622C111.792 183.578 111.547 182.494 111.256 181.468C110.942 181.268 110.617 181.068 110.264 180.88C108.393 179.877 106.619 179.369 105.844 179.677V179.671Z" fill="#82C3DE"/>
<path d="M139.139 202.102C141.443 202.701 143.559 202.98 145.053 202.98C146.194 203.305 147.34 203.625 148.486 203.921L148.965 201.486C147.796 201.332 146.633 201.161 145.469 200.978C144.135 200.362 142.15 199.701 139.909 199.119C136.013 198.115 132.66 197.716 132.021 198.332C131.126 198.121 130.236 197.91 129.346 197.688C130.202 198.018 131.063 198.338 131.924 198.657C132.118 199.518 135.169 201.075 139.145 202.102H139.139Z" fill="#82C3DE"/>
<path d="M135.654 208.467C138.021 209.088 140.188 209.385 141.711 209.396C142.863 209.727 144.015 210.052 145.173 210.354L145.658 207.919C144.477 207.76 143.302 207.583 142.127 207.4C140.758 206.773 138.728 206.094 136.435 205.49C132.415 204.44 128.976 203.973 128.365 204.6C127.607 204.406 126.848 204.212 126.09 204.007C126.814 204.303 127.544 204.589 128.274 204.874C128.4 205.735 131.536 207.389 135.648 208.467H135.654Z" fill="#82C3DE"/>
<path d="M114.056 197.602C111.935 196.638 109.967 196.199 109.203 196.57C108.347 196.222 107.498 195.857 106.648 195.48C106.642 195.555 106.631 195.623 106.619 195.691C107.367 196.193 108.114 196.69 108.878 197.174C109.015 198.018 110.577 199.399 112.779 200.402C114.045 200.978 115.265 201.321 116.212 201.417C116.657 201.651 117.096 201.897 117.541 202.125L118.157 200.619C118.003 200.277 117.855 199.929 117.695 199.587C117.473 199.518 117.256 199.45 117.033 199.381C116.315 198.788 115.265 198.155 114.056 197.602Z" fill="#82C3DE"/>
<path d="M181.382 218.955C178.075 218.71 172.828 218.544 166.936 218.117C157.024 217.444 148.977 216.406 148.794 217.273C148.715 217.683 150.642 218.47 153.876 219.269C157.104 220.067 161.649 220.837 166.725 221.191C171.795 221.539 176.409 221.39 179.723 221.02C180.339 220.951 180.909 220.877 181.428 220.797C184.508 220.763 187.593 220.615 190.679 220.352C191.306 219.639 191.95 218.887 192.618 218.065L192.566 217.689C188.865 218.282 185.135 218.698 181.388 218.955H181.382Z" fill="#82C3DE"/>
<path d="M163.857 225.434C155.199 224.635 148.139 223.797 147.962 224.652C147.779 225.457 154.697 227.681 163.571 228.502C167.997 228.913 172.041 228.901 174.949 228.65C175.451 228.61 175.913 228.559 176.347 228.508C178.839 228.593 181.343 228.605 183.846 228.542C184.006 228.177 184.154 227.806 184.28 227.418L184.36 227.168L184.525 226.962C184.776 226.649 185.033 226.346 185.295 226.044C182.341 226.346 179.375 226.546 176.398 226.637C173.512 226.261 168.961 225.918 163.857 225.428V225.434Z" fill="#82C3DE"/>
<path d="M131.137 221.978C133.766 222.788 136.185 223.221 137.816 223.29C139.407 223.803 141.009 224.305 142.618 224.772L143.182 222.354C141.546 222.069 139.92 221.75 138.289 221.413C136.858 220.672 134.605 219.822 132.038 219.035C127.755 217.723 124.094 217.033 123.466 217.649C122.719 217.421 121.972 217.193 121.225 216.959C121.938 217.273 122.657 217.581 123.375 217.889C123.438 218.75 126.746 220.632 131.132 221.978H131.137Z" fill="#82C3DE"/>
<path d="M108.992 209.881C106.705 208.723 104.589 208.113 103.779 208.45C102.878 208.033 101.983 207.594 101.099 207.144C101.07 207.189 101.047 207.229 101.019 207.275C101.817 207.868 102.627 208.45 103.448 209.014C103.562 209.881 105.228 211.432 107.6 212.63C108.958 213.314 110.264 213.754 111.279 213.925C111.564 214.09 111.843 214.25 112.123 214.415C112.414 213.668 112.705 212.932 113.001 212.225C112.727 212.122 112.454 212.025 112.18 211.923C111.416 211.261 110.292 210.543 108.992 209.881Z" fill="#82C3DE"/>
<path d="M161.455 232.517C154.509 231.73 148.8 231.251 148.629 232.101C148.458 232.916 153.996 234.77 161.107 235.58C165.413 236.076 169.24 236.047 171.596 235.762C173.734 235.939 175.879 236.064 178.029 236.144C178.428 235.711 178.839 235.254 179.266 234.77L179.768 234.205C179.911 234.045 180.053 233.886 180.196 233.72C177.344 233.891 174.487 233.96 171.624 233.954C169.331 233.469 165.624 233.002 161.455 232.517Z" fill="#82C3DE"/>
<path d="M130.151 229.073C132.968 229.957 135.557 230.424 137.274 230.504C139.122 231.091 140.975 231.645 142.84 232.164L143.388 229.74C141.5 229.415 139.618 229.05 137.742 228.656C136.225 227.886 133.812 226.985 131.063 226.13C126.558 224.727 122.719 223.923 122.046 224.51C121.185 224.236 120.324 223.951 119.469 223.66C120.29 224.037 121.117 224.402 121.944 224.761C122.035 225.633 125.52 227.63 130.139 229.067L130.151 229.073Z" fill="#82C3DE"/>
<path d="M106.551 216.035C104.098 214.74 101.84 214.004 101.013 214.324C100.106 213.873 99.205 213.4 98.3153 212.915C98.2924 212.955 98.2696 212.995 98.2468 213.035C99.051 213.656 99.8608 214.261 100.688 214.854C100.796 215.738 102.576 217.421 105.113 218.755C106.539 219.508 107.919 220.01 108.992 220.232C109.322 220.426 109.653 220.62 109.984 220.814C110.201 220.044 110.435 219.286 110.674 218.533C110.435 218.441 110.195 218.35 109.955 218.253C109.134 217.552 107.937 216.765 106.556 216.029L106.551 216.035Z" fill="#82C3DE"/>
<path d="M104.731 222.503C102.114 221.088 99.724 220.216 98.8229 220.467C97.7336 219.896 96.6614 219.297 95.5949 218.676C95.5835 218.721 95.5778 218.778 95.5664 218.824C96.5188 219.577 97.4827 220.313 98.4636 221.025C98.6347 221.944 100.551 223.74 103.26 225.206C104.8 226.039 106.277 226.609 107.429 226.883C107.771 227.082 108.108 227.282 108.45 227.482C108.581 226.689 108.741 225.896 108.906 225.109C108.741 225.041 108.575 224.978 108.41 224.909C107.515 224.162 106.22 223.307 104.726 222.503H104.731Z" fill="#82C3DE"/>
<path d="M104.349 229.751C101.994 228.485 99.8267 227.738 98.8971 227.932C97.5682 227.253 96.2565 226.534 94.9561 225.793C94.9561 225.867 94.9561 225.941 94.9504 226.021C96.1025 226.916 97.2716 227.789 98.4636 228.633C98.7145 229.551 100.46 231.154 102.889 232.466C104.309 233.23 105.678 233.749 106.756 233.988C107.104 234.194 107.446 234.393 107.794 234.599C107.805 233.755 107.834 232.911 107.897 232.061C107.845 232.038 107.794 232.021 107.743 231.998C106.921 231.291 105.729 230.492 104.349 229.751Z" fill="#82C3DE"/>
<path d="M151.977 256.688C153.317 256.916 154.566 256.967 155.547 256.882C155.815 256.927 156.077 256.973 156.345 257.019C155.65 256.061 154.971 255.08 154.338 254.047C153.768 253.893 153.146 253.762 152.496 253.648C150.779 253.357 149.216 253.3 148.167 253.46C145.578 253.026 142.994 252.53 140.428 251.966C138.928 251.07 135.723 249.878 131.976 248.698C126.888 247.107 122.6 246.109 121.967 246.724C120.894 246.354 119.828 245.972 118.767 245.578C119.799 246.04 120.843 246.485 121.887 246.918C121.915 247.785 125.839 250.004 131.057 251.635C134.884 252.838 138.323 253.38 140.086 253.312C140.679 253.483 141.278 253.637 141.876 253.796C141.905 253.774 141.928 253.757 141.951 253.734C142.373 253.392 143.08 252.821 144.055 253.015C145.036 253.22 145.926 254.658 146.023 254.823C146.034 254.84 146.045 254.852 146.057 254.874C146.633 255.017 147.209 255.165 147.791 255.296C148.709 255.85 150.215 256.386 151.983 256.682L151.977 256.688Z" fill="#82C3DE"/>
<path d="M100.488 236.207C98.7945 235.414 97.1178 234.581 95.4639 233.703C95.5038 233.857 95.5494 234.011 95.5893 234.171C97.0265 235.192 98.4923 236.178 99.9808 237.136C100.386 238.009 101.971 239.321 104.076 240.427C105.342 241.094 106.562 241.562 107.543 241.796C107.914 242.018 108.279 242.235 108.65 242.458C108.501 241.859 108.365 241.254 108.25 240.627C108.176 240.193 108.108 239.754 108.051 239.315C107.366 238.773 106.5 238.22 105.524 237.707C103.431 236.606 101.447 236.041 100.483 236.207H100.488Z" fill="#82C3DE"/>
<path d="M125.531 255.142L121.847 254.354L125.138 255.957C125.263 256.704 126.347 257.583 127.835 258.084C128.041 258.153 128.246 258.21 128.446 258.255C128.651 257.759 128.873 257.263 129.124 256.778L129.523 255.997H130.402C130.402 255.997 130.459 255.997 130.487 255.997C130.037 255.672 129.472 255.375 128.822 255.159C127.459 254.702 126.17 254.725 125.537 255.142H125.531Z" fill="#82C3DE"/>
<path d="M122.115 261.21L119.212 260.628L119.195 260.713L121.795 261.968C121.921 262.715 122.999 263.594 124.482 264.084C125.126 264.295 125.754 264.403 126.301 264.415C126.478 263.919 126.655 263.417 126.82 262.915L127.077 262.122C127.088 262.077 127.105 262.037 127.117 261.991C126.666 261.666 126.096 261.369 125.446 261.158C124.043 260.696 122.714 260.742 122.115 261.204V261.21Z" fill="#82C3DE"/>
<path d="M167.809 281.308C170.227 281.456 172.206 280.891 172.24 280.042C172.269 279.192 170.375 278.382 168.003 278.234C166.571 278.142 165.282 278.319 164.467 278.656C163.56 278.468 162.653 278.268 161.752 278.068C162.169 278.644 162.573 279.238 162.938 279.859C163.03 280.013 163.127 280.167 163.224 280.321C163.52 280.321 163.817 280.327 164.113 280.321C164.838 280.817 166.206 281.205 167.803 281.308H167.809Z" fill="#82C3DE"/>
<path d="M120.273 268.025L117.495 267.335L117.45 267.546L119.856 268.823C119.953 269.571 120.991 270.483 122.446 271.025C122.913 271.196 123.364 271.31 123.792 271.373C124.083 270.534 124.373 269.707 124.664 268.886C124.681 268.835 124.704 268.784 124.721 268.732C124.368 268.51 123.968 268.305 123.524 268.139C122.195 267.643 120.917 267.626 120.273 268.019V268.025Z" fill="#82C3DE"/>
<path d="M118.123 274.75L116.052 274.236C116.041 274.305 116.024 274.373 116.012 274.436L117.769 275.417C117.803 276.175 118.841 277.139 120.33 277.715C120.786 277.892 121.237 278.006 121.659 278.075C121.915 277.156 122.189 276.25 122.474 275.348C122.166 275.16 121.818 274.983 121.448 274.841C120.067 274.305 118.739 274.299 118.128 274.744L118.123 274.75Z" fill="#82C3DE"/>
<path d="M116.674 281.713L114.655 281.154C114.644 281.223 114.626 281.297 114.615 281.365L116.297 282.369C116.297 283.128 117.313 284.12 118.778 284.736C119.32 284.964 119.845 285.101 120.33 285.164C120.489 284.183 120.672 283.247 120.849 282.346C120.581 282.181 120.29 282.027 119.97 281.89C118.619 281.325 117.301 281.28 116.674 281.708V281.713Z" fill="#82C3DE"/>
<path d="M174.761 304.321C176.404 304.315 177.744 303.733 177.955 302.992C178.308 302.941 178.668 302.889 179.021 302.838C179.021 302.792 179.021 302.747 179.021 302.701C178.662 302.661 178.308 302.616 177.949 302.57C177.732 301.811 176.375 301.23 174.744 301.235C173.803 301.235 172.953 301.441 172.366 301.754C172.121 301.714 171.881 301.669 171.636 301.623C171.607 302.348 171.55 303.043 171.476 303.722C171.681 303.705 171.887 303.688 172.086 303.671C172.668 304.064 173.643 304.327 174.75 304.321H174.761Z" fill="#82C3DE"/>
<path d="M115.767 288.813L113.606 288.231C113.606 288.294 113.6 288.351 113.594 288.414L115.402 289.475C115.419 290.233 116.429 291.214 117.889 291.813C118.47 292.053 119.041 292.195 119.554 292.247C119.662 291.26 119.759 290.296 119.828 289.344C119.588 289.207 119.337 289.076 119.058 288.961C117.701 288.403 116.377 288.368 115.761 288.807L115.767 288.813Z" fill="#82C3DE"/>
<path d="M116.942 295.697C115.961 295.264 114.934 295.361 114.427 295.868L112.693 295.372C112.693 295.435 112.687 295.492 112.682 295.555L114.13 296.439C114.005 297.174 114.644 298.058 115.699 298.52C116.457 298.851 117.227 298.88 117.769 298.651L118.932 299.359C118.967 298.64 119.012 297.921 119.064 297.203L118.362 297.003C118.122 296.49 117.615 295.999 116.931 295.697H116.942Z" fill="#82C3DE"/>
<path d="M172.622 319.354C174.596 319.383 176.238 318.932 176.723 318.294C177.191 318.242 177.658 318.174 178.126 318.117C178.126 318.008 178.137 317.894 178.143 317.786C177.698 317.746 177.259 317.706 176.814 317.661C176.5 316.908 174.732 316.309 172.611 316.275C171.43 316.258 170.358 316.417 169.588 316.691C169.457 316.668 169.326 316.651 169.195 316.628C169.086 317.227 168.972 317.832 168.875 318.43C168.847 318.607 168.824 318.784 168.795 318.955C169.103 318.938 169.417 318.915 169.725 318.898C170.484 319.166 171.504 319.337 172.628 319.354H172.622Z" fill="#82C3DE"/>
<path d="M171.767 326.973C173.957 327.025 175.833 326.494 176.352 325.81C176.78 325.753 177.202 325.69 177.63 325.628C177.641 325.531 177.647 325.434 177.658 325.331C177.259 325.302 176.86 325.285 176.466 325.251C176.193 324.487 174.248 323.945 171.824 323.888C170.506 323.865 169.309 324.014 168.448 324.282C168.379 324.27 168.311 324.259 168.242 324.247C168.162 325 168.083 325.747 167.997 326.483C167.997 326.489 167.997 326.5 167.997 326.506C168.185 326.494 168.373 326.489 168.567 326.477C169.4 326.757 170.524 326.939 171.773 326.968L171.767 326.973Z" fill="#82C3DE"/>
<path d="M170.21 334.531C171.801 334.576 173.164 334.234 173.774 333.715C174.784 333.635 175.788 333.55 176.791 333.458C176.797 333.373 176.803 333.287 176.808 333.202C175.89 333.093 174.972 332.979 174.06 332.86C173.769 332.118 172.2 331.508 170.295 331.457C169.235 331.428 168.265 331.576 167.558 331.839C167.529 331.839 167.495 331.827 167.467 331.822C167.421 332.375 167.37 332.922 167.324 333.481C167.307 333.681 167.29 333.886 167.273 334.086C167.398 334.086 167.524 334.074 167.649 334.069C168.322 334.331 169.223 334.502 170.216 334.531H170.21Z" fill="#82C3DE"/>
<path d="M167.067 341.585C167.837 341.905 168.909 342.11 170.09 342.139C172.063 342.184 173.723 341.717 174.219 341.066C174.835 341.004 175.445 340.935 176.061 340.867C176.073 340.798 176.078 340.724 176.09 340.656C175.502 340.593 174.921 340.53 174.333 340.456C174.054 339.703 172.291 339.11 170.164 339.065C169.086 339.036 168.1 339.162 167.352 339.367C167.164 339.333 166.97 339.298 166.782 339.264C166.697 340.063 166.617 340.833 166.548 341.58C166.702 341.574 166.851 341.568 167.005 341.563C167.027 341.574 167.05 341.585 167.073 341.597L167.067 341.585Z" fill="#82C3DE"/>
<path d="M161.068 101.891L157.737 102.393L160.965 103.186C161.182 103.739 161.724 104.144 162.374 104.167C162.573 104.173 162.762 104.144 162.938 104.081C162.938 104.07 162.938 104.058 162.933 104.041C162.75 103.032 162.539 102.051 162.311 101.093C161.781 101.133 161.319 101.441 161.068 101.886V101.891Z" fill="#82C3DE"/>
<path d="M163.315 109.026L160.001 109.557L163.235 110.412C163.435 110.931 163.879 111.302 164.416 111.33C164.473 111.33 164.524 111.33 164.581 111.319C164.564 111.136 164.547 110.965 164.518 110.794C164.387 109.961 164.199 109.157 163.999 108.376C163.714 108.507 163.474 108.73 163.315 109.026Z" fill="#82C3DE"/>
<path d="M164.923 116.269L161.302 116.868C161.302 116.868 161.302 116.879 161.302 116.885L164.832 117.643C165.06 118.18 165.596 118.562 166.235 118.567C166.509 118.567 166.754 118.499 166.976 118.379C166.543 117.547 166.132 116.691 165.801 115.824C165.773 115.75 165.739 115.676 165.704 115.607C165.379 115.739 165.106 115.967 164.929 116.269H164.923Z" fill="#82C3DE"/>
<path d="M164.792 123.706C163.434 123.808 162.077 123.9 160.72 123.968C162.06 124.196 163.412 124.402 164.758 124.596C165.197 125.234 166.611 125.713 168.305 125.73C169.292 125.742 170.181 125.594 170.849 125.343C171.168 125.377 171.487 125.411 171.812 125.445C170.957 124.653 170.159 123.774 169.48 122.742C169.121 122.691 168.744 122.651 168.345 122.645C166.691 122.628 165.277 123.073 164.798 123.7L164.792 123.706Z" fill="#82C3DE"/>
<path d="M172.206 129.928C168.299 129.968 165.06 130.413 164.495 131.137C163.423 131.166 162.351 131.188 161.273 131.194C162.334 131.331 163.4 131.451 164.472 131.559C164.963 132.329 168.237 133.048 172.24 133.002C174.425 132.985 176.386 132.745 177.801 132.403C178.354 132.415 178.913 132.42 179.466 132.426C179.261 132.261 179.056 132.101 178.85 131.924C178.189 131.36 177.596 130.738 177.019 130.133C175.691 129.979 174.02 129.905 172.212 129.922L172.206 129.928Z" fill="#82C3DE"/>
<path d="M149.148 135.592C148.287 135.461 147.489 135.831 147.163 136.447L145.527 136.567L147.027 137.172C147.106 137.879 147.779 138.495 148.686 138.637C149.205 138.717 149.696 138.62 150.078 138.403L150.637 138.626L150.973 136.168L150.38 136.213C150.083 135.9 149.65 135.666 149.148 135.592Z" fill="#82C3DE"/>
<path d="M186.156 143.827C185.169 143.924 184.303 144.22 183.732 144.603C181.924 144.825 180.111 145.007 178.297 145.173C178.594 145.715 178.919 146.234 179.267 146.747C180.818 146.724 182.369 146.684 183.915 146.616C184.548 146.878 185.46 146.992 186.464 146.895C187.251 146.815 187.958 146.621 188.506 146.353C188.808 146.331 189.105 146.314 189.407 146.291C188.757 145.435 188.061 144.614 187.314 143.81C186.949 143.781 186.561 143.787 186.162 143.827H186.156Z" fill="#82C3DE"/>
<path d="M160.435 145.732C159.773 145.715 159.117 145.704 158.456 145.67C159.106 145.749 159.762 145.812 160.412 145.886C160.537 146.713 164.193 147.649 168.761 147.706C170.968 147.734 172.959 147.552 174.453 147.266C174.596 146.536 174.772 145.812 175.023 145.093C173.489 144.82 171.271 144.654 168.801 144.626C164.393 144.575 160.754 144.94 160.435 145.732Z" fill="#82C3DE"/>
<path d="M191.089 150.506C189.584 150.642 188.323 151.133 187.787 151.72L183.687 152.45L183.778 152.576C183.829 152.644 183.88 152.707 183.926 152.775L187.73 152.832C188.261 153.408 189.703 153.728 191.363 153.574C192.355 153.483 193.239 153.243 193.884 152.924L194.722 152.935C194.574 152.758 194.426 152.582 194.272 152.399C193.929 151.988 193.576 151.583 193.222 151.179C193.034 150.962 192.84 150.739 192.652 150.517C192.167 150.466 191.642 150.46 191.084 150.506H191.089Z" fill="#82C3DE"/>
<path d="M166.953 151.514C163.144 151.446 159.961 151.805 159.379 152.512C158.302 152.512 157.224 152.506 156.146 152.484C157.207 152.649 158.273 152.803 159.345 152.946C159.807 153.727 162.99 154.525 166.896 154.594C169.029 154.634 170.951 154.457 172.343 154.166C172.651 154.183 172.953 154.195 173.261 154.212C173.29 153.955 173.312 153.693 173.347 153.442C173.421 152.911 173.518 152.392 173.62 151.879C173.187 151.913 172.753 151.953 172.32 151.987C170.94 151.725 169.041 151.56 166.953 151.514Z" fill="#82C3DE"/>
<path d="M137.502 147.79C136.629 147.568 135.763 147.881 135.398 148.503L134.171 148.486L135.232 149.068C135.204 149.604 135.523 150.134 136.059 150.471C136.886 149.786 137.713 149.096 138.529 148.383C138.266 148.11 137.918 147.887 137.502 147.784V147.79Z" fill="#82C3DE"/>
<path d="M193.228 158.684C192.259 158.9 191.289 159.1 190.314 159.299C190.371 159.351 190.428 159.396 190.485 159.448C191.426 159.453 192.367 159.459 193.308 159.453C193.838 160.052 195.492 160.326 197.409 160.069C198.498 159.921 199.456 159.636 200.152 159.277C200.289 159.271 200.425 159.265 200.568 159.26C199.832 158.564 199.091 157.834 198.384 157.092C198.332 157.041 198.287 156.984 198.235 156.933C197.842 156.933 197.431 156.961 197.004 157.018C195.127 157.269 193.61 157.971 193.234 158.689L193.228 158.684Z" fill="#82C3DE"/>
<path d="M129.632 152.462C128.046 151.965 126.552 152.068 126.039 152.655C125.571 152.564 125.103 152.467 124.636 152.376L124.504 152.479C124.955 152.712 125.406 152.952 125.856 153.18C125.902 153.944 127.077 154.885 128.708 155.399C129.147 155.536 129.575 155.627 129.979 155.678L130.384 155.302C130.978 154.748 131.593 154.212 132.209 153.682C132.073 153.659 131.936 153.642 131.804 153.625C131.297 153.169 130.527 152.747 129.632 152.462Z" fill="#82C3DE"/>
<path d="M199.433 165.762C198.943 165.927 198.452 166.098 197.956 166.264C198.469 166.229 198.988 166.184 199.502 166.144C199.907 166.84 201.771 167.056 203.887 166.537C205.039 166.258 206.026 165.813 206.688 165.334C206.773 165.323 206.864 165.311 206.95 165.294C206.157 164.65 205.444 163.959 204.76 163.264C204.258 163.315 203.711 163.406 203.152 163.543C201.121 164.045 199.542 164.963 199.433 165.756V165.762Z" fill="#82C3DE"/>
<path d="M160.286 166.212C156.226 165.801 152.832 165.904 152.416 166.645C151.754 166.582 151.098 166.52 150.437 166.445C151.081 166.588 151.731 166.725 152.382 166.862C152.524 167.694 155.803 168.858 159.978 169.28C162.653 169.554 165.031 169.451 166.474 169.132C168.231 169.325 169.993 169.485 171.755 169.616C171.864 169.046 171.978 168.47 172.115 167.894C172.166 167.677 172.217 167.466 172.263 167.255C170.358 167.329 168.453 167.369 166.543 167.364C165.162 166.89 162.875 166.48 160.28 166.212H160.286Z" fill="#82C3DE"/>
<path d="M123.683 158.148C122.286 157.566 120.917 157.537 120.387 158.096C119.896 157.954 119.4 157.811 118.91 157.657C119.326 157.959 119.748 158.25 120.176 158.541C120.073 159.305 121.02 160.383 122.503 160.994C122.845 161.136 123.181 161.233 123.506 161.302C124.248 160.663 125.001 160.03 125.759 159.402C125.679 159.385 125.6 159.368 125.52 159.351C125.098 158.901 124.453 158.461 123.683 158.142V158.148Z" fill="#82C3DE"/>
<path d="M206.037 171.555C205.325 171.835 204.606 172.103 203.882 172.371C203.95 172.451 204.018 172.536 204.093 172.616C204.806 172.519 205.518 172.416 206.226 172.308C206.819 172.838 208.467 172.907 210.269 172.348C211.319 172.023 212.208 171.549 212.801 171.059C213.03 171.008 213.258 170.956 213.486 170.905C212.978 170.42 212.471 169.975 211.969 169.576C211.735 169.394 211.512 169.2 211.29 169.006C210.697 169.063 210.041 169.188 209.362 169.399C207.64 169.935 206.3 170.797 206.037 171.549V171.555Z" fill="#82C3DE"/>
<path d="M157.56 172.821C153.676 172.336 150.391 172.399 149.878 173.101C148.829 172.981 147.779 172.855 146.724 172.719C147.756 172.958 148.789 173.186 149.821 173.414C150.078 174.241 153.209 175.382 157.172 175.878C159.853 176.215 162.231 176.169 163.64 175.872C165.779 176.169 167.934 176.42 170.09 176.631C170.284 175.85 170.484 175.074 170.683 174.298C168.379 174.31 166.069 174.27 163.76 174.179C162.442 173.648 160.161 173.152 157.56 172.821Z" fill="#82C3DE"/>
<path d="M117.313 162.698C115.835 161.997 114.381 161.877 113.839 162.448C113.474 162.322 113.109 162.197 112.75 162.065C113.047 162.299 113.349 162.527 113.651 162.761C113.446 163.525 114.421 164.735 115.995 165.482C116.674 165.807 117.341 165.978 117.923 166.035C117.946 166.018 117.974 165.995 117.997 165.978C118.687 165.425 119.371 164.849 120.056 164.273C119.771 164.204 119.491 164.13 119.212 164.056C118.784 163.565 118.117 163.081 117.318 162.704L117.313 162.698Z" fill="#82C3DE"/>
<path d="M211.986 176.968C211.073 177.361 210.161 177.743 209.237 178.12C209.311 178.205 209.385 178.296 209.454 178.382C210.389 178.222 211.324 178.057 212.254 177.874C212.875 178.319 214.301 178.308 215.835 177.783C216.731 177.481 217.489 177.059 218.008 176.614C218.014 176.614 218.02 176.614 218.025 176.614C217.917 176.466 217.809 176.317 217.712 176.169C217.478 175.833 217.267 175.502 217.062 175.182C216.908 174.949 216.759 174.72 216.611 174.498C216.064 174.538 215.465 174.658 214.843 174.869C213.366 175.371 212.242 176.226 211.98 176.968H211.986Z" fill="#82C3DE"/>
<path d="M168.128 181.662C165.533 181.662 162.933 181.594 160.332 181.451C158.952 180.875 156.471 180.316 153.619 179.9C149.467 179.301 145.971 179.221 145.447 179.917C144.414 179.757 143.376 179.598 142.344 179.421C143.353 179.689 144.369 179.946 145.39 180.191C145.595 181.029 148.925 182.335 153.18 182.951C156.123 183.379 158.729 183.362 160.206 183.065C162.796 183.436 165.396 183.738 168.008 183.972C168.071 184.052 168.145 184.12 168.225 184.183C168.254 184.069 168.282 183.955 168.311 183.841C168.516 183.008 168.721 182.164 168.927 181.32C168.915 181.32 168.904 181.32 168.892 181.32C168.607 181.309 168.339 181.446 168.128 181.668V181.662Z" fill="#82C3DE"/>
<path d="M112.208 167.267C110.76 166.423 109.288 166.172 108.701 166.691C108.342 166.531 107.982 166.377 107.623 166.206C107.908 166.468 108.199 166.725 108.484 166.982C108.222 167.729 109.123 169.029 110.657 169.919C111.188 170.227 111.718 170.438 112.208 170.569C112.22 170.563 112.226 170.558 112.237 170.552C112.784 170.175 113.303 169.822 113.788 169.44C113.897 169.36 114.016 169.223 114.142 169.086C114.193 169.029 114.256 168.961 114.319 168.898C114.222 168.864 114.125 168.83 114.028 168.795C113.629 168.265 112.99 167.717 112.208 167.255V167.267Z" fill="#82C3DE"/>
<path d="M216.685 182.084C214.718 182.899 213.212 183.994 213.104 184.793C212.91 184.884 212.71 184.969 212.511 185.061C212.414 185.203 212.317 185.352 212.22 185.494C212.568 185.42 212.916 185.357 213.258 185.277C213.822 185.853 215.767 185.785 217.854 184.924C218.499 184.661 219.069 184.348 219.565 184.023C219.565 183.909 219.571 183.795 219.594 183.669C219.662 183.287 219.811 182.99 219.908 182.802C219.93 182.757 219.959 182.711 219.976 182.654C220.01 182.175 219.873 181.77 219.617 181.251C218.795 181.342 217.758 181.633 216.68 182.072L216.685 182.084Z" fill="#82C3DE"/>
<path d="M104.851 171.721C104.498 171.539 104.138 171.362 103.785 171.18C104.07 171.448 104.361 171.704 104.646 171.972C104.361 172.725 105.439 174.219 107.235 175.343C108.108 175.891 108.98 176.233 109.716 176.387C109.494 175.748 109.254 175.115 108.986 174.499L108.61 173.632L109.231 172.971C109.111 172.891 108.997 172.805 108.872 172.725C107.167 171.659 105.473 171.214 104.851 171.721Z" fill="#82C3DE"/>
<path d="M212.374 190.936C209.579 191.871 207.321 192.989 206.881 193.81C206.619 193.901 206.357 193.981 206.094 194.067C205.866 194.295 205.638 194.517 205.404 194.74C205.952 194.648 206.494 194.557 207.041 194.46C207.817 194.974 210.429 194.831 213.349 193.856C214.296 193.542 215.151 193.177 215.904 192.795C216.725 191.671 217.472 190.457 218.088 189.122C217.592 189.373 217.09 189.624 216.588 189.869C215.448 190.029 213.965 190.411 212.374 190.936Z" fill="#82C3DE"/>
<path d="M208.627 199.507C207.469 199.57 205.941 199.844 204.298 200.277C201.378 201.053 199.023 202.085 198.612 202.895C197.819 203.123 197.021 203.34 196.217 203.545C196.137 203.625 196.057 203.711 195.977 203.791C196.895 203.699 197.813 203.597 198.726 203.477C199.427 204.053 202.074 204.053 205.085 203.254C205.815 203.061 206.494 202.838 207.121 202.604C207.674 202.005 208.222 201.401 208.781 200.791C209.323 200.198 209.87 199.599 210.423 198.994L210.366 198.817C209.785 199.051 209.203 199.279 208.621 199.507H208.627Z" fill="#82C3DE"/>
<path d="M163.286 203.174C159.077 202.844 155.575 202.998 155.45 203.847C155.319 204.68 158.701 205.906 163.047 206.248C165.277 206.425 167.284 206.328 168.721 206.077C169.36 206.146 169.999 206.209 170.643 206.266C170.626 206.243 170.609 206.22 170.592 206.203C170.427 205.98 170.273 205.758 170.119 205.541C169.697 204.937 169.309 204.395 168.87 203.944C168.841 203.944 168.813 203.944 168.784 203.944C167.392 203.614 165.448 203.351 163.292 203.18L163.286 203.174Z" fill="#82C3DE"/>
<path d="M108.416 188.706C107.452 188.301 106.494 187.884 105.541 187.439C106.38 188.067 107.241 188.671 108.108 189.264C108.159 190.086 109.539 191.432 111.547 192.401C112.687 192.954 113.799 193.274 114.666 193.365C114.758 193.416 114.843 193.468 114.934 193.519C114.433 192.361 113.971 191.175 113.537 189.966C113.326 189.852 113.115 189.738 112.893 189.629C110.959 188.7 109.14 188.301 108.421 188.706H108.416Z" fill="#82C3DE"/>
<path d="M198.521 209.498C197.665 209.384 196.547 209.413 195.344 209.584C193.291 209.886 191.591 210.536 191.089 211.232C190.274 211.398 189.452 211.552 188.631 211.7C188.523 211.837 188.409 211.974 188.295 212.116C189.247 212.116 190.2 212.111 191.158 212.088C191.779 212.669 193.639 212.943 195.789 212.63C196.296 212.555 196.77 212.447 197.22 212.327C197.608 211.922 198.007 211.523 198.441 211.164C198.988 210.702 199.524 210.228 200.055 209.755L199.935 209.122C199.467 209.253 198.988 209.373 198.515 209.498H198.521Z" fill="#82C3DE"/>
<path d="M165.237 210.314C157.674 209.727 151.492 209.35 151.344 210.2C151.195 211.027 157.269 212.784 164.991 213.388C168.949 213.708 172.531 213.662 175.075 213.434C176.153 213.508 177.225 213.571 178.303 213.628C177.111 212.983 176.13 212.145 175.269 211.295C175.217 211.295 175.16 211.295 175.109 211.295C172.611 210.942 169.109 210.628 165.237 210.314Z" fill="#82C3DE"/>
<path d="M132.945 215.054C135.42 215.773 137.696 216.138 139.259 216.184C140.622 216.611 141.985 217.022 143.359 217.416L143.901 214.992C142.504 214.764 141.107 214.513 139.715 214.25C138.329 213.56 136.213 212.79 133.801 212.089C129.689 210.903 126.17 210.344 125.554 210.971C124.795 210.766 124.043 210.555 123.29 210.338C124.014 210.64 124.738 210.937 125.463 211.233C125.56 212.094 128.742 213.84 132.945 215.054Z" fill="#82C3DE"/>
<path d="M111.473 203.699C109.169 202.576 107.036 202.045 106.34 202.507C105.747 202.256 105.159 202 104.572 201.737C104.56 201.76 104.549 201.783 104.538 201.8C105.062 202.171 105.587 202.536 106.117 202.895C106.066 203.722 107.72 205.29 110.121 206.465C111.444 207.11 112.722 207.509 113.703 207.646C114.068 207.857 114.427 208.062 114.792 208.273C115.168 207.503 115.539 206.773 115.904 206.095C115.454 205.946 115.009 205.792 114.558 205.638C113.822 205.005 112.733 204.315 111.478 203.699H111.473Z" fill="#82C3DE"/>
<path d="M164.604 240.896C163.474 240.331 161.302 239.823 158.781 239.527C155.057 239.093 151.943 239.293 151.811 240.137C151.675 240.975 154.629 242.145 158.427 242.589C161.005 242.892 163.281 242.772 164.495 242.401C166.56 242.692 168.63 242.932 170.706 243.143C170.78 243.017 170.854 242.892 170.934 242.761C171.305 242.127 171.727 241.426 172.28 240.884C169.725 240.947 167.17 240.958 164.609 240.896H164.604Z" fill="#82C3DE"/>
<path d="M130.088 236.464C133.094 237.41 135.842 237.907 137.616 237.986C139.92 238.705 142.236 239.372 144.574 239.988L145.099 237.564C142.749 237.165 140.405 236.709 138.072 236.207C136.51 235.408 133.943 234.45 131.006 233.526C126.369 232.078 122.417 231.205 121.693 231.764C120.598 231.405 119.503 231.028 118.419 230.641C119.469 231.12 120.524 231.593 121.584 232.049C121.756 232.945 125.349 234.981 130.088 236.464Z" fill="#82C3DE"/>
<path d="M146.154 245.72C143.627 245.235 141.118 244.688 138.614 244.078C137.143 243.177 134.189 241.99 130.744 240.833C125.919 239.219 121.818 238.249 121.162 238.848C120.09 238.466 119.018 238.078 117.946 237.679C118.984 238.152 120.027 238.614 121.071 239.065C121.122 239.937 124.83 242.104 129.769 243.758C133.293 244.945 136.487 245.532 138.226 245.526C140.73 246.319 143.257 247.055 145.8 247.728C146.41 248.167 147.34 248.56 148.429 248.789C149.291 248.965 150.095 249.011 150.762 248.943C151.138 249.028 151.515 249.114 151.891 249.199C151.555 248.327 151.264 247.414 151.019 246.45C150.471 246.171 149.804 245.926 149.057 245.772C147.945 245.543 146.901 245.543 146.154 245.726V245.72Z" fill="#82C3DE"/>
<path d="M154.868 264.831C157.053 265.19 158.923 264.877 159.226 264.13C159.756 264.153 160.286 264.175 160.817 264.192C160.298 264.078 159.779 263.947 159.26 263.827C159.146 263.023 157.469 262.134 155.336 261.786C153.927 261.552 152.638 261.609 151.823 261.883C151.059 261.66 150.3 261.426 149.536 261.198C149.929 262.008 150.334 262.801 150.756 263.559C151.03 263.582 151.298 263.616 151.572 263.639C152.268 264.147 153.46 264.603 154.863 264.831H154.868Z" fill="#82C3DE"/>
<path d="M109.385 247.152C108.228 246.576 107.075 246.382 106.345 246.559C104.338 245.726 102.342 244.871 100.363 243.958C100.642 244.306 100.933 244.642 101.23 244.962C102.695 245.931 104.173 246.889 105.672 247.819C105.844 248.23 106.22 248.68 106.745 249.102C108.222 249.832 109.682 250.146 110.982 249.199L111.364 248.92C111.222 248.697 111.091 248.464 110.954 248.235C110.543 247.842 110.007 247.465 109.38 247.152H109.385Z" fill="#82C3DE"/>
<path d="M161.033 272.707C163.628 273.01 165.79 272.565 165.864 271.715C165.938 270.865 163.936 269.941 161.387 269.645C159.933 269.474 158.604 269.548 157.708 269.799C156.75 269.548 155.798 269.285 154.845 269.012L154.726 269.708C154.8 269.81 154.874 269.919 154.948 270.027C155.336 270.569 155.758 271.065 156.208 271.55C156.562 271.567 156.916 271.59 157.269 271.601C158.062 272.097 159.431 272.519 161.028 272.702L161.033 272.707Z" fill="#82C3DE"/>
<path d="M175.679 287.57C175.691 286.721 173.854 285.968 171.573 285.894C170.358 285.854 169.263 286.014 168.493 286.299C168.003 286.202 167.512 286.093 167.022 285.991C167.421 286.567 167.814 287.137 168.197 287.702C168.373 287.964 168.562 288.226 168.755 288.483C168.761 288.489 168.767 288.5 168.773 288.506C169.491 288.762 170.438 288.934 171.482 288.968C173.791 289.042 175.679 288.415 175.691 287.565L175.679 287.57Z" fill="#82C3DE"/>
<path d="M177.989 295.298C177.978 294.448 176.364 293.747 174.385 293.73C173.307 293.724 172.337 293.924 171.67 294.243L171.128 294.152C171.242 294.813 171.333 295.481 171.408 296.142C172.058 296.541 173.136 296.804 174.362 296.815C176.375 296.826 178.001 296.153 177.989 295.298Z" fill="#82C3DE"/>
<path d="M173.312 311.974C175.229 312.008 176.814 311.535 177.225 310.867C177.681 310.81 178.137 310.742 178.594 310.679C178.594 310.599 178.605 310.525 178.611 310.451C178.172 310.405 177.727 310.36 177.288 310.308C177.014 309.55 175.326 308.928 173.301 308.894C172.252 308.877 171.299 309.019 170.581 309.265C170.438 310.023 170.295 310.782 170.153 311.535C170.284 311.523 170.421 311.517 170.552 311.506C171.271 311.78 172.246 311.957 173.318 311.974H173.312Z" fill="#82C3DE"/>
<path d="M115.488 302.581C114.358 302.085 113.201 302.194 112.727 302.792L112.208 302.638C112.203 302.735 112.197 302.827 112.191 302.924L112.556 303.14C112.351 303.899 113.064 304.874 114.244 305.399C115.123 305.787 116.012 305.809 116.588 305.53L118.602 306.722C118.63 305.998 118.664 305.273 118.71 304.549L117.107 304.076C116.873 303.505 116.292 302.929 115.493 302.576L115.488 302.581Z" fill="#82C3DE"/>
<path d="M114.866 309.762C113.714 309.283 112.539 309.42 112.094 310.047L111.957 310.007C111.957 310.292 111.957 310.577 111.952 310.863C112.083 311.513 112.733 312.209 113.685 312.602C114.575 312.973 115.465 312.979 116.035 312.682L118.55 314.091C118.533 313.344 118.522 312.591 118.516 311.832L116.543 311.285C116.315 310.697 115.71 310.11 114.872 309.762H114.866Z" fill="#82C3DE"/>
<path d="M114.387 317.284C113.532 316.885 112.665 316.765 112.032 316.907C112.06 317.774 112.106 318.641 112.157 319.514C112.431 319.725 112.745 319.913 113.093 320.078C114.176 320.58 115.26 320.654 115.876 320.324L119.081 322.251C118.995 321.47 118.921 320.677 118.853 319.867L116.298 319.075C116.064 318.43 115.362 317.734 114.387 317.284Z" fill="#82C3DE"/>
<path d="M114.838 325.057C114.033 324.698 113.229 324.584 112.613 324.68C112.682 325.234 112.756 325.781 112.836 326.323L112.995 327.389C113.007 327.452 113.013 327.521 113.024 327.583C113.201 327.686 113.383 327.789 113.577 327.874C114.689 328.37 115.796 328.422 116.406 328.074L120.318 330.327C120.307 330.241 120.29 330.156 120.278 330.076C120.153 329.311 120.022 328.547 119.879 327.789L116.805 326.865C116.571 326.215 115.841 325.513 114.838 325.063V325.057Z" fill="#82C3DE"/>
<path d="M169.64 349.684C171.641 349.77 173.301 349.302 173.649 348.601C174.248 348.538 174.852 348.469 175.451 348.401C174.864 348.327 174.276 348.236 173.695 348.15C173.472 347.369 171.79 346.696 169.742 346.604C168.619 346.553 167.592 346.69 166.851 346.952C166.657 346.912 166.463 346.872 166.269 346.833C166.269 346.901 166.269 346.969 166.269 347.032C166.275 347.734 166.298 348.447 166.332 349.159C166.509 349.148 166.685 349.142 166.862 349.131C167.575 349.427 168.55 349.633 169.64 349.678V349.684Z" fill="#82C3DE"/>
<path d="M115.847 333.122C115.123 332.802 114.415 332.637 113.805 332.608C113.976 333.681 114.159 334.753 114.347 335.819C114.433 335.859 114.518 335.905 114.609 335.939C115.836 336.481 117.022 336.606 117.712 336.338C119.2 337.154 120.7 337.947 122.212 338.722C122.166 338.46 122.115 338.203 122.058 337.952C121.915 337.348 121.755 336.755 121.584 336.139C120.467 335.819 119.343 335.494 118.225 335.152C117.951 334.456 117.056 333.658 115.847 333.127V333.122Z" fill="#82C3DE"/>
<path d="M168.858 357.275C170.295 357.332 171.499 356.847 171.778 356.151L173.398 355.957L171.801 355.615C171.596 354.868 170.421 354.252 168.978 354.195C168.185 354.166 167.461 354.309 166.925 354.56L166.577 354.486C166.588 354.879 166.605 355.279 166.611 355.672C166.611 356.026 166.623 356.396 166.628 356.767L166.811 356.744C167.33 357.041 168.048 357.235 168.864 357.269L168.858 357.275Z" fill="#82C3DE"/>
<path d="M117.586 341.517C116.794 341.175 116.018 340.981 115.356 340.93C115.539 341.762 115.733 342.584 115.938 343.393C116.012 343.679 116.092 343.964 116.166 344.255C116.235 344.283 116.297 344.317 116.366 344.346C117.712 344.922 119.006 345.087 119.742 344.842C121.236 345.629 122.742 346.388 124.265 347.135C124.048 346.296 123.837 345.452 123.603 344.614C123.603 344.614 123.603 344.608 123.603 344.603C122.485 344.289 121.368 343.964 120.25 343.622C119.913 342.909 118.91 342.082 117.586 341.511V341.517Z" fill="#82C3DE"/>
<path d="M169.121 364.877C169.702 364.9 170.204 364.381 170.335 363.68L171.476 363.457L170.353 363.138C170.284 362.402 169.816 361.82 169.229 361.798C168.796 361.78 168.408 362.077 168.185 362.516L166.936 362.163C166.999 362.75 167.073 363.337 167.164 363.919L167.221 364.29L168.128 364.113C168.322 364.558 168.687 364.86 169.115 364.877H169.121Z" fill="#82C3DE"/>
<path d="M120.581 350.397C119.497 349.964 118.448 349.895 117.775 350.135C117.883 350.551 117.997 350.967 118.105 351.378C118.22 351.823 118.345 352.29 118.493 352.775C118.778 352.952 119.092 353.117 119.44 353.254C120.575 353.705 121.664 353.773 122.326 353.505C123.814 354.252 125.314 354.982 126.82 355.689C126.66 355.21 126.489 354.731 126.318 354.258C126.17 353.847 126.033 353.431 125.896 353.009C124.875 352.747 123.849 352.479 122.828 352.199C122.525 351.543 121.693 350.842 120.581 350.397Z" fill="#82C3DE"/>
<path d="M123.786 359.408C123.113 359.145 122.446 359.048 121.893 359.094L122.748 360.172H120.313C120.381 360.206 120.45 360.24 120.518 360.274C120.621 360.987 121.459 361.803 122.668 362.276C123.592 362.636 124.499 362.704 125.126 362.51C126.432 363.12 127.744 363.719 129.067 364.295C129.027 364.078 128.987 363.862 128.942 363.645C128.811 363.006 128.668 362.322 128.52 361.655C127.59 361.404 126.66 361.147 125.736 360.885C125.4 360.32 124.693 359.755 123.786 359.402V359.408Z" fill="#82C3DE"/>
<path d="M291.979 405.787H0V321.983H1.33691C0.456581 323.833 0 325.72 0 327.638C0.000578326 350.633 65.362 369.275 145.989 369.275C226.617 369.275 291.978 350.634 291.979 327.638C291.979 325.72 291.522 323.833 290.642 321.983H291.979V405.787Z" fill="#1B0E3A"/>
</g>
<defs>
<clipPath id="clip0_410_6544">
<rect width="292" height="406" fill="white"/>
</clipPath>
</defs>
</svg>
