<svg width="511" height="709" viewBox="0 0 511 709" fill="none" xmlns="http://www.w3.org/2000/svg">
<path fill-rule="evenodd" clip-rule="evenodd" d="M290.42 106.961C292.78 111.071 295.54 115.231 297.31 119.901C299.1 124.631 301.66 129.001 303.6 133.571C303.5 129.821 302.67 125.821 302.1 122.741C301.96 121.991 302.05 121.151 301.9 120.431C301.74 119.611 300.92 118.441 300.4 117.381C298.56 113.561 296.67 110.071 293.51 108.121C292.57 107.541 291.5 106.611 290.32 106.651C290.32 106.791 290.36 106.881 290.42 106.971V106.961Z" fill="#82C3DE"/>
<path d="M421.66 543.71C419.97 540.4 417.02 537.67 413.35 536.03C412.95 535.85 412.58 535.68 412.23 535.51C411.06 534.96 409.85 534.38 408.1 533.99C407.22 533.79 406.3 533.54 405.35 533.29C402.62 532.56 399.52 531.73 396.38 531.72C394.17 531.72 392.2 532.03 389.87 532.51C389.13 532.66 388.4 532.88 387.7 533.09C386.67 533.39 385.7 533.68 384.85 533.74C382.68 533.86 380.55 534.04 378.37 534.82C377.57 535.1 376.76 535.33 375.91 535.58C375.04 535.83 374.15 536.09 373.26 536.4C370.11 537.52 367.08 539 363.72 541.03C362.75 541.62 361.67 542.09 360.52 542.59C360.14 542.76 359.77 542.92 359.4 543.09C352.75 546.1 347.67 549.87 343.45 554.93C340.75 556.06 339.56 558.48 338.59 560.45C338.27 561.1 337.97 561.71 337.65 562.22C337.38 562.64 336.98 563.1 336.56 563.59C336.22 563.98 335.88 564.38 335.57 564.78C335.24 565.21 334.93 565.64 334.62 566.07C334.25 566.59 333.88 567.1 333.5 567.58C331.37 570.27 329.6 573.17 327.89 575.97C327.1 577.27 326.3 578.57 325.47 579.86L325.19 580.29C323.96 582.2 322.69 584.17 321.58 586.24C321.21 586.94 320.94 587.64 320.7 588.27C320.5 588.8 320.31 589.3 320.09 589.71C319.82 590.21 319.54 590.68 319.26 591.15C318.92 591.72 318.59 592.29 318.28 592.88L317.48 594.39C316.61 596.03 315.72 597.73 314.81 599.35C314.4 600.09 314.01 600.85 313.62 601.62C312.93 602.96 312.29 604.24 311.51 605.33C311.51 605.28 311.51 605.23 311.52 605.17C311.59 604.27 311.66 603.36 311.7 602.46C311.73 601.78 311.74 601.1 311.74 600.42C311.75 599.28 311.76 598.19 311.88 597.19C311.95 596.65 312.02 596.11 312.1 595.58C312.27 594.38 312.45 593.13 312.5 591.82C312.56 590.16 312.74 588.51 312.93 586.77C313.13 585 313.33 583.17 313.39 581.31C313.46 579.3 313.77 577.2 314.07 575.17C314.26 573.9 314.45 572.59 314.58 571.29C315.08 566.58 315.32 561.89 315.58 556.93C315.7 554.55 315.83 552.15 315.98 549.73C316.04 548.83 316.11 547.93 316.18 547.01C316.38 544.31 316.59 541.51 316.59 538.73C316.59 537.1 316.74 535.4 316.89 533.76C317.06 531.82 317.25 529.81 317.19 527.82C317.17 527.16 317.07 526.65 316.98 526.25C316.93 526 316.89 525.82 316.88 525.64L316.78 523.95C316.45 518.43 316.17 513.66 315.12 509.23C314.06 504.76 312.58 500.89 311.02 496.79L310.63 495.77C310.26 494.8 309.94 493.85 309.62 492.91C309.22 491.72 308.8 490.48 308.31 489.28C307.47 487.23 306.32 485.47 305.2 483.76L303.5 481.16C301.74 478.47 299.93 475.7 298.15 472.74C296.29 469.64 294.02 467.07 291.82 464.57C291.28 463.96 290.74 463.35 290.22 462.74C289 461.3 287.51 459.63 285.8 458.08C284.43 456.84 283.22 455.19 282.15 453.74C281.24 452.49 280.31 451.25 279.37 450C275.54 444.91 271.59 439.67 269.15 433.2C270.99 433.82 272.9 434.19 274.95 434.34C276.66 434.47 278.4 434.87 280.08 435.26C282.16 435.74 284.31 436.23 286.5 436.25C286.97 436.25 287.44 436.27 287.9 436.28C290.02 436.33 292.01 436.38 293.65 435.78C297.27 434.47 299.19 431.46 300.88 428.8C301.08 428.48 301.28 428.17 301.49 427.85C301.75 427.44 302.02 427 302.28 426.54C302.79 425.67 303.37 424.69 303.87 424.23C304.36 423.78 305.03 423.37 305.75 422.93C306.17 422.67 306.59 422.41 307 422.14C310.63 419.63 313.27 416.79 316.34 413.32L317.21 412.34C320.61 408.52 324.11 404.58 325.99 399.11C327.59 397.16 329.35 395.37 331.22 393.48C332.1 392.58 332.99 391.69 333.86 390.77C336.4 388.1 339.03 385.01 341.9 381.34C342.44 380.65 342.97 379.94 343.51 379.23C345.34 376.8 347.24 374.29 349.43 372.46C356.24 366.73 362.24 360.16 368.04 353.81C370.3 351.34 372.63 348.78 375 346.29C380.3 340.71 385.51 334.24 387.7 324.83C387.74 324.65 387.81 324.48 387.87 324.31C388.01 323.91 388.17 323.47 388.24 322.94C388.32 322.4 388.28 321.88 388.26 321.51C388.26 321.45 388.26 321.38 388.25 321.32C388.28 321.26 388.31 321.21 388.33 321.15C388.55 320.71 388.88 320.05 388.96 319.09C389.17 316.34 388.06 314.33 387.16 312.71C387.12 312.65 387.09 312.58 387.05 312.52C387.69 309.42 385.87 306.89 384.62 305.14C384.45 304.9 384.28 304.67 384.12 304.44C383.74 303.89 383.39 303.34 383.05 302.82C382.36 301.75 381.7 300.75 380.91 299.76C378.41 296.65 375.68 293.9 373.02 291.79C371.79 290.82 370.57 289.72 369.4 288.66C367.96 287.36 366.48 286.01 364.88 284.82C363.23 283.58 361.77 282.09 360.23 280.52C359.28 279.55 358.3 278.55 357.28 277.62C354.88 275.42 352.15 272.94 349.71 270.38C347.33 267.87 345.14 265.28 342.72 262.39C342.1 261.65 341.47 260.92 340.83 260.18C339.11 258.19 337.49 256.31 336.07 254.26C334.06 251.36 331.86 248.67 329.34 246.07C328.59 243.63 327.56 241.31 326.57 239.07L326.21 238.26C324.84 235.16 323.27 232.89 321.13 230.91C319.93 229.8 318.67 228.81 317.46 227.85C316.66 227.21 315.85 226.58 315.07 225.91C314.07 225.06 313.14 224.07 312.14 223.02C311.35 222.19 310.53 221.32 309.66 220.51C308.51 219.43 307.29 218.42 306.12 217.45C303.38 215.18 300.8 213.04 299.13 210.15C298.82 209.6 298.49 209.05 298.16 208.49C296.49 205.62 294.76 202.65 293.6 199.66C293.4 199.14 293.16 198.61 292.91 198.09C292.56 197.34 292.23 196.63 292.12 196.06C291.98 195.41 291.92 194.69 291.86 193.92C291.81 193.26 291.75 192.57 291.64 191.87C291.26 189.42 290.66 187.21 290.08 185.07C289.6 183.3 289.15 181.64 288.84 179.92C287.98 175.14 286.73 170.52 285.57 166.66C287.69 166.18 289.71 165.66 291.6 164.91C292.14 164.7 292.57 164.42 292.91 164.2C293.09 164.08 293.27 163.97 293.34 163.94C293.5 163.87 293.75 163.81 294.02 163.73C294.41 163.63 294.85 163.51 295.31 163.32C302.19 160.51 305.97 154.2 309.26 147.97C310.51 145.59 311 142.98 311.47 140.45C311.57 139.9 311.68 139.34 311.79 138.79C311.87 138.38 311.96 137.99 312.05 137.6C312.33 136.39 312.62 135.15 312.63 133.69C312.64 132.16 312.44 130.67 312.24 129.23L312.11 128.28C311.6 124.44 311.11 121.29 309.9 118.71C309.71 118.31 309.53 117.89 309.35 117.46C308.98 116.59 308.6 115.7 308.1 114.82C307.7 114.13 307.22 113.56 306.8 113.05C306.41 112.58 306.07 112.17 305.85 111.76C305.74 111.56 305.66 111.34 305.58 111.13C305.41 110.7 305.2 110.17 304.87 109.63C304.64 109.25 304.38 108.9 304.11 108.55C303.95 108.34 303.79 108.13 303.64 107.89C303.34 107.42 302.95 106.95 302.55 106.44C302.2 106 301.6 105.26 301.48 105C301.33 104.61 301.24 103.93 301.14 103.26C301.07 102.74 300.99 102.21 300.89 101.7C300.42 99.3803 300.3 96.8903 300.18 94.2503C300.12 92.8703 300.05 91.4503 299.93 90.0003L299.71 87.3003C299.4 83.4403 299.11 79.7503 298.61 76.3003C299.46 76.2103 300.41 76.0003 301.25 75.3603L303.03 74.0003L301.87 72.0803C300.71 70.1703 298.84 69.2503 297.18 68.5603C296.8 67.3003 296.43 66.0103 296.07 64.7503C296.48 64.5003 296.91 64.2203 297.32 63.9203L297.59 63.7303C298.49 63.0903 300.35 61.7703 300.23 59.3603L300.12 57.1403L297.9 56.9903C296.82 56.9203 295.64 57.0503 294.4 57.1903C294.17 57.2203 293.94 57.2403 293.71 57.2703C293.61 57.0803 293.52 56.8903 293.42 56.7003C293.12 56.1103 292.84 55.5703 292.63 55.0203C292.67 54.9803 292.7 54.9503 292.73 54.9203L293.81 53.8603C294.54 53.1503 295.26 52.4603 295.9 51.7903C295.95 51.7503 296.01 51.7003 296.07 51.6603C297.55 50.5203 298.08 49.2203 297.63 47.7903L297.05 45.9403L295.11 46.0503C292.96 46.1703 290.4 47.0203 288.06 47.8303C286.09 45.7703 283.68 44.3403 281.34 42.9503C282.02 41.1403 282.69 39.1003 282.57 36.6403L282.22 29.7603L278.08 35.2703C277.76 35.6903 277.17 36.1103 276.54 36.5503C276.12 36.8503 275.7 37.1403 275.31 37.4603L274.82 37.8603C274.38 38.2203 273.94 38.5803 273.54 38.8703C273.28 38.7203 273.01 38.5603 272.74 38.4003C271.03 37.3803 268.97 36.1503 265.97 35.9403C265.48 33.4503 264.85 31.0003 263.65 28.9803L259.21 21.5303L259.01 30.2003C258.98 31.6403 258.72 33.1003 258.44 34.6403C258.32 35.2803 258.21 35.9403 258.1 36.6203C256.91 36.8203 255.88 37.2203 254.92 37.5803C254.88 37.6003 254.83 37.6103 254.79 37.6303C254.68 37.3503 254.57 37.0603 254.46 36.7703C253.58 34.4603 252.58 31.8303 250.26 30.2103L246.64 27.6803L246.33 32.0803C246.14 34.8003 246.25 37.5203 246.45 40.0003C244.68 40.4703 243.03 41.0303 241.41 41.5703C240.98 41.7103 240.56 41.8603 240.13 42.0003C239.82 41.1703 239.49 40.3203 239.06 39.5203C238.22 37.9203 237.28 36.2603 235.84 35.0703L232.43 32.2503L231.78 36.6303C231.43 38.9603 231.27 41.8003 231.11 44.5503C231.09 44.9503 231.06 45.3503 231.04 45.7503C227.99 47.4703 225.65 49.7603 223.81 51.9503C223.26 51.4103 222.69 50.8703 222.1 50.3703C222.03 50.3103 221.96 50.2403 221.89 50.1603C220.07 48.2803 218.6 48.8703 217.88 49.4003L216.77 50.2103L216.87 51.5803C217.04 54.0203 217.67 56.3303 218.29 58.5503C218.57 59.5503 218.83 60.5003 219.03 61.3903C218.92 61.7003 218.7 62.1803 218.58 62.4703C218.38 62.9203 218.2 63.3203 218.08 63.6903C218.02 63.8803 217.96 64.0703 217.91 64.2603C216.6 63.8703 214.93 63.7803 213.71 65.3103C211.79 67.7303 214.04 70.4603 215.12 71.7703C215.14 71.7903 215.15 71.8103 215.17 71.8303C213.02 77.1403 211.01 82.9603 210.29 89.5203C209.55 96.2503 209.19 103.67 211.72 109.08C211.08 109.51 210.46 109.95 209.84 110.39C208.35 111.44 206.94 112.44 205.44 113.29C203.7 114.28 202.27 115.19 200.91 116.17C200.27 116.63 199.58 117.05 198.84 117.49C198.12 117.92 197.37 118.37 196.65 118.88C189.25 124.07 180.05 130.53 174.02 139.75C173.39 140.71 172.72 141.68 172.04 142.64L171.16 143.9C170.7 144.56 170.28 145.24 169.86 145.92C169.37 146.71 168.91 147.45 168.4 148.16C166.41 150.91 164.35 153.75 162.56 156.92C160.89 159.88 159.5 162.9 158.03 166.11L157.77 166.68C157.33 167.63 156.87 168.57 156.4 169.51C155.28 171.79 154.11 174.14 153.27 176.73C152.25 179.86 151.51 183.11 150.73 186.56L150.31 188.41C149.24 193.11 148.52 197.03 148.07 200.76C147.52 205.3 147.84 210.06 148.26 214.95C149.19 225.77 150.77 233.06 153.56 239.32C154.94 242.41 156.5 245.92 158.53 249.11C159.27 250.28 160.18 251.38 161.06 252.43C161.85 253.38 162.59 254.27 163.13 255.11C163.25 255.3 163.36 255.54 163.49 255.82C163.75 256.38 164.08 257.08 164.68 257.75C165.21 258.34 165.81 258.77 166.33 259.15C166.56 259.32 166.8 259.49 167.01 259.67C168.63 261.03 170.04 262.15 172.3 263.03C172.65 263.16 173.05 263.39 173.47 263.62C173.86 263.83 174.25 264.04 174.64 264.23C176.72 265.21 178.75 265.6 181.19 266.01C182.39 266.21 183.61 266.45 184.85 266.7C187.93 267.31 191.12 267.95 194.5 268.04C195.97 268.08 197.36 267.92 198.71 267.77C199.62 267.67 200.49 267.57 201.39 267.52C202.7 267.45 204.02 267.42 205.34 267.4C205.75 267.4 206.16 267.38 206.56 267.37C206.23 267.65 205.9 267.92 205.57 268.2C201.12 271.91 196.52 275.75 191.64 279.18L190.78 279.78C186.44 282.82 181.52 286.27 177.5 290.01C177.19 290.3 176.78 290.57 176.35 290.86C175.84 291.21 175.26 291.6 174.72 292.09C172.24 294.33 170.78 296.86 170.24 299.81C169.32 304.88 170.61 309.85 171.86 313.14C172.44 314.67 173.12 316.18 173.77 317.64C174.57 319.43 175.33 321.13 175.93 322.84C176.44 324.31 176.96 325.77 177.49 327.24C178.17 329.15 178.86 331.07 179.52 333.03C180.06 334.63 180.42 336.08 180.39 337.96C180.25 345.47 177.18 349.96 173.93 354.72L173.74 355C172.48 356.85 171.15 358.83 170.08 360.97C169.49 362.14 168.98 363.34 168.48 364.5C168.04 365.52 167.63 366.48 167.17 367.41C166.55 368.67 165.87 369.87 165.14 371.13C163.54 373.9 161.89 376.77 160.99 380.43C160.33 383.12 160.11 386.16 159.92 389.29C159.58 395.11 159.32 402.46 160.37 407.7C160.76 409.68 161.35 411.51 161.92 413.28C162.12 413.91 162.33 414.55 162.52 415.19C163.25 417.6 164.41 419.8 165.53 421.93L165.6 422.06C169.16 428.81 173.59 433.72 179.55 437.52C182.47 439.38 188.23 443.04 193.9 440.41C194.93 441.32 196.03 442.17 197.18 443.06L197.74 443.49C199.92 445.16 202.47 446.87 205.11 447.05C204.05 449.08 202.98 451.34 202.41 453.92L202.19 454.97C201.86 456.54 201.55 458.01 201.08 459.46C200.97 459.81 200.83 460.15 200.69 460.49C200.47 461.04 200.22 461.66 200.04 462.33C199.85 463.04 199.74 463.72 199.63 464.37C199.56 464.77 199.5 465.18 199.41 465.6L199.22 466.49C198.42 470.25 197.59 474.13 196.81 478.04C196.51 479.55 196.19 481.09 195.87 482.64C194.68 488.41 193.45 494.38 192.59 500.27C192.48 501.03 192.46 501.75 192.45 502.39C192.44 502.83 192.43 503.27 192.38 503.71C192.23 505.11 191.98 506.51 191.73 508C191.54 509.11 191.35 510.22 191.19 511.34C190.92 513.28 190.82 515.23 190.73 517.12C190.69 518.01 190.64 518.9 190.58 519.8C190.5 520.88 190.42 521.96 190.35 523.05C190.02 527.54 189.68 532.18 189.58 536.86C189.37 546.77 189.35 559.64 191.11 571.27L191.39 573.14C192.84 582.71 194.33 592.6 196.65 601.7C197.27 604.12 197.94 606.52 198.59 608.85C199.25 611.22 199.88 613.45 200.45 615.69C200.96 617.71 201.62 620.02 202.57 622.34C197.88 620.85 192.78 619.9 187.78 618.98C186.57 618.76 185.37 618.53 184.18 618.3C179.84 617.46 175.13 616.67 170.19 616.58C168.22 616.53 166.29 616.67 164.42 616.8L163.06 616.89C161.79 616.98 160.5 617 159.13 617.02C158 617.04 156.87 617.05 155.73 617.11C153.91 617.19 152.14 617.46 150.43 617.72C149.86 617.81 149.28 617.89 148.72 617.97C147.88 618.08 147.05 618.16 146.22 618.24C144.76 618.38 143.25 618.53 141.76 618.84C138.32 619.56 135.05 620.62 131.89 621.64C131.13 621.89 130.38 622.13 129.63 622.37C126.8 623.27 124.18 624.41 121.64 625.51C120.58 625.97 119.52 626.43 118.46 626.86C115.28 628.16 111.87 629.27 108.58 630.35L107.22 630.79C103.3 632.09 99.5901 634.26 96.4201 636.19C94.6001 637.3 92.6501 638.32 90.7701 639.31C89.3601 640.05 87.9001 640.82 86.5001 641.62C84.9001 642.54 83.3401 643.67 81.8301 644.76C81.0201 645.35 80.2301 645.92 79.4401 646.45C79.1201 646.67 78.7001 646.88 78.2501 647.11C77.8701 647.3 77.4801 647.5 77.0901 647.72C70.4401 651.61 64.1401 655.79 60.2201 664.06C59.3001 665.99 58.9601 668.24 58.6301 670.42L58.5101 671.17C58.0701 673.96 57.9001 676.25 58.4201 679.06C59.4201 684.49 60.9501 688.16 63.5301 691.32C64.7901 692.88 66.2901 694.3 67.9901 695.56C68.6401 696.04 69.2901 696.61 69.9701 697.21C70.6901 697.84 71.4301 698.5 72.2701 699.12C75.5301 701.55 79.9401 703.34 84.3801 704.01C87.4601 704.47 90.7001 704.54 94.1301 704.61C95.7601 704.65 97.4501 704.68 99.1101 704.76C100.1 704.81 101.09 704.86 102.08 704.92C104.67 705.07 107.33 705.22 109.95 705.22C111.35 705.22 112.74 705.18 114.11 705.07C125 704.21 133.79 703.83 142.54 703.83C145.15 703.83 147.74 703.7 150.25 703.56C152.58 703.43 155 703.3 157.35 703.3C162.74 703.3 167.59 703.09 172.18 702.66C172.57 702.62 172.97 702.56 173.36 702.51C174.06 702.41 174.72 702.31 175.24 702.35C175.62 702.38 175.99 702.43 176.36 702.49C177.16 702.61 178.07 702.74 179.11 702.67C180.07 702.6 181.03 702.49 181.99 702.38C183.42 702.22 184.77 702.07 186.07 702.04C190.14 701.93 194.8 701.51 200.33 700.76C205.14 700.1 209.51 699.15 213.34 697.93C223.28 694.74 229.91 690.96 234.22 686.04C237.48 682.32 244.78 672.4 242.17 660.51C241.58 657.8 240.85 655.66 239.93 653.96C239.44 653.07 239 652.16 238.56 651.27C237.23 648.57 235.86 645.78 233.58 643.57L233.19 643.2C232.35 642.39 230.78 640.9 230.39 640.07C230.01 639.27 229.74 637.86 229.49 636.5C229.4 635.99 229.3 635.48 229.19 634.97C228.79 633.05 228.34 630.88 227.87 628.99C227 625.5 225.8 621.63 224.4 617.8C223.13 614.31 222.18 610.61 221.19 606.69C220.73 604.88 220.27 603.07 219.77 601.28C219.56 600.53 219.33 599.79 219.11 599.06C218.76 597.93 218.43 596.87 218.21 595.84C218.02 594.94 217.87 594.04 217.73 593.14C217.55 592.04 217.36 590.91 217.11 589.79C216.82 588.54 216.49 587.33 216.16 586.16C215.97 585.46 215.78 584.77 215.59 584.05C214.94 581.57 214.51 579 214.06 576.27C213.83 574.88 213.6 573.49 213.33 572.11C211.22 561.01 210.5 546.51 211.37 532.34C211.49 530.4 211.57 528.43 211.64 526.53C211.74 523.91 211.84 521.2 212.07 518.62C212.24 516.72 212.45 514.83 212.65 512.96C212.92 510.52 213.2 508 213.37 505.54C213.68 501.19 214.5 497.02 215.22 493.34C215.38 492.52 215.51 491.7 215.63 490.89C215.81 489.69 215.99 488.56 216.27 487.53C217.8 482.03 219.69 476.68 221.51 471.5C222.01 470.08 222.54 468.67 223.06 467.26C223.83 465.2 224.62 463.06 225.32 460.92L225.78 459.51C226.61 456.95 227.39 454.51 228.42 452.21C231.92 452.14 235.49 451.81 238.83 451.25C241.64 450.79 244.22 449.84 246.6 448.92C246.84 448.83 247.08 448.76 247.31 448.69C247.83 448.53 248.42 448.36 248.97 448.06C249.27 447.9 249.55 447.71 249.79 447.53C249.85 447.62 249.91 447.7 249.96 447.78C250.5 448.67 251.03 449.29 251.46 449.79C251.59 449.95 251.72 450.09 251.84 450.25C252.89 451.58 253.61 453.31 254.18 454.71C257.48 462.66 261.93 469.31 265.85 474.76C267.22 476.67 268.76 478.27 270.25 479.82C271.31 480.92 272.31 481.96 273.24 483.1L273.75 483.72C275.82 486.24 277.96 488.84 279.61 491.63C281.61 494.98 283.91 498.3 286.13 501.5C287.1 502.9 288.06 504.27 288.97 505.63C289.32 506.14 289.68 506.65 290.05 507.16C290.75 508.12 291.42 509.03 291.9 510C293.56 513.28 293.99 520.05 294.13 522.28C294.46 527.47 293.78 532.17 293.07 536.08C292.57 538.82 292.05 541.52 291.53 544.21C290.79 548.03 290.03 551.97 289.37 555.88C288.98 558.2 288.78 560.42 288.58 562.77L288.55 563.11C288.34 565.48 288.07 567.91 287.8 570.27C287.54 572.6 287.27 575.01 287.05 577.41C286.89 579.15 286.74 580.9 286.59 582.66C286.34 585.65 286.08 588.74 285.75 591.78C285.17 597.1 284.69 601.91 284.74 606.9C284.77 609.47 284.91 612.05 285.04 614.55C285.17 617.01 285.31 619.56 285.34 622.05C285.38 626.33 285.52 631.32 286.22 636.23L286.11 636.38C285.64 637.04 285.15 637.71 284.7 638.48C284.36 638.75 283.97 639.01 283.57 639.28C282.11 640.28 280.33 641.49 279.36 643.71C275.15 646.99 272.14 651.2 269.22 655.28C267.81 657.26 266.2 659.72 265.01 662.91L264.6 664.01C263.2 667.72 261.45 672.33 262.85 677.57C263.41 679.66 264.43 681.69 265.33 683.47C265.67 684.14 266 684.8 266.29 685.43L266.42 685.71C267.23 687.48 267.87 688.88 268.96 690.31C271.28 693.39 274.6 695.88 277.85 696.97C278.79 697.29 279.76 697.5 280.69 697.7C281.54 697.88 282.41 698.07 283.28 698.34C286.23 699.28 289.9 700.22 294.19 701.14C294.86 701.29 295.48 701.47 296.14 701.66C297.3 702 298.5 702.35 299.92 702.46C302.38 702.66 304.56 702.18 306.56 701.64C312.14 700.14 316.67 697.39 320.85 694.69C321.84 694.05 322.68 693.32 323.5 692.62C323.93 692.24 324.37 691.87 324.83 691.51L325.68 690.85C327.95 689.08 330.3 687.26 332.45 685.1C334.13 683.43 335.95 682.06 337.87 680.61C338.48 680.15 339.1 679.69 339.71 679.21C340.58 678.54 341.45 677.87 342.32 677.21C343.98 675.94 345.69 674.63 347.34 673.29C348.72 672.18 350 670.98 351.24 669.83C352.36 668.78 353.43 667.79 354.55 666.86C355.12 666.39 355.69 665.97 356.26 665.54C356.95 665.02 357.66 664.49 358.37 663.89C358.86 663.48 359.35 663.06 359.83 662.63C360.56 662 361.29 661.36 362.03 660.76C363.78 659.31 365.29 657.64 366.74 656.01C367.46 655.21 368.17 654.41 368.93 653.63L369.63 652.91C370.52 652 371.44 651.06 372.3 650.07C372.73 649.58 373.19 649.11 373.65 648.63C374.32 647.94 375.02 647.22 375.67 646.42C377.44 644.24 379.35 642.15 381.19 640.13C382.52 638.67 383.89 637.17 385.21 635.63C385.57 635.22 385.94 634.81 386.32 634.4C387.08 633.58 387.86 632.73 388.54 631.79C388.91 631.27 389.34 630.76 389.8 630.22C390.4 629.51 391.03 628.76 391.59 627.93C392.68 626.29 393.87 624.74 395.01 623.23C395.79 622.2 396.57 621.17 397.33 620.12C397.87 619.38 398.34 618.62 398.8 617.89C399.22 617.22 399.61 616.6 400.04 616C401.06 614.57 402.12 613.2 403.24 611.75C404.13 610.59 405.03 609.44 405.91 608.25C407.19 606.51 408.1 604.52 408.98 602.59C409.56 601.31 410.12 600.1 410.77 598.96C411.13 598.32 411.53 597.7 411.96 597.04C412.43 596.31 412.92 595.55 413.37 594.74C413.92 593.75 414.4 592.75 414.86 591.78C415.14 591.19 415.42 590.6 415.71 590.04C418.58 584.39 421.06 577.35 423.1 569.1C425.44 559.6 424.88 550.11 421.6 543.7L421.66 543.71ZM298.26 321.92C299.86 315.38 301.51 308.61 303.22 302.09C303.62 300.58 303.91 299.02 304.2 297.52C304.42 296.33 304.66 295.1 304.94 293.94C305.77 290.45 306.23 287.76 306.4 285.22C306.57 282.73 306.61 280.28 306.64 277.91C306.69 274.48 306.73 271.24 307.18 268.15C307.36 266.87 307.63 265.55 307.89 264.27C308.13 263.07 308.38 261.84 308.57 260.6V260.55C308.66 260.03 308.74 259.52 308.82 259.02C310.19 260.98 311.68 262.81 313.14 264.61C314.16 265.87 315.21 267.16 316.18 268.46L316.52 268.91C317.64 270.41 318.8 271.95 320.19 273.22C321.43 274.35 322.67 275.61 323.86 276.83C325.31 278.31 326.81 279.84 328.41 281.24C329.85 282.51 331.34 283.7 332.78 284.85C334.32 286.08 335.77 287.24 337.19 288.5C337.94 289.17 338.64 289.98 339.39 290.83C339.9 291.42 340.41 292 340.94 292.55C341.84 293.5 342.8 294.36 343.73 295.19C344.23 295.64 344.74 296.09 345.24 296.56C347.86 299.02 350.13 301.69 352.52 304.52L352.73 304.77C353.62 305.82 354.59 306.71 355.52 307.56C356.01 308 356.49 308.45 356.96 308.92C357.78 309.74 358.59 310.7 359.37 311.62C359.8 312.12 360.22 312.62 360.63 313.09C362.76 315.53 364.57 318.01 366.25 320.82C365.31 322.24 364.43 323.68 363.57 325.08C361.57 328.35 359.68 331.43 357.21 334.03C355.22 336.13 353.01 338.11 350.88 340.02C348.69 341.98 346.43 344.01 344.33 346.23C343.34 347.27 342.33 348.25 341.27 349.3C340.21 350.34 339.11 351.41 338.04 352.54C337.27 353.35 336.44 354.11 335.56 354.9C334.22 356.12 332.84 357.37 331.61 358.91C330.19 360.68 328.63 362.45 327.12 364.15L325.88 365.55C325.08 366.46 324.35 367.42 323.65 368.35C322.93 369.3 322.24 370.21 321.5 371.04C320.06 370.49 318.63 370.17 317.33 369.88C315.94 369.57 314.62 369.27 313.61 368.75C311.14 367.5 309.27 365.55 307.3 363.48C306.81 362.96 306.31 362.44 305.8 361.93C304.25 360.34 302.65 358.7 301.42 357C301.15 356.63 300.89 356.26 300.64 355.9C299.5 354.28 298.32 352.61 296.54 351.23C296.05 350.85 295.56 350.61 295.16 350.42C294.89 350.29 294.67 350.18 294.51 350.06C294.17 349.8 293.78 349.34 293.37 348.86C292.93 348.33 292.42 347.73 291.81 347.19C294.08 339.01 296.19 330.33 298.24 321.93L298.26 321.92ZM256.01 254.57C255.46 256.09 254.91 257.59 254.4 259.1C252.35 265.18 250.75 269.77 249.23 273.99C247.41 279.04 245.28 283.38 242.92 286.9C241.09 289.63 239.48 292.48 237.92 295.24C237.1 296.69 236.29 298.14 235.45 299.54C234.24 301.56 232.91 303.57 231.63 305.52C230.3 307.53 228.93 309.6 227.67 311.73C226.77 313.24 225.97 314.8 225.19 316.31C224.84 317 224.48 317.68 224.12 318.37C222.58 321.27 220.86 324.04 219.05 326.96C216.99 330.28 214.86 333.72 213.02 337.34C212.39 338.59 211.85 339.86 211.33 341.1C210.86 342.22 210.42 343.28 209.91 344.31C209.63 344.88 209.35 345.44 209.09 345.99C208.61 344.94 208.13 343.9 207.65 342.87C205.48 338.18 203.23 333.34 201.54 328.31C200.75 325.97 200.2 323.56 199.62 321C199.19 319.09 198.74 317.12 198.18 315.17L197.73 313.58C196.82 310.39 195.89 307.12 194.65 303.97C195.65 303.12 196.76 302.36 197.92 301.57C198.91 300.89 199.94 300.19 200.91 299.42C201.4 299.04 201.78 298.62 202.12 298.26C202.33 298.04 202.52 297.82 202.7 297.68C203.66 296.86 204.7 296.08 205.79 295.26C206.64 294.62 207.5 293.98 208.33 293.31C210.93 291.22 213.48 289.02 215.94 286.89C218.25 284.89 220.63 282.83 223.02 280.9C225.3 279.06 227.44 277.07 229.52 275.14L230.35 274.37C232.97 271.93 235.85 269.57 238.62 267.29C241.95 264.56 245.39 261.73 248.56 258.65C249.25 257.98 249.84 257.28 250.41 256.6C250.88 256.04 251.32 255.51 251.79 255.04C252.8 254.02 254.11 253.15 255.49 252.24C256.05 251.87 256.61 251.5 257.14 251.12C257.21 251.07 257.27 251.03 257.34 250.98C256.92 252.19 256.48 253.39 256.05 254.58L256.01 254.57ZM267.15 216.09C265.54 217.58 263.75 218.89 261.86 220.27C260.25 221.45 258.59 222.67 257.02 224.02C256.94 224.09 256.85 224.16 256.77 224.24C257.7 221.85 258.59 219.23 259.45 216.32C259.74 215.35 260.04 214.39 260.34 213.43C261.13 210.93 261.95 208.35 262.5 205.57C263.23 201.88 263.27 197.7 263.3 193.66C263.33 189.8 263.37 185.81 264 182.28C264.76 178.08 265.48 174.09 266.64 170.39C266.69 170.44 266.74 170.49 266.79 170.54C267.06 170.82 267.35 171.12 267.68 171.43C268.88 176.64 270.32 181.67 271.71 186.55C272.89 190.69 274.11 194.97 275.2 199.38C275.31 199.82 275.46 200.31 275.61 200.82C275.8 201.45 276.12 202.5 276.12 202.81C276.05 203.24 275.33 204.37 274.95 204.97C274.64 205.45 274.36 205.9 274.13 206.31C271.85 210.46 269.88 213.55 267.13 216.09H267.15Z" fill="#1B0E3A"/>
<path fill-rule="evenodd" clip-rule="evenodd" d="M284.53 114.11C289.99 124.91 293.75 137.5 297.71 149.88C299.88 147.53 301.77 143.98 302.6 139.88C300.08 135.04 297.58 129.75 295.02 124.52C294.36 123.18 294.05 121.66 293.42 120.31C291.55 116.3 289.48 112.62 287.33 109.05C287.33 108.99 287.32 108.93 287.23 108.95C286.36 110.69 285.31 112.25 284.53 114.1V114.11Z" fill="#82C3DE"/>
<path fill-rule="evenodd" clip-rule="evenodd" d="M278.24 124.63C283.28 133.97 285.87 145.79 288.12 157.97C290.45 156.81 292.06 154.89 294.21 153.55C290.59 141.06 286.65 128.91 282.33 117.16C280.89 119.57 279.43 121.96 278.23 124.63H278.24Z" fill="#82C3DE"/>
<path fill-rule="evenodd" clip-rule="evenodd" d="M273.94 135.05C275.62 137.48 275.59 140.68 275.94 144.2C276.35 148.36 277.4 153.09 277.34 157.56C278.82 158.76 280.98 160.74 283.33 159.45C282.5 147.67 280.07 137.56 276.24 128.95C275.44 130.95 274.82 133.13 273.94 135.05Z" fill="#82C3DE"/>
<path fill-rule="evenodd" clip-rule="evenodd" d="M271.25 142.941C270.91 143.951 270.2 145.271 270.25 146.301C270.28 146.881 270.74 147.781 270.95 148.511C271.42 150.161 272 151.291 272.65 152.611C272.94 153.211 273.19 154.231 273.64 154.091C273.21 149.281 272.8 144.451 272.34 139.681C272.05 140.751 271.64 141.771 271.24 142.941H271.25Z" fill="#82C3DE"/>
<path fill-rule="evenodd" clip-rule="evenodd" d="M275.14 52.4802C274.85 53.0602 274.5 53.5602 273.94 53.8402C267.19 65.3002 258.9 77.2402 251.88 88.7602C251.37 89.5902 250.97 90.6602 250.48 91.1802C250.12 91.5702 249.39 91.8602 248.88 92.3302C247.54 93.6002 245.79 94.8202 243.69 95.0702C240.66 95.4202 240.2 94.1002 238.7 92.7602C235.22 89.6402 233.16 85.5902 229.72 82.3502C227.45 80.2102 224.96 78.3202 222.73 76.3502C222.49 76.1402 222.26 75.6002 221.83 75.7202C220.4 80.5602 218.23 86.2202 217.84 92.3302C217.7 94.4702 217.51 96.8102 217.54 98.9602C217.59 102.44 218.65 104.85 219.54 107.59C223.17 105.29 227.52 103.25 232.32 101.8C237.1 100.36 242.11 98.7802 247.79 98.7502C253.83 98.7102 259.6 99.4502 265.17 100.64C265.7 100.08 265.65 98.9002 266.47 98.6402C267.2 98.9602 267.93 99.1702 268.07 99.9002C269.4 100.56 270.39 101.51 272.16 101.69C277.12 102.2 280.47 99.2102 283.25 96.9502C284.1 96.2702 285.94 95.2702 286.15 94.5402C286.42 93.5602 286.05 91.4302 286.05 90.2302V85.7102C286.05 79.2102 285.27 75.0802 284.15 70.1402C282.61 63.3802 280.25 56.1202 276.76 51.8402C276.66 51.8402 276.64 51.7602 276.56 51.7402C276.1 51.9902 275.76 52.3702 275.17 52.4702L275.14 52.4802Z" fill="#82C3DE"/>
<path fill-rule="evenodd" clip-rule="evenodd" d="M271.45 81.2905C272.78 81.0405 273.86 81.8005 274.05 83.0805C274.2 84.1205 273.61 84.8705 273.45 86.0205C273.37 86.5805 273.57 87.2205 273.45 87.6005C273 89.0405 270.52 89.3405 268.56 88.6505C268.01 88.4605 267.75 87.9205 267.16 87.6005C266.24 87.0905 265.6 87.4105 265.36 86.4405C264.83 84.2805 267 83.9305 268.15 83.2805C269.51 82.5205 270.09 81.5405 271.45 81.2805V81.2905Z" fill="#1B0E3A"/>
<path fill-rule="evenodd" clip-rule="evenodd" d="M225.51 88.9699C226.4 88.7699 227.19 88.8199 227.81 89.1799C228.95 89.8499 231.05 93.8599 229.71 95.6999C228.85 96.8799 226.08 97.8699 224.61 96.8599C224.02 96.4499 222.6 94.5299 222.42 93.6999C222.02 91.9299 222.8 91.1999 223.81 90.2299C224.53 89.5399 224.6 89.1799 225.51 88.9599V88.9699Z" fill="#1B0E3A"/>
<path d="M159.03 183.48C160.56 181.29 161.62 179.11 162.05 177.46C165.56 172.25 169.16 167.1 172.86 162.02C174.84 160.9 177.95 157.89 181.07 154.07C184.96 149.3 187.62 144.81 187.44 143.13C191.23 138.52 195.11 133.98 199.13 129.55C194.87 133.74 190.73 138.04 186.68 142.44C185.01 142.46 180.86 145.78 176.89 150.65C173.67 154.6 171.47 158.43 170.91 160.63C166.91 165.5 163.01 170.45 159.2 175.47C158.79 176.4 158.41 177.34 158.1 178.31C157.19 181.09 156.5 184.09 155.79 187.25C156.85 186.27 157.98 184.99 159.04 183.47L159.03 183.48Z" fill="#82C3DE"/>
<path d="M155.94 205.75C157.38 204.11 159.01 201.88 160.55 199.32C162.56 195.99 164.02 192.81 164.67 190.54C165.3 189.44 165.94 188.35 166.62 187.27C169.59 182.39 172.63 177.56 175.75 172.78C178.64 170.03 183.45 164.09 188.68 157.08C195.6 147.77 200.98 139.8 200.99 137.74C204.58 133.27 208.25 128.86 212.05 124.56C208.09 128.69 204.24 132.93 200.47 137.24C198.53 137.5 191.44 144.33 184.35 153.86C179 161.03 175.09 167.73 173.6 171.43C170.28 176.08 167.04 180.78 163.87 185.53C163.11 186.64 162.38 187.77 161.66 188.91C159.98 190.55 157.91 193.27 155.93 196.54C154.77 198.46 153.8 200.32 153.05 201.98C152.81 204.27 152.81 206.68 152.93 209.17L153.72 209.62L155.94 205.76V205.75Z" fill="#82C3DE"/>
<path d="M98.1601 694.92C96.7601 692.35 94.3701 688.8 91.6801 684.89C87.2401 678.52 83.4501 673.23 81.7801 672.84C80.4601 670.54 79.2201 668.2 78.0601 665.8C78.9801 668.29 79.9901 670.76 81.0901 673.18C80.7901 673.89 81.0501 675.57 81.8701 677.87C82.8601 680.65 84.7001 684.28 87.2401 687.96C90.0901 692.09 93.1801 695.31 95.5301 697.17C96.1901 698.03 96.8801 698.88 97.5701 699.73C98.1901 699.75 98.8101 699.77 99.4301 699.8C100.43 699.85 101.44 699.91 102.44 699.96C102.7 699.98 102.96 699.99 103.22 700C101.49 698.35 99.8001 696.66 98.1701 694.91L98.1601 694.92Z" fill="#82C3DE"/>
<path d="M219.23 683.68C218.14 682.06 216.89 680.78 215.76 679.98C211.85 674.78 207.59 669.86 203.13 665.16C202.65 664.45 202.11 663.68 201.48 662.85C198.61 659.03 194.2 654.12 188.92 649.16C183.63 644.2 178.51 640.11 174.63 637.38C171.3 635.05 168.89 633.72 167.96 633.73C164.46 630.89 160.94 628.06 157.44 625.22C160.8 628.22 164.18 631.21 167.54 634.22C167.8 636.23 175.55 644.07 185.23 653.11C190.43 657.99 195.16 662.37 198.69 665.46C199.95 666.56 201.06 667.49 202 668.22C205.71 672.58 209.22 677.1 212.44 681.8C212.76 683.2 213.58 684.95 214.77 686.72C215.73 688.14 216.78 689.35 217.76 690.19C217.9 690.43 218.03 690.67 218.17 690.91C219.56 690.33 220.86 689.73 222.06 689.11C221.79 688.71 221.53 688.3 221.27 687.89C220.91 686.62 220.23 685.15 219.24 683.69L219.23 683.68Z" fill="#82C3DE"/>
<path d="M412.37 552.66C413.55 554.91 414.67 557.19 415.73 559.48C415.25 560.68 415.67 562.78 416.84 564.84C417.34 565.7 417.91 566.44 418.5 567.04C419 564.79 419.37 562.26 419.51 559.66C418.72 558.98 417.92 558.57 417.23 558.52C415.64 556.53 414.02 554.57 412.36 552.66H412.37Z" fill="#82C3DE"/>
<path d="M402.73 578.47C398.37 570.68 393.39 565.12 391.56 564.72C389.71 562.28 387.82 559.87 385.85 557.53C387.59 560.06 389.24 562.65 390.84 565.26C390.61 567.17 393.82 573.61 398.02 581.12C400.37 585.3 402.65 589.03 404.51 591.65C405.21 593.22 405.89 594.79 406.56 596.37C406.96 595.67 407.39 595 407.81 594.35C408.26 593.65 408.69 592.99 409.06 592.33C409.1 592.26 409.13 592.19 409.17 592.12C408.76 591.38 408.35 590.64 407.93 589.9C406.91 586.81 405.13 582.75 402.72 578.46L402.73 578.47Z" fill="#82C3DE"/>
<path d="M393.67 587.59C388.3 577.97 382.44 570.94 380.55 570.46C378.72 567.92 376.86 565.4 374.93 562.93C376.66 565.57 378.31 568.24 379.93 570.93C379.72 572.97 383.75 580.89 388.97 590.23C391.85 595.37 394.6 599.97 396.81 603.21C397.66 605.06 398.5 606.92 399.33 608.77C399.34 608.75 399.36 608.73 399.37 608.72C400.24 607.6 401.11 606.47 401.96 605.32C402.04 605.22 402.1 605.1 402.17 604.99C401.52 603.82 400.87 602.64 400.21 601.47C398.86 597.76 396.61 592.82 393.67 587.59Z" fill="#82C3DE"/>
<path d="M368.48 616.46C362.38 605.93 356.19 597.94 354.03 596.88C351.47 593.1 348.89 589.33 346.29 585.58C348.63 589.5 350.94 593.44 353.23 597.39C353.25 599.81 357.78 608.77 363.81 619.16C367.17 624.94 370.34 630.13 372.83 633.8C373.7 635.59 374.55 637.39 375.4 639.2C376.13 638.39 376.85 637.58 377.57 636.8C377.85 636.5 378.13 636.18 378.41 635.87C377.68 634.58 376.96 633.28 376.22 632C374.55 627.84 371.88 622.31 368.48 616.46Z" fill="#82C3DE"/>
<path d="M343.41 667.56C340.28 663.6 337.24 659.56 334.29 655.45C333.29 652.64 331 648.25 328.11 643.47C323.93 636.59 319.91 631.2 318.2 630.76C316.41 627.72 314.65 624.65 312.97 621.55C314.42 624.76 315.94 627.93 317.5 631.09C316.86 632.67 319.19 639.17 323.49 646.26C326.48 651.21 329.66 655.17 331.89 657.18C334.53 661.49 337.27 665.73 340.1 669.92C340 670.49 340.1 671.07 340.45 671.53C340.6 671.73 340.78 671.88 340.97 672.01C342.08 671.15 343.2 670.29 344.27 669.42C344.53 669.21 344.77 668.99 345.02 668.77C344.96 668.61 344.89 668.46 344.79 668.32C344.46 667.87 343.96 667.62 343.41 667.54V667.56Z" fill="#82C3DE"/>
<path d="M332.7 672.799C329.58 668.999 326.53 665.139 323.58 661.199C322.74 658.559 320.43 654.179 317.48 649.389C313.33 642.689 309.41 637.419 307.84 637.369C306.68 635.329 305.55 633.269 304.46 631.189C305.39 633.349 306.36 635.489 307.37 637.619C306.51 638.919 308.62 645.329 312.89 652.229C315.92 657.149 319.19 660.989 321.37 662.739C324.04 666.939 326.82 671.079 329.69 675.149C329.77 676.039 330.17 677.049 330.87 677.959C331.19 678.369 331.54 678.719 331.91 679.009C332.92 678.189 333.94 677.419 334.94 676.659C335.26 676.419 335.58 676.179 335.9 675.929C335.71 675.499 335.47 675.059 335.15 674.649C334.45 673.739 333.56 673.099 332.71 672.809L332.7 672.799Z" fill="#82C3DE"/>
<path d="M314.47 686.639C313.06 685.099 311.55 683.929 310.29 683.379C307.05 679.819 303.99 676.089 301.15 672.179C300.72 669.829 298.6 665.379 295.95 660.389C292.32 653.629 288.97 648.24 287.56 648.78C286.18 649.3 287.38 655.839 291.19 662.929C293.98 668.169 297.3 672.06 299.33 673.4C301.89 677.59 304.69 681.639 307.71 685.539C308.05 686.909 309 688.64 310.48 690.27C311.62 691.52 312.84 692.459 313.96 693.049C313.98 693.069 314 693.099 314.02 693.119C315.29 692.399 316.51 691.639 317.7 690.869C317.44 690.619 317.18 690.379 316.92 690.139C316.39 689.039 315.56 687.829 314.48 686.639H314.47Z" fill="#82C3DE"/>
<path d="M302.71 691.29C301.12 689.57 299.43 688.25 298.08 687.66C294.85 684.11 291.85 680.34 289.1 676.38C289.05 674.42 287.47 670.52 285.33 666.19C282.51 660.56 279.7 656.12 278.28 656.61C276.88 657.08 277.51 662.61 280.5 668.59C282.79 673.2 285.69 676.52 287.47 677.44C289.91 681.68 292.63 685.78 295.61 689.69C295.97 691.16 297.05 693.11 298.75 694.94C299.73 696 300.76 696.86 301.74 697.49C302.89 697.42 304.05 697.18 305.36 696.83C305.89 696.69 306.41 696.53 306.92 696.36C306.44 695.93 305.95 695.5 305.47 695.06C304.86 693.89 303.91 692.57 302.72 691.29H302.71Z" fill="#82C3DE"/>
<path d="M155.44 226.37L157.48 227.14C158.08 225.46 158.71 223.79 159.35 222.12C160.75 219.81 162.36 216.76 164.02 213.37C166.12 209.06 167.82 205.1 168.65 202.35L170.54 198.9C173.51 193.54 176.52 188.21 179.6 182.91C183.13 178.64 189.02 170.08 195.62 160.21C204.69 146.6 212.22 135.41 212.26 133.17C215.56 128.83 218.96 124.57 222.47 120.39C218.83 124.43 215.3 128.57 211.86 132.78C209.82 133.16 200.42 143.28 191.15 157.21C184.4 167.3 179.39 176.58 177.28 181.69C174.04 186.86 170.86 192.06 167.72 197.28L165.64 200.78C163.72 202.98 161.31 206.62 159.17 211.02C157.54 214.35 156.37 217.55 155.67 220.16C155.22 221.22 154.79 222.29 154.35 223.35C154.5 224.32 154.66 225.25 154.83 226.14L155.45 226.37H155.44Z" fill="#82C3DE"/>
<path d="M170.5 229.4C172.86 223.87 174.72 218.82 175.64 215.37C178.63 208.64 181.74 201.97 185.02 195.37C186.17 193.78 187.57 191.68 189.17 189.16C193.18 182.89 198.18 174 203.73 164.23C209.26 154.45 214.42 145.74 218.2 139.44C220.55 135.54 222.34 132.54 223.22 130.71C226.65 125.92 230.23 121.23 234.03 116.71C230.47 120.71 227.08 124.85 223.82 129.09C223.84 128.9 223.82 128.77 223.74 128.71C223.18 128.26 219.75 131.42 215.07 137.26C210.41 143.1 204.62 151.68 199.04 161.56C193.43 171.43 188.95 180.64 185.82 187.33C184.98 189.16 184.25 190.81 183.64 192.25C179.83 199.33 176.18 206.5 172.7 213.75C170.64 216.7 167.98 221.55 165.54 227.28C163.67 231.65 162.24 235.75 161.35 239.02C160.97 239.92 160.6 240.83 160.22 241.73C161.01 243.35 161.86 244.97 162.82 246.47C162.85 246.51 162.88 246.55 162.9 246.59C163.67 244.53 164.46 242.49 165.25 240.44C166.85 237.5 168.68 233.66 170.5 229.4Z" fill="#82C3DE"/>
<path d="M179.73 240.57C181.79 234.74 183.39 229.44 184.16 225.8C187.14 217.75 190.3 209.76 193.67 201.86C194.51 200.29 195.44 198.49 196.48 196.5C198.53 192.59 200.99 187.95 203.79 182.84C206.6 177.74 209.74 172.15 213.12 166.32C219.88 154.67 226.16 144.15 230.45 136.37C234.38 129.27 236.66 124.47 236.54 123.39C238.67 120.3 240.83 117.24 243.04 114.21C240.76 117.16 238.53 120.14 236.34 123.15C235.48 123.19 232.11 127.41 227.22 134.33C222.1 141.6 215.28 151.83 208.45 163.61C205.04 169.5 201.99 175.24 199.38 180.55C196.78 185.86 194.64 190.75 193.02 194.92C191.76 198.16 190.79 200.95 190.12 203.17C186.96 210.15 183.96 217.2 181.1 224.31C179.19 227.52 176.79 232.71 174.65 238.76C172.99 243.43 171.77 247.79 171.04 251.24C170.57 252.61 170.1 253.99 169.63 255.36C169.86 255.53 170.08 255.69 170.3 255.87C171.39 256.79 172.23 257.45 173.29 257.99C173.87 256.1 174.47 254.2 175.06 252.31C176.5 249.16 178.13 245.07 179.73 240.56V240.57Z" fill="#82C3DE"/>
<path d="M190.5 246.54C191.97 241.33 193.18 236.59 193.74 233.27C194.71 230.4 195.72 227.55 196.79 224.71C199.08 218.61 201.55 212.58 204.12 206.57C204.63 205.5 205.16 204.37 205.71 203.17C209.9 194.13 215.39 181.54 221.88 167.89C225.14 161.07 228.38 154.66 231.41 148.87C232.96 146 234.4 143.24 235.84 140.72C236.55 139.45 237.21 138.21 237.89 137.04C238.56 135.87 239.21 134.75 239.83 133.68C244.6 125.44 247.8 120.29 247.46 119.48C248.65 117.82 249.86 116.17 251.11 114.55C249.82 116.14 248.57 117.76 247.33 119.38C246.55 119.3 242.28 123.72 236.61 131.61C235.89 132.64 235.13 133.72 234.34 134.84C233.56 135.97 232.8 137.18 231.99 138.42C230.36 140.89 228.75 143.6 227.05 146.46C223.72 152.21 220.3 158.67 216.99 165.57C210.42 179.4 205.45 192.31 202.16 201.74C200.94 205.24 199.96 208.26 199.23 210.69C197.33 214.93 195.49 219.21 193.74 223.53C192.61 226.32 191.53 229.13 190.49 231.96C188.81 234.94 186.85 239.6 185.3 245.08C184.06 249.43 183.35 253.5 183.08 256.72C182.75 258.19 182.44 259.66 182.15 261.13C183.38 261.33 184.63 261.58 185.9 261.83C186.06 261.86 186.22 261.89 186.37 261.92C186.63 260.38 186.91 258.84 187.22 257.31C188.22 254.37 189.33 250.62 190.49 246.54H190.5Z" fill="#82C3DE"/>
<path d="M203.69 250.25C204.65 246.26 205.33 242.61 205.56 239.96C206.9 235.18 208.4 230.44 210.01 225.73C210.98 222.89 211.98 220.06 213.01 217.24C214.05 215.06 215.25 212.43 216.57 209.42C220.71 199.99 225.96 186.8 231.93 172.36C234.92 165.14 237.87 158.32 240.61 152.15C242 149.07 243.3 146.14 244.58 143.42C245.82 140.68 247.04 138.17 248.13 135.85C252.53 126.62 255.36 120.91 254.69 120.5C254.64 120.47 254.57 120.49 254.49 120.52C255.44 119.03 256.4 117.54 257.39 116.08C256.3 117.61 255.24 119.15 254.19 120.71C252.85 121.75 249.29 126.5 244.76 134.05C243.44 136.28 242 138.72 240.58 141.41C239.11 144.08 237.63 146.97 236.11 150.03C233.09 156.17 229.96 163.01 226.95 170.29C220.93 184.85 216.23 198.29 213.01 208.06C212.37 210 211.8 211.79 211.29 213.43C209.8 217.15 208.34 220.88 206.94 224.64C205.19 229.34 203.54 234.1 202.05 238.91C200.79 241.31 199.44 244.86 198.45 248.99C197.63 252.38 197.22 255.54 197.13 258.07C196.8 259.72 196.5 261.38 196.22 263.04C196.87 262.99 197.55 262.92 198.24 262.84C199.02 262.75 199.84 262.67 200.68 262.61C200.86 261.35 201.05 260.1 201.26 258.85C202.07 256.52 202.9 253.53 203.7 250.26L203.69 250.25Z" fill="#82C3DE"/>
<path d="M218.11 252.849C218.89 249.669 219.28 246.729 219.28 244.559C221.13 236.789 223.09 229.049 225.15 221.339C225.9 219.309 226.73 216.969 227.62 214.349C228.45 211.929 229.33 209.269 230.26 206.409C231.25 203.569 232.31 200.539 233.42 197.349C235.66 190.979 238.16 183.989 240.87 176.689C246.28 162.079 251.58 149.009 255.4 139.519C259.18 130.179 261.45 124.289 260.87 123.789C261.75 122.019 262.62 120.239 263.53 118.479C262.56 120.229 261.63 121.999 260.69 123.759C259.76 124.109 256.39 129.349 251.93 137.929C247.19 147.079 241.27 160.059 235.8 174.809C233.06 182.179 230.68 189.289 228.68 195.799C227.68 199.059 226.78 202.169 225.97 205.079C225.22 208.019 224.55 210.759 223.95 213.259C223.51 215.109 223.12 216.819 222.77 218.399C220.22 226.849 217.81 235.349 215.53 243.879C214.57 245.789 213.61 248.489 212.86 251.559C212.23 254.139 211.86 256.559 211.73 258.529C211.44 259.659 211.16 260.799 210.87 261.929C210.97 261.909 211.07 261.879 211.17 261.859C212.36 261.579 213.6 261.299 214.98 261.279H215.44C215.55 260.779 215.66 260.289 215.77 259.799C216.61 257.949 217.44 255.539 218.1 252.839L218.11 252.849Z" fill="#82C3DE"/>
<path d="M266.45 130.23C267.74 127.16 269.06 124.11 270.43 121.07C268.97 124.06 267.56 127.07 266.17 130.09C264.31 130.95 253.89 152.44 245.12 180.26C239.59 197.61 236.01 213.3 234.34 223.08C232.35 230.66 230.45 238.27 228.62 245.88C227.96 246.9 227.38 248.31 227.02 249.92C226.7 251.36 226.61 252.73 226.71 253.87C226.52 254.69 226.32 255.51 226.13 256.33L228.26 256.8L230.39 257.27C230.56 256.45 230.73 255.63 230.89 254.82C231.47 253.83 231.97 252.55 232.3 251.1C232.66 249.49 232.73 247.97 232.56 246.76C234.28 238.53 236.07 230.31 237.97 222.11C240.93 212.61 245.14 198.06 250.29 181.89C258.95 154.42 267.17 132.31 266.47 130.22L266.45 130.23Z" fill="#82C3DE"/>
<path d="M249.84 227.56C250.14 225.89 250.44 224.23 250.75 222.56C250.84 222.24 250.93 221.91 251.03 221.58C253.07 214.26 255.55 204.09 258.24 192.88C258.27 192.75 258.3 192.63 258.33 192.5C258.37 188.79 258.46 184.99 259.1 181.41C259.96 176.64 260.85 171.72 262.46 167.21V167.09C262.39 165.4 263.53 164.43 264.64 164.24L264.98 164.18L265.2 164.2C265.2 164.2 265.2 164.19 265.2 164.18C266.95 156.82 267.88 152.19 267.16 151.93C266.47 151.69 264.26 155.91 261.55 163.06C258.83 170.2 255.71 180.3 252.99 191.6C250.27 202.91 248.38 213.25 247.29 220.78C247.24 221.14 247.19 221.48 247.14 221.83C246.12 226.14 245.11 230.46 244.11 234.77L245.19 234.99L246.74 232.78C247.86 231.19 248.88 229.45 249.85 227.54L249.84 227.56Z" fill="#82C3DE"/>
<path d="M78.1701 689.98C75.0901 685.32 72.1101 681.66 70.5501 681.42C69.5301 679.77 68.5401 678.11 67.6201 676.4C68.2801 678.22 69.0001 680.02 69.7601 681.8C69.0201 683.17 70.3901 687.98 73.6601 692.94C74.1201 693.64 74.5801 694.3 75.0601 694.92C75.1601 694.99 75.2501 695.08 75.3401 695.15C77.6301 696.86 80.6801 698.18 83.8501 698.85C83.2801 698.22 82.7001 697.6 82.1401 696.96C81.2801 695.02 79.8701 692.56 78.1701 689.97V689.98Z" fill="#82C3DE"/>
<path d="M104.95 679.99C98.5101 671.75 93.5102 664.67 91.7402 664.24C90.3902 661.97 89.1002 659.66 87.9102 657.29C88.9102 659.74 90.0102 662.14 91.1802 664.51C90.8902 665.28 91.4402 667.48 92.8102 670.52C94.3802 674.04 97.0902 678.65 100.68 683.29C104.68 688.45 108.82 692.51 111.88 694.93C113.34 696.62 114.85 698.28 116.36 699.93C118.25 699.79 120.1 699.66 121.88 699.55C119.33 697.27 116.83 694.93 114.4 692.52C112.24 689.36 108.77 684.93 104.95 679.99Z" fill="#82C3DE"/>
<path d="M131.29 689.219C131.02 688.819 130.73 688.399 130.42 687.969C127.83 684.339 123.96 679.609 119.61 674.509C115.26 669.409 111.32 664.839 108.39 661.559C105.81 658.679 103.95 656.829 103.1 656.699C101.58 654.499 100.13 652.249 98.76 649.939C99.97 652.339 101.27 654.689 102.65 656.989C102.44 657.819 103.36 660.329 105.29 663.779C107.49 667.719 111.08 672.819 115.5 678.009C119.93 683.199 124.27 687.539 127.58 690.519C127.96 690.859 128.33 691.179 128.68 691.479C130.76 693.969 132.82 696.459 134.85 698.969C136.7 698.919 138.53 698.889 140.35 698.879L140.37 698.859C137.38 695.589 134.34 692.399 131.3 689.219H131.29Z" fill="#82C3DE"/>
<path d="M146.44 685.55C146.04 684.99 145.62 684.42 145.15 683.8C142.19 679.9 137.8 674.83 132.86 669.36C127.92 663.89 123.44 659.01 120.11 655.5C117.17 652.41 115.08 650.44 114.2 650.31C112.55 648.11 110.94 645.88 109.41 643.58C110.79 645.96 112.26 648.28 113.78 650.57C113.57 651.39 114.74 654.09 117.09 657.84C119.71 662.02 123.84 667.44 128.85 672.97C133.86 678.5 138.7 683.18 142.36 686.4C142.92 686.89 143.44 687.33 143.94 687.75C147 691.3 150.02 694.88 153.04 698.45C154.49 698.38 155.95 698.33 157.42 698.33C157.57 698.33 157.71 698.33 157.85 698.33L158.3 697.94C154.34 693.81 150.41 689.65 146.44 685.55Z" fill="#82C3DE"/>
<path d="M175.38 695.74C175.01 695.31 174.5 695.09 173.94 695.04C169.73 690.46 165.44 685.97 161.12 681.51C160.61 680.78 160.05 680.01 159.41 679.16C156.37 675.14 151.86 669.88 146.7 664.28C141.54 658.67 136.73 653.74 133.12 650.28C129.93 647.23 127.63 645.34 126.73 645.27C124.57 642.79 122.44 640.27 120.36 637.71C122.3 640.38 124.3 643.01 126.33 645.61C126.24 646.51 127.66 649.14 130.23 652.78C133.14 656.92 137.54 662.31 142.73 667.95C147.92 673.59 152.86 678.43 156.62 681.77C157.37 682.44 158.06 683.03 158.71 683.57C162.81 688.27 166.87 692.99 170.83 697.79C170.83 697.79 170.83 697.8 170.83 697.81C171.14 697.78 171.47 697.76 171.78 697.73C172.09 697.7 172.41 697.65 172.74 697.61C173.62 697.49 174.61 697.34 175.67 697.41C175.84 697.42 175.99 697.45 176.16 697.47C176.07 697.37 175.98 697.27 175.89 697.17C175.89 696.65 175.74 696.16 175.4 695.76L175.38 695.74Z" fill="#82C3DE"/>
<path d="M191.14 693.3C190.27 692.22 189.27 691.42 188.33 690.97C184.26 686.25 180.08 681.63 175.81 677.09C172.87 672.77 167.4 666.08 160.64 659.03C150.35 648.28 141.13 640.27 139.18 640.19C136.68 637.69 134.19 635.19 131.71 632.67C134.06 635.31 136.43 637.93 138.8 640.54C138.72 642.46 146.45 652.02 156.73 662.75C163.57 669.89 169.78 676 173.74 679.32C177.68 683.94 181.52 688.63 185.25 693.4C185.48 694.43 186.05 695.6 186.93 696.69C187.03 696.81 187.13 696.92 187.23 697.03C189.05 696.95 191 696.82 193.1 696.61C192.97 696.45 192.84 696.29 192.71 696.14C192.42 695.23 191.9 694.24 191.14 693.3Z" fill="#82C3DE"/>
<path d="M206.03 689.76C205 688.32 203.84 687.19 202.78 686.49C198.89 681.56 194.8 676.81 190.57 672.2C189.99 671.31 189.3 670.31 188.49 669.22C185.42 665.07 180.76 659.68 175.21 654.15C164.79 643.81 155.21 636.48 153.22 636.46C150.28 633.85 147.35 631.24 144.41 628.62C147.21 631.37 150.03 634.11 152.83 636.86C152.92 638.84 161.07 647.74 171.39 657.98C176.88 663.45 181.89 668.33 185.65 671.78C186.66 672.71 187.58 673.53 188.4 674.22C192.3 678.88 196.05 683.66 199.57 688.58C199.85 689.85 200.56 691.4 201.63 692.89C202.27 693.78 202.97 694.55 203.66 695.17C205.35 694.86 206.97 694.51 208.5 694.12C208.29 693.84 208.09 693.55 207.88 693.27C207.51 692.18 206.88 690.96 206.01 689.74L206.03 689.76Z" fill="#82C3DE"/>
<path d="M226.68 671.06C223.33 666.67 219.77 662.46 216.02 658.44C214.1 655.08 209.81 649.62 203.97 644.19C195.89 636.64 188.06 631.92 186.15 632.09C182.32 629.26 178.43 626.52 174.47 623.88C178.29 626.73 182.04 629.67 185.72 632.69C186.08 634.64 192.48 640.83 200.28 648.13C205.87 653.32 210.76 657.89 213.83 660.18C217.37 664.4 220.71 668.78 223.8 673.31C224.19 674.75 225.06 676.54 226.26 678.35C227.24 679.82 228.3 681.09 229.29 682C229.54 682.43 229.79 682.86 230.04 683.29C230.2 683.11 230.37 682.94 230.53 682.76C231.18 682.02 232.01 680.99 232.89 679.73C232.49 678.41 231.78 676.88 230.76 675.36C229.46 673.41 227.97 671.9 226.68 671.06Z" fill="#82C3DE"/>
<path d="M227.21 650.37C225.95 647.81 222.9 643.78 218.68 639.83C212.76 634.26 206.84 630.99 205.32 631.5C203.01 629.82 200.66 628.18 198.28 626.61C200.55 628.35 202.76 630.15 204.94 632C204.83 633.62 209.29 638.4 214.98 643.76C219.06 647.58 222.8 650.79 225.19 652.23C228.37 656 231.38 659.9 234.2 663.92C234.23 664.79 234.56 665.76 235.19 666.63C235.73 667.37 236.41 667.91 237.11 668.24C237.24 668.44 237.37 668.64 237.51 668.84C237.88 666.58 237.9 664.18 237.37 661.68C237.36 661.68 237.34 661.66 237.33 661.66C234.13 657.73 230.75 653.96 227.22 650.36L227.21 650.37Z" fill="#82C3DE"/>
<path d="M411.53 569.51C408.39 564.18 404.74 560.44 403.08 560.18C401.45 558.07 399.78 556 398.06 553.96C399.49 556.2 400.87 558.48 402.2 560.77C401.81 562.41 403.83 567.08 406.87 572.25C408.58 575.15 410.32 577.69 411.8 579.44C412.31 580.58 412.82 581.72 413.31 582.86L413.6 582.71C414.22 581.2 414.81 579.61 415.38 577.93C415.32 577.83 415.26 577.73 415.2 577.63C414.54 575.39 413.29 572.5 411.53 569.51Z" fill="#82C3DE"/>
<path d="M385.8 597.39C379.98 587.01 373.68 579.43 371.66 578.72C369.47 575.68 367.26 572.67 364.99 569.7C367.03 572.84 369.03 576 370.98 579.2C370.87 581.38 375.42 589.92 381.09 600.03C384.23 605.6 387.08 610.65 389.32 614.25C390.09 616.04 390.82 617.84 391.54 619.65C392.15 618.85 392.75 618.05 393.34 617.23C393.68 616.76 394.01 616.25 394.34 615.73C393.82 614.68 393.31 613.63 392.77 612.59C391.38 608.51 389.01 603.09 385.8 597.39Z" fill="#82C3DE"/>
<path d="M377.01 607.07C371.08 596.32 364.87 588.22 362.81 587.34C360.53 583.95 358.22 580.59 355.84 577.28C357.98 580.77 360.05 584.3 362.09 587.85C362.04 590.19 366.48 599.16 372.29 609.7C375.52 615.54 378.6 620.76 381.05 624.46C381.92 626.32 382.79 628.18 383.64 630.05C383.98 629.67 384.29 629.29 384.56 628.92C385.04 628.25 385.56 627.64 386.05 627.05C386.22 626.85 386.37 626.66 386.53 626.47C385.84 625.22 385.15 623.97 384.45 622.72C382.85 618.56 380.27 613.01 377 607.09L377.01 607.07Z" fill="#82C3DE"/>
<path d="M359.17 624.23C353.31 614.21 347.51 606.49 345.43 605.49C343.01 601.77 340.58 598.06 338.15 594.34C340.32 598.21 342.48 602.09 344.63 605.97C344.54 608.28 348.68 616.98 354.51 626.95C357.86 632.66 361.08 637.69 363.61 641.16C364.83 643.53 366.05 645.91 367.25 648.3C367.72 647.81 368.18 647.31 368.62 646.81C369.11 646.25 369.62 645.72 370.13 645.19C370.19 645.13 370.24 645.07 370.3 645.01C369.17 643.11 368.03 641.21 366.88 639.33C365.23 635.35 362.54 629.97 359.17 624.23Z" fill="#82C3DE"/>
<path d="M349.06 630.84C343.94 622.25 338.86 615.61 336.89 614.76C334.49 610.96 332.11 607.15 329.76 603.32C331.83 607.3 333.94 611.26 336.06 615.22C335.82 617.3 339.26 624.95 344.41 633.59C347.58 638.9 350.72 643.46 353.13 646.38C355.08 649.88 357.03 653.38 358.99 656.88C360.08 655.97 361.1 654.92 362.12 653.79C360.17 650.81 358.22 647.83 356.27 644.85C354.87 641.33 352.3 636.28 349.06 630.84Z" fill="#82C3DE"/>
<path d="M338.55 637.18C333.96 629.6 329.51 623.67 327.69 623.03C325.56 619.53 323.45 616.02 321.4 612.47C323.18 616.15 325.03 619.8 326.9 623.44C326.46 625.28 329.25 632.26 333.92 639.98C337 645.08 340.17 649.29 342.51 651.71C344.98 655.91 347.51 660.07 350.07 664.22C350.52 663.82 350.96 663.42 351.43 663.04C352.06 662.52 352.7 662.04 353.33 661.57C353.35 661.55 353.37 661.54 353.39 661.52C350.63 657.7 347.9 653.85 345.21 649.97C344 646.85 341.58 642.22 338.54 637.18H338.55Z" fill="#82C3DE"/>
<path d="M324.9 680.4C323.84 679.11 322.62 678.19 321.53 677.76C318.45 674.17 315.47 670.49 312.63 666.7C311.95 664.18 309.66 659.74 306.76 654.83C302.73 648.05 298.99 642.71 297.53 642.98C297.04 642.05 296.56 641.11 296.09 640.17C296.48 641.15 296.89 642.12 297.3 643.08C296.16 643.99 297.93 650.53 302.11 657.57C305.12 662.66 308.46 666.53 310.61 668.09C313.2 672.16 315.93 676.15 318.78 680.04C319.01 681.17 319.68 682.53 320.73 683.81C321.56 684.83 322.49 685.61 323.37 686.12C323.42 686.18 323.46 686.24 323.51 686.3C324.63 685.42 325.72 684.55 326.77 683.65C326.74 683.61 326.7 683.58 326.67 683.54C326.36 682.54 325.77 681.44 324.91 680.4H324.9Z" fill="#82C3DE"/>
<path d="M287.62 692.05C286.9 691.17 285.97 690.6 285.08 690.4C282.13 686.98 279.41 683.35 276.94 679.52C277.14 677.87 276.22 674.77 274.69 671.42C273.12 667.99 271.32 665.2 269.93 664.35C269.89 664.46 269.83 664.57 269.79 664.68L269.37 665.81C268.97 666.87 268.57 667.94 268.24 669.02C268.53 670.43 269.03 672.02 269.78 673.66C271.42 677.26 273.67 679.86 275.2 680.54C277.26 684.71 279.61 688.76 282.26 692.63C282.26 692.73 282.29 692.84 282.3 692.94C283.1 693.11 283.95 693.31 284.88 693.6C286.15 694 287.57 694.41 289.12 694.81C288.97 694.65 288.83 694.5 288.68 694.35C288.55 693.58 288.21 692.77 287.62 692.06V692.05Z" fill="#82C3DE"/>
<path d="M271.38 165.26L279.08 167.25C279.35 167.99 279.86 168.48 280.45 168.51C280.61 168.51 280.77 168.48 280.92 168.41C280.63 167.43 280.33 166.47 280.05 165.55L279.5 163.79C279.42 163.9 279.35 164 279.28 164.13L271.38 165.25V165.26Z" fill="#82C3DE"/>
<path d="M319.55 238.12C318 238.24 316.65 238.72 315.75 239.37C312.01 239.78 308.25 240.12 304.49 240.39C302.72 239.55 299.15 239.02 295.06 238.97C289.59 238.91 285.04 239.74 284.44 241.08C282.59 241.08 280.73 241.05 278.88 241C280.72 241.22 282.56 241.42 284.41 241.6C284.86 242.99 289.39 244.31 295 244.37C299.23 244.42 302.86 243.74 304.6 242.82C308.4 242.91 312.2 242.93 316 242.87C316.99 243.37 318.4 243.64 319.98 243.52C321.06 243.44 322.02 243.18 322.81 242.83C322.56 242.26 322.31 241.69 322.06 241.13L321.7 240.31C321.34 239.5 320.98 238.78 320.59 238.12C320.26 238.11 319.92 238.11 319.57 238.14L319.55 238.12Z" fill="#82C3DE"/>
<path d="M246.04 248.59H243.12L245.73 249.75C245.79 250.69 246.51 251.59 247.6 252.15C247.79 251.94 247.98 251.72 248.19 251.51C249.41 250.28 250.8 249.31 252.16 248.41C251.6 247.9 250.86 247.49 249.98 247.31C248.29 246.96 246.69 247.52 246.04 248.59Z" fill="#82C3DE"/>
<path d="M284.6 276.09C278.28 275.73 272.99 276.27 272.28 277.58C270.89 277.53 269.51 277.46 268.12 277.39C269.49 277.63 270.85 277.86 272.22 278.08C272.65 279.5 277.82 281.12 284.28 281.49C288.41 281.73 292.07 281.41 294.33 280.78C296.74 280.98 299.15 281.15 301.56 281.3C301.59 280.14 301.61 278.98 301.62 277.84C301.62 277.65 301.62 277.46 301.62 277.26C299.21 277.4 296.8 277.52 294.38 277.61C292.18 276.88 288.61 276.33 284.58 276.09H284.6Z" fill="#82C3DE"/>
<path d="M288.59 329.56C287.58 329.52 286.66 329.78 285.97 330.24C281.17 330.2 276.37 330.02 271.57 329.71C269.13 328.63 264.49 327.55 259.14 326.67C251.6 325.46 245.26 325.07 244.3 326.27C242.52 325.93 240.73 325.59 238.95 325.2C240.69 325.73 242.43 326.21 244.18 326.7C244.41 328.18 250.45 330.75 258.26 332.01C263.79 332.91 268.67 332.92 271.31 332.37C276.12 333.08 280.95 333.65 285.8 334.08C286.45 334.58 287.35 334.91 288.37 334.95C288.92 334.97 289.44 334.89 289.92 334.75C290.3 333.24 290.68 331.74 291.06 330.22C290.98 330.22 290.9 330.22 290.82 330.22C290.21 329.84 289.44 329.58 288.59 329.55V329.56Z" fill="#82C3DE"/>
<path d="M251.62 336.11C244.52 334.57 238.47 334.03 237.39 335.15C235.6 334.77 233.81 334.38 232.02 333.96C233.75 334.55 235.49 335.13 237.24 335.7C237.61 337.2 243.22 339.82 250.47 341.39C255.09 342.4 259.26 342.74 261.94 342.54C263.72 342.95 265.5 343.34 267.29 343.72C267.78 343.24 268.28 342.75 268.8 342.3C269.87 341.37 271.07 340.76 272.32 340.4C269.04 340.11 265.77 339.77 262.49 339.37C260.07 338.27 256.12 337.1 251.61 336.12L251.62 336.11Z" fill="#82C3DE"/>
<path d="M183.87 313.42C181.85 312.42 179.86 311.38 177.9 310.25C179.61 311.72 181.37 313.14 183.18 314.51C183.29 315.97 185.62 318.44 189.06 320.29C191.04 321.36 192.97 322.01 194.5 322.24C194.6 322.3 194.7 322.36 194.8 322.43C194.78 322.32 194.75 322.21 194.72 322.1C194.3 320.27 193.87 318.37 193.36 316.57C192.81 316.22 192.24 315.87 191.62 315.54C188.34 313.78 185.23 312.89 183.87 313.43V313.42Z" fill="#82C3DE"/>
<path d="M242.25 352.75C246.29 353.8 250 354.29 252.62 354.29C254.62 354.86 256.63 355.42 258.64 355.94L259.48 351.67C257.43 351.4 255.39 351.1 253.35 350.78C251.01 349.7 247.53 348.54 243.6 347.52C236.77 345.76 230.89 345.06 229.77 346.14C228.2 345.77 226.64 345.4 225.08 345.01C226.58 345.59 228.09 346.15 229.6 346.71C229.94 348.22 235.29 350.95 242.26 352.75H242.25Z" fill="#82C3DE"/>
<path d="M236.14 363.91C240.29 365 244.09 365.52 246.76 365.54C248.78 366.12 250.8 366.69 252.83 367.22L253.68 362.95C251.61 362.67 249.55 362.36 247.49 362.04C245.09 360.94 241.53 359.75 237.51 358.69C230.46 356.85 224.43 356.03 223.36 357.13C222.03 356.79 220.7 356.45 219.37 356.09C220.64 356.61 221.92 357.11 223.2 357.61C223.42 359.12 228.92 362.02 236.13 363.91H236.14Z" fill="#82C3DE"/>
<path d="M198.27 344.86C194.55 343.17 191.1 342.4 189.76 343.05C188.26 342.44 186.77 341.8 185.28 341.14C185.27 341.27 185.25 341.39 185.23 341.51C186.54 342.39 187.85 343.26 189.19 344.11C189.43 345.59 192.17 348.01 196.03 349.77C198.25 350.78 200.39 351.38 202.05 351.55C202.83 351.96 203.6 352.39 204.38 352.79L205.46 350.15C205.19 349.55 204.93 348.94 204.65 348.34C204.26 348.22 203.88 348.1 203.49 347.98C202.23 346.94 200.39 345.83 198.27 344.86Z" fill="#82C3DE"/>
<path d="M316.32 382.3C310.52 381.87 301.32 381.58 290.99 380.83C273.61 379.65 259.5 377.83 259.18 379.35C259.04 380.07 262.42 381.45 268.09 382.85C273.75 384.25 281.72 385.6 290.62 386.22C299.51 386.83 307.6 386.57 313.41 385.92C314.49 385.8 315.49 385.67 316.4 385.53C321.8 385.47 327.21 385.21 332.62 384.75C333.72 383.5 334.85 382.18 336.02 380.74L335.93 380.08C329.44 381.12 322.9 381.85 316.33 382.3H316.32Z" fill="#82C3DE"/>
<path d="M285.59 393.66C270.41 392.26 258.03 390.79 257.72 392.29C257.4 393.7 269.53 397.6 285.09 399.04C292.85 399.76 299.94 399.74 305.04 399.3C305.92 399.23 306.73 399.14 307.49 399.05C311.86 399.2 316.25 399.22 320.64 399.11C320.92 398.47 321.18 397.82 321.4 397.14L321.54 396.7L321.83 396.34C322.27 395.79 322.72 395.26 323.18 394.73C318 395.26 312.8 395.61 307.58 395.77C302.52 395.11 294.54 394.51 285.59 393.65V393.66Z" fill="#82C3DE"/>
<path d="M228.22 387.6C232.83 389.02 237.07 389.78 239.93 389.9C242.72 390.8 245.53 391.68 248.35 392.5L249.34 388.26C246.47 387.76 243.62 387.2 240.76 386.61C238.25 385.31 234.3 383.82 229.8 382.44C222.29 380.14 215.87 378.93 214.77 380.01C213.46 379.61 212.15 379.21 210.84 378.8C212.09 379.35 213.35 379.89 214.61 380.43C214.72 381.94 220.52 385.24 228.21 387.6H228.22Z" fill="#82C3DE"/>
<path d="M189.39 366.39C185.38 364.36 181.67 363.29 180.25 363.88C178.67 363.15 177.1 362.38 175.55 361.59C175.5 361.67 175.46 361.74 175.41 361.82C176.81 362.86 178.23 363.88 179.67 364.87C179.87 366.39 182.79 369.11 186.95 371.21C189.33 372.41 191.62 373.18 193.4 373.48C193.9 373.77 194.39 374.05 194.88 374.34C195.39 373.03 195.9 371.74 196.42 370.5C195.94 370.32 195.46 370.15 194.98 369.97C193.64 368.81 191.67 367.55 189.39 366.39Z" fill="#82C3DE"/>
<path d="M281.38 406.08C269.2 404.7 259.19 403.86 258.89 405.35C258.59 406.78 268.3 410.03 280.77 411.45C288.32 412.32 295.03 412.27 299.16 411.77C302.91 412.08 306.67 412.3 310.44 412.44C311.14 411.68 311.86 410.88 312.61 410.03L313.49 409.04C313.74 408.76 313.99 408.48 314.24 408.19C309.24 408.49 304.23 408.61 299.21 408.6C295.19 407.75 288.69 406.93 281.38 406.08Z" fill="#82C3DE"/>
<path d="M226.49 400.04C231.43 401.59 235.97 402.41 238.98 402.55C242.22 403.58 245.47 404.55 248.74 405.46L249.7 401.21C246.39 400.64 243.09 400 239.8 399.31C237.14 397.96 232.91 396.38 228.09 394.88C220.19 392.42 213.46 391.01 212.28 392.04C210.77 391.56 209.26 391.06 207.76 390.55C209.2 391.21 210.65 391.85 212.1 392.48C212.26 394.01 218.37 397.51 226.47 400.03L226.49 400.04Z" fill="#82C3DE"/>
<path d="M185.11 377.18C180.81 374.91 176.85 373.62 175.4 374.18C173.81 373.39 172.23 372.56 170.67 371.71C170.63 371.78 170.59 371.85 170.55 371.92C171.96 373.01 173.38 374.07 174.83 375.11C175.02 376.66 178.14 379.61 182.59 381.95C185.09 383.27 187.51 384.15 189.39 384.54C189.97 384.88 190.55 385.22 191.13 385.56C191.51 384.21 191.92 382.88 192.34 381.56C191.92 381.4 191.5 381.24 191.08 381.07C189.64 379.84 187.54 378.46 185.12 377.17L185.11 377.18Z" fill="#82C3DE"/>
<path d="M181.92 388.52C177.33 386.04 173.14 384.51 171.56 384.95C169.65 383.95 167.77 382.9 165.9 381.81C165.88 381.89 165.87 381.99 165.85 382.07C167.52 383.39 169.21 384.68 170.93 385.93C171.23 387.54 174.59 390.69 179.34 393.26C182.04 394.72 184.63 395.72 186.65 396.2C187.25 396.55 187.84 396.9 188.44 397.25C188.67 395.86 188.95 394.47 189.24 393.09C188.95 392.97 188.66 392.86 188.37 392.74C186.8 391.43 184.53 389.93 181.91 388.52H181.92Z" fill="#82C3DE"/>
<path d="M181.25 401.23C177.12 399.01 173.32 397.7 171.69 398.04C169.36 396.85 167.06 395.59 164.78 394.29C164.78 394.42 164.78 394.55 164.77 394.69C166.79 396.26 168.84 397.79 170.93 399.27C171.37 400.88 174.43 403.69 178.69 405.99C181.18 407.33 183.58 408.24 185.47 408.66C186.08 409.02 186.68 409.37 187.29 409.73C187.31 408.25 187.36 406.77 187.47 405.28C187.38 405.24 187.29 405.21 187.2 405.17C185.76 403.93 183.67 402.53 181.25 401.23Z" fill="#82C3DE"/>
<path d="M264.76 448.46C267.11 448.86 269.3 448.95 271.02 448.8C271.49 448.88 271.95 448.96 272.42 449.04C271.2 447.36 270.01 445.64 268.9 443.83C267.9 443.56 266.81 443.33 265.67 443.13C262.66 442.62 259.92 442.52 258.08 442.8C253.54 442.04 249.01 441.17 244.51 440.18C241.88 438.61 236.26 436.52 229.69 434.45C220.77 431.66 213.25 429.91 212.14 430.99C210.26 430.34 208.39 429.67 206.53 428.98C208.34 429.79 210.17 430.57 212 431.33C212.05 432.85 218.93 436.74 228.08 439.6C234.79 441.71 240.82 442.66 243.91 442.54C244.95 442.84 246 443.11 247.05 443.39C247.1 443.35 247.14 443.32 247.18 443.28C247.92 442.68 249.16 441.68 250.87 442.02C252.59 442.38 254.15 444.9 254.32 445.19C254.34 445.22 254.36 445.24 254.38 445.28C255.39 445.53 256.4 445.79 257.42 446.02C259.03 446.99 261.67 447.93 264.77 448.45L264.76 448.46Z" fill="#82C3DE"/>
<path d="M174.48 412.55C171.51 411.16 168.57 409.7 165.67 408.16C165.74 408.43 165.82 408.7 165.89 408.98C168.41 410.77 170.98 412.5 173.59 414.18C174.3 415.71 177.08 418.01 180.77 419.95C182.99 421.12 185.13 421.94 186.85 422.35C187.5 422.74 188.14 423.12 188.79 423.51C188.53 422.46 188.29 421.4 188.09 420.3C187.96 419.54 187.84 418.77 187.74 418C186.54 417.05 185.02 416.08 183.31 415.18C179.64 413.25 176.16 412.26 174.47 412.55H174.48Z" fill="#82C3DE"/>
<path d="M218.39 445.75L211.93 444.37L217.7 447.18C217.92 448.49 219.82 450.03 222.43 450.91C222.79 451.03 223.15 451.13 223.5 451.21C223.86 450.34 224.25 449.47 224.69 448.62L225.39 447.25H226.93C226.93 447.25 227.03 447.25 227.08 447.25C226.29 446.68 225.3 446.16 224.16 445.78C221.77 444.98 219.51 445.02 218.4 445.75H218.39Z" fill="#82C3DE"/>
<path d="M212.4 456.39L207.31 455.37L207.28 455.52L211.84 457.72C212.06 459.03 213.95 460.57 216.55 461.43C217.68 461.8 218.78 461.99 219.74 462.01C220.05 461.14 220.36 460.26 220.65 459.38L221.1 457.99C221.12 457.91 221.15 457.84 221.17 457.76C220.38 457.19 219.38 456.67 218.24 456.3C215.78 455.49 213.45 455.57 212.4 456.38V456.39Z" fill="#82C3DE"/>
<path d="M292.52 491.63C296.76 491.89 300.23 490.9 300.29 489.41C300.34 487.92 297.02 486.5 292.86 486.24C290.35 486.08 288.09 486.39 286.66 486.98C285.07 486.65 283.48 486.3 281.9 485.95C282.63 486.96 283.34 488 283.98 489.09C284.14 489.36 284.31 489.63 284.48 489.9C285 489.9 285.52 489.91 286.04 489.9C287.31 490.77 289.71 491.45 292.51 491.63H292.52Z" fill="#82C3DE"/>
<path d="M209.17 468.34L204.3 467.13L204.22 467.5L208.44 469.74C208.61 471.05 210.43 472.65 212.98 473.6C213.8 473.9 214.59 474.1 215.34 474.21C215.85 472.74 216.36 471.29 216.87 469.85C216.9 469.76 216.94 469.67 216.97 469.58C216.35 469.19 215.65 468.83 214.87 468.54C212.54 467.67 210.3 467.64 209.17 468.33V468.34Z" fill="#82C3DE"/>
<path d="M205.4 480.13L201.77 479.23C201.75 479.35 201.72 479.47 201.7 479.58L204.78 481.3C204.84 482.63 206.66 484.32 209.27 485.33C210.07 485.64 210.86 485.84 211.6 485.96C212.05 484.35 212.53 482.76 213.03 481.18C212.49 480.85 211.88 480.54 211.23 480.29C208.81 479.35 206.48 479.34 205.41 480.12L205.4 480.13Z" fill="#82C3DE"/>
<path d="M202.86 492.34L199.32 491.36C199.3 491.48 199.27 491.61 199.25 491.73L202.2 493.49C202.2 494.82 203.98 496.56 206.55 497.64C207.5 498.04 208.42 498.28 209.27 498.39C209.55 496.67 209.87 495.03 210.18 493.45C209.71 493.16 209.2 492.89 208.64 492.65C206.27 491.66 203.96 491.58 202.86 492.33V492.34Z" fill="#82C3DE"/>
<path d="M304.71 531.98C307.59 531.97 309.94 530.95 310.31 529.65C310.93 529.56 311.56 529.47 312.18 529.38C312.18 529.3 312.18 529.22 312.18 529.14C311.55 529.07 310.93 528.99 310.3 528.91C309.92 527.58 307.54 526.56 304.68 526.57C303.03 526.57 301.54 526.93 300.51 527.48C300.08 527.41 299.66 527.33 299.23 527.25C299.18 528.52 299.08 529.74 298.95 530.93C299.31 530.9 299.67 530.87 300.02 530.84C301.04 531.53 302.75 531.99 304.69 531.98H304.71Z" fill="#82C3DE"/>
<path d="M201.27 504.79L197.48 503.77C197.48 503.88 197.47 503.98 197.46 504.09L200.63 505.95C200.66 507.28 202.43 509 204.99 510.05C206.01 510.47 207.01 510.72 207.91 510.81C208.1 509.08 208.27 507.39 208.39 505.72C207.97 505.48 207.53 505.25 207.04 505.05C204.66 504.07 202.34 504.01 201.26 504.78L201.27 504.79Z" fill="#82C3DE"/>
<path d="M203.33 516.86C201.61 516.1 199.81 516.27 198.92 517.16L195.88 516.29C195.88 516.4 195.87 516.5 195.86 516.61L198.4 518.16C198.18 519.45 199.3 521 201.15 521.81C202.48 522.39 203.83 522.44 204.78 522.04L206.82 523.28C206.88 522.02 206.96 520.76 207.05 519.5L205.82 519.15C205.4 518.25 204.51 517.39 203.31 516.86H203.33Z" fill="#82C3DE"/>
<path d="M300.96 558.34C304.42 558.39 307.3 557.6 308.15 556.48C308.97 556.39 309.79 556.27 310.61 556.17C310.61 555.98 310.63 555.78 310.64 555.59C309.86 555.52 309.09 555.45 308.31 555.37C307.76 554.05 304.66 553 300.94 552.94C298.87 552.91 296.99 553.19 295.64 553.67C295.41 553.63 295.18 553.6 294.95 553.56C294.76 554.61 294.56 555.67 294.39 556.72C294.34 557.03 294.3 557.34 294.25 557.64C294.79 557.61 295.34 557.57 295.88 557.54C297.21 558.01 299 558.31 300.97 558.34H300.96Z" fill="#82C3DE"/>
<path d="M299.46 571.7C303.3 571.79 306.59 570.86 307.5 569.66C308.25 569.56 308.99 569.45 309.74 569.34C309.76 569.17 309.77 569 309.79 568.82C309.09 568.77 308.39 568.74 307.7 568.68C307.22 567.34 303.81 566.39 299.56 566.29C297.25 566.25 295.15 566.51 293.64 566.98C293.52 566.96 293.4 566.94 293.28 566.92C293.14 568.24 293 569.55 292.85 570.84C292.85 570.85 292.85 570.87 292.85 570.88C293.18 570.86 293.51 570.85 293.85 570.83C295.31 571.32 297.28 571.64 299.47 571.69L299.46 571.7Z" fill="#82C3DE"/>
<path d="M296.73 584.95C299.52 585.03 301.91 584.43 302.98 583.52C304.75 583.38 306.51 583.23 308.27 583.07C308.28 582.92 308.29 582.77 308.3 582.62C306.69 582.43 305.08 582.23 303.48 582.02C302.97 580.72 300.22 579.65 296.88 579.56C295.02 579.51 293.32 579.77 292.08 580.23C292.03 580.23 291.97 580.21 291.92 580.2C291.84 581.17 291.75 582.13 291.67 583.11C291.64 583.46 291.61 583.82 291.58 584.17C291.8 584.17 292.02 584.15 292.24 584.14C293.42 584.6 295 584.9 296.74 584.95H296.73Z" fill="#82C3DE"/>
<path d="M291.22 597.32C292.57 597.88 294.45 598.24 296.52 598.29C299.98 598.37 302.89 597.55 303.76 596.41C304.84 596.3 305.91 596.18 306.99 596.06C307.01 595.94 307.02 595.81 307.04 595.69C306.01 595.58 304.99 595.47 303.96 595.34C303.47 594.02 300.38 592.98 296.65 592.9C294.76 592.85 293.03 593.07 291.72 593.43C291.39 593.37 291.05 593.31 290.72 593.25C290.57 594.65 290.43 596 290.31 597.31C290.58 597.3 290.84 597.29 291.11 597.28C291.15 597.3 291.19 597.32 291.23 597.34L291.22 597.32Z" fill="#82C3DE"/>
<path d="M280.7 177.04L274.86 177.92L280.52 179.31C280.9 180.28 281.85 180.99 282.99 181.03C283.34 181.04 283.67 180.99 283.98 180.88C283.98 180.86 283.98 180.84 283.97 180.81C283.65 179.04 283.28 177.32 282.88 175.64C281.95 175.71 281.14 176.25 280.7 177.03V177.04Z" fill="#82C3DE"/>
<path d="M284.64 189.55L278.83 190.48L284.5 191.98C284.85 192.89 285.63 193.54 286.57 193.59C286.67 193.59 286.76 193.59 286.86 193.57C286.83 193.25 286.8 192.95 286.75 192.65C286.52 191.19 286.19 189.78 285.84 188.41C285.34 188.64 284.92 189.03 284.64 189.55Z" fill="#82C3DE"/>
<path d="M287.46 202.25L281.11 203.3C281.11 203.3 281.11 203.32 281.11 203.33L287.3 204.66C287.7 205.6 288.64 206.27 289.76 206.28C290.24 206.28 290.67 206.16 291.06 205.95C290.3 204.49 289.58 202.99 289 201.47C288.95 201.34 288.89 201.21 288.83 201.09C288.26 201.32 287.78 201.72 287.47 202.25H287.46Z" fill="#82C3DE"/>
<path d="M287.23 215.29C284.85 215.47 282.47 215.63 280.09 215.75C282.44 216.15 284.81 216.51 287.17 216.85C287.94 217.97 290.42 218.81 293.39 218.84C295.12 218.86 296.68 218.6 297.85 218.16C298.41 218.22 298.97 218.28 299.54 218.34C298.04 216.95 296.64 215.41 295.45 213.6C294.82 213.51 294.16 213.44 293.46 213.43C290.56 213.4 288.08 214.18 287.24 215.28L287.23 215.29Z" fill="#82C3DE"/>
<path d="M300.23 226.2C293.38 226.27 287.7 227.05 286.71 228.32C284.83 228.37 282.95 228.41 281.06 228.42C282.92 228.66 284.79 228.87 286.67 229.06C287.53 230.41 293.27 231.67 300.29 231.59C304.12 231.56 307.56 231.14 310.04 230.54C311.01 230.56 311.99 230.57 312.96 230.58C312.6 230.29 312.24 230.01 311.88 229.7C310.72 228.71 309.68 227.62 308.67 226.56C306.34 226.29 303.41 226.16 300.24 226.19L300.23 226.2Z" fill="#82C3DE"/>
<path d="M259.8 236.13C258.29 235.9 256.89 236.55 256.32 237.63L253.45 237.84L256.08 238.9C256.22 240.14 257.4 241.22 258.99 241.47C259.9 241.61 260.76 241.44 261.43 241.06L262.41 241.45L263 237.14L261.96 237.22C261.44 236.67 260.68 236.26 259.8 236.13Z" fill="#82C3DE"/>
<path d="M324.69 250.57C322.96 250.74 321.44 251.26 320.44 251.93C317.27 252.32 314.09 252.64 310.91 252.93C311.43 253.88 312 254.79 312.61 255.69C315.33 255.65 318.05 255.58 320.76 255.46C321.87 255.92 323.47 256.12 325.23 255.95C326.61 255.81 327.85 255.47 328.81 255C329.34 254.96 329.86 254.93 330.39 254.89C329.25 253.39 328.03 251.95 326.72 250.54C326.08 250.49 325.4 250.5 324.7 250.57H324.69Z" fill="#82C3DE"/>
<path d="M279.59 253.91C278.43 253.88 277.28 253.86 276.12 253.8C277.26 253.94 278.41 254.05 279.55 254.18C279.77 255.63 286.18 257.27 294.19 257.37C298.06 257.42 301.55 257.1 304.17 256.6C304.42 255.32 304.73 254.05 305.17 252.79C302.48 252.31 298.59 252.02 294.26 251.97C286.53 251.88 280.15 252.52 279.59 253.91Z" fill="#82C3DE"/>
<path d="M333.34 262.28C330.7 262.52 328.49 263.38 327.55 264.41L320.36 265.69L320.52 265.91C320.61 266.03 320.7 266.14 320.78 266.26L327.45 266.36C328.38 267.37 330.91 267.93 333.82 267.66C335.56 267.5 337.11 267.08 338.24 266.52L339.71 266.54C339.45 266.23 339.19 265.92 338.92 265.6C338.32 264.88 337.7 264.17 337.08 263.46C336.75 263.08 336.41 262.69 336.08 262.3C335.23 262.21 334.31 262.2 333.33 262.28H333.34Z" fill="#82C3DE"/>
<path d="M291.02 264.05C284.34 263.93 278.76 264.56 277.74 265.8C275.85 265.8 273.96 265.79 272.07 265.75C273.93 266.04 275.8 266.31 277.68 266.56C278.49 267.93 284.07 269.33 290.92 269.45C294.66 269.52 298.03 269.21 300.47 268.7C301.01 268.73 301.54 268.75 302.08 268.78C302.13 268.33 302.17 267.87 302.23 267.43C302.36 266.5 302.53 265.59 302.71 264.69C301.95 264.75 301.19 264.82 300.43 264.88C298.01 264.42 294.68 264.13 291.02 264.05Z" fill="#82C3DE"/>
<path d="M239.38 257.52C237.85 257.13 236.33 257.68 235.69 258.77L233.54 258.74L235.4 259.76C235.35 260.7 235.91 261.63 236.85 262.22C238.3 261.02 239.75 259.81 241.18 258.56C240.72 258.08 240.11 257.69 239.38 257.51V257.52Z" fill="#82C3DE"/>
<path d="M337.09 276.62C335.39 277 333.69 277.35 331.98 277.7C332.08 277.79 332.18 277.87 332.28 277.96C333.93 277.97 335.58 277.98 337.23 277.97C338.16 279.02 341.06 279.5 344.42 279.05C346.33 278.79 348.01 278.29 349.23 277.66C349.47 277.65 349.71 277.64 349.96 277.63C348.67 276.41 347.37 275.13 346.13 273.83C346.04 273.74 345.96 273.64 345.87 273.55C345.18 273.55 344.46 273.6 343.71 273.7C340.42 274.14 337.76 275.37 337.1 276.63L337.09 276.62Z" fill="#82C3DE"/>
<path d="M225.58 265.71C222.8 264.84 220.18 265.02 219.28 266.05C218.46 265.89 217.64 265.72 216.82 265.56L216.59 265.74C217.38 266.15 218.17 266.57 218.96 266.97C219.04 268.31 221.1 269.96 223.96 270.86C224.73 271.1 225.48 271.26 226.19 271.35L226.9 270.69C227.94 269.72 229.02 268.78 230.1 267.85C229.86 267.81 229.62 267.78 229.39 267.75C228.5 266.95 227.15 266.21 225.58 265.71Z" fill="#82C3DE"/>
<path d="M347.97 289.03C347.11 289.32 346.25 289.62 345.38 289.91C346.28 289.85 347.19 289.77 348.09 289.7C348.8 290.92 352.07 291.3 355.78 290.39C357.8 289.9 359.53 289.12 360.69 288.28C360.84 288.26 361 288.24 361.15 288.21C359.76 287.08 358.51 285.87 357.31 284.65C356.43 284.74 355.47 284.9 354.49 285.14C350.93 286.02 348.16 287.63 347.97 289.02V289.03Z" fill="#82C3DE"/>
<path d="M279.33 289.82C272.21 289.1 266.26 289.28 265.53 290.58C264.37 290.47 263.22 290.36 262.06 290.23C263.19 290.48 264.33 290.72 265.47 290.96C265.72 292.42 271.47 294.46 278.79 295.2C283.48 295.68 287.65 295.5 290.18 294.94C293.26 295.28 296.35 295.56 299.44 295.79C299.63 294.79 299.83 293.78 300.07 292.77C300.16 292.39 300.25 292.02 300.33 291.65C296.99 291.78 293.65 291.85 290.3 291.84C287.88 291.01 283.87 290.29 279.32 289.82H279.33Z" fill="#82C3DE"/>
<path d="M215.15 275.68C212.7 274.66 210.3 274.61 209.37 275.59C208.51 275.34 207.64 275.09 206.78 274.82C207.51 275.35 208.25 275.86 209 276.37C208.82 277.71 210.48 279.6 213.08 280.67C213.68 280.92 214.27 281.09 214.84 281.21C216.14 280.09 217.46 278.98 218.79 277.88C218.65 277.85 218.51 277.82 218.37 277.79C217.63 277 216.5 276.23 215.15 275.67V275.68Z" fill="#82C3DE"/>
<path d="M359.55 299.19C358.3 299.68 357.04 300.15 355.77 300.62C355.89 300.76 356.01 300.91 356.14 301.05C357.39 300.88 358.64 300.7 359.88 300.51C360.92 301.44 363.81 301.56 366.97 300.58C368.81 300.01 370.37 299.18 371.41 298.32C371.81 298.23 372.21 298.14 372.61 298.05C371.72 297.2 370.83 296.42 369.95 295.72C369.54 295.4 369.15 295.06 368.76 294.72C367.72 294.82 366.57 295.04 365.38 295.41C362.36 296.35 360.01 297.86 359.55 299.18V299.19Z" fill="#82C3DE"/>
<path d="M274.55 301.41C267.74 300.56 261.98 300.67 261.08 301.9C259.24 301.69 257.4 301.47 255.55 301.23C257.36 301.65 259.17 302.05 260.98 302.45C261.43 303.9 266.92 305.9 273.87 306.77C278.57 307.36 282.74 307.28 285.21 306.76C288.96 307.28 292.74 307.72 296.52 308.09C296.86 306.72 297.21 305.36 297.56 304C293.52 304.02 289.47 303.95 285.42 303.79C283.11 302.86 279.11 301.99 274.55 301.41Z" fill="#82C3DE"/>
<path d="M203.98 283.66C201.39 282.43 198.84 282.22 197.89 283.22C197.25 283 196.61 282.78 195.98 282.55C196.5 282.96 197.03 283.36 197.56 283.77C197.2 285.11 198.91 287.23 201.67 288.54C202.86 289.11 204.03 289.41 205.05 289.51C205.09 289.48 205.14 289.44 205.18 289.41C206.39 288.44 207.59 287.43 208.79 286.42C208.29 286.3 207.8 286.17 207.31 286.04C206.56 285.18 205.39 284.33 203.99 283.67L203.98 283.66Z" fill="#82C3DE"/>
<path d="M369.98 308.68C368.38 309.37 366.78 310.04 365.16 310.7C365.29 310.85 365.42 311.01 365.54 311.16C367.18 310.88 368.82 310.59 370.45 310.27C371.54 311.05 374.04 311.03 376.73 310.11C378.3 309.58 379.63 308.84 380.54 308.06C380.55 308.06 380.56 308.06 380.57 308.06C380.38 307.8 380.19 307.54 380.02 307.28C379.61 306.69 379.24 306.11 378.88 305.55C378.61 305.14 378.35 304.74 378.09 304.35C377.13 304.42 376.08 304.63 374.99 305C372.4 305.88 370.43 307.38 369.97 308.68H369.98Z" fill="#82C3DE"/>
<path d="M293.08 316.91C288.53 316.91 283.97 316.79 279.41 316.54C276.99 315.53 272.64 314.55 267.64 313.82C260.36 312.77 254.23 312.63 253.31 313.85C251.5 313.57 249.68 313.29 247.87 312.98C249.64 313.45 251.42 313.9 253.21 314.33C253.57 315.8 259.41 318.09 266.87 319.17C272.03 319.92 276.6 319.89 279.19 319.37C283.73 320.02 288.29 320.55 292.87 320.96C292.98 321.1 293.11 321.22 293.25 321.33C293.3 321.13 293.35 320.93 293.4 320.73C293.76 319.27 294.12 317.79 294.48 316.31C294.46 316.31 294.44 316.31 294.42 316.31C293.92 316.29 293.45 316.53 293.08 316.92V316.91Z" fill="#82C3DE"/>
<path d="M195.03 291.67C192.49 290.19 189.91 289.75 188.88 290.66C188.25 290.38 187.62 290.11 186.99 289.81C187.49 290.27 188 290.72 188.5 291.17C188.04 292.48 189.62 294.76 192.31 296.32C193.24 296.86 194.17 297.23 195.03 297.46C195.05 297.45 195.06 297.44 195.08 297.43C196.04 296.77 196.95 296.15 197.8 295.48C197.99 295.34 198.2 295.1 198.42 294.86C198.51 294.76 198.62 294.64 198.73 294.53C198.56 294.47 198.39 294.41 198.22 294.35C197.52 293.42 196.4 292.46 195.03 291.65V291.67Z" fill="#82C3DE"/>
<path d="M378.22 317.65C374.77 319.08 372.13 321 371.94 322.4C371.6 322.56 371.25 322.71 370.9 322.87C370.73 323.12 370.56 323.38 370.39 323.63C371 323.5 371.61 323.39 372.21 323.25C373.2 324.26 376.61 324.14 380.27 322.63C381.4 322.17 382.4 321.62 383.27 321.05C383.27 320.85 383.28 320.65 383.32 320.43C383.44 319.76 383.7 319.24 383.87 318.91C383.91 318.83 383.96 318.75 383.99 318.65C384.05 317.81 383.81 317.1 383.36 316.19C381.92 316.35 380.1 316.86 378.21 317.63L378.22 317.65Z" fill="#82C3DE"/>
<path d="M182.13 299.48C181.51 299.16 180.88 298.85 180.26 298.53C180.76 299 181.27 299.45 181.77 299.92C181.27 301.24 183.16 303.86 186.31 305.83C187.84 306.79 189.37 307.39 190.66 307.66C190.27 306.54 189.85 305.43 189.38 304.35L188.72 302.83L189.81 301.67C189.6 301.53 189.4 301.38 189.18 301.24C186.19 299.37 183.22 298.59 182.13 299.48Z" fill="#82C3DE"/>
<path d="M370.66 333.17C365.76 334.81 361.8 336.77 361.03 338.21C360.57 338.37 360.11 338.51 359.65 338.66C359.25 339.06 358.85 339.45 358.44 339.84C359.4 339.68 360.35 339.52 361.31 339.35C362.67 340.25 367.25 340 372.37 338.29C374.03 337.74 375.53 337.1 376.85 336.43C378.29 334.46 379.6 332.33 380.68 329.99C379.81 330.43 378.93 330.87 378.05 331.3C376.05 331.58 373.45 332.25 370.66 333.17Z" fill="#82C3DE"/>
<path d="M364.09 348.2C362.06 348.31 359.38 348.79 356.5 349.55C351.38 350.91 347.25 352.72 346.53 354.14C345.14 354.54 343.74 354.92 342.33 355.28C342.19 355.42 342.05 355.57 341.91 355.71C343.52 355.55 345.13 355.37 346.73 355.16C347.96 356.17 352.6 356.17 357.88 354.77C359.16 354.43 360.35 354.04 361.45 353.63C362.42 352.58 363.38 351.52 364.36 350.45C365.31 349.41 366.27 348.36 367.24 347.3L367.14 346.99C366.12 347.4 365.1 347.8 364.08 348.2H364.09Z" fill="#82C3DE"/>
<path d="M284.59 354.63C277.21 354.05 271.07 354.32 270.85 355.81C270.62 357.27 276.55 359.42 284.17 360.02C288.08 360.33 291.6 360.16 294.12 359.72C295.24 359.84 296.36 359.95 297.49 360.05C297.46 360.01 297.43 359.97 297.4 359.94C297.11 359.55 296.84 359.16 296.57 358.78C295.83 357.72 295.15 356.77 294.38 355.98C294.33 355.98 294.28 355.98 294.23 355.98C291.79 355.4 288.38 354.94 284.6 354.64L284.59 354.63Z" fill="#82C3DE"/>
<path d="M188.38 329.26C186.69 328.55 185.01 327.82 183.34 327.04C184.81 328.14 186.32 329.2 187.84 330.24C187.93 331.68 190.35 334.04 193.87 335.74C195.87 336.71 197.82 337.27 199.34 337.43C199.5 337.52 199.65 337.61 199.81 337.7C198.93 335.67 198.12 333.59 197.36 331.47C196.99 331.27 196.62 331.07 196.23 330.88C192.84 329.25 189.65 328.55 188.39 329.26H188.38Z" fill="#82C3DE"/>
<path d="M346.37 365.72C344.87 365.52 342.91 365.57 340.8 365.87C337.2 366.4 334.22 367.54 333.34 368.76C331.91 369.05 330.47 369.32 329.03 369.58C328.84 369.82 328.64 370.06 328.44 370.31C330.11 370.31 331.78 370.3 333.46 370.26C334.55 371.28 337.81 371.76 341.58 371.21C342.47 371.08 343.3 370.89 344.09 370.68C344.77 369.97 345.47 369.27 346.23 368.64C347.19 367.83 348.13 367 349.06 366.17L348.85 365.06C348.03 365.29 347.19 365.5 346.36 365.72H346.37Z" fill="#82C3DE"/>
<path d="M288.01 367.15C274.75 366.12 263.91 365.46 263.65 366.95C263.39 368.4 274.04 371.48 287.58 372.54C294.52 373.1 300.8 373.02 305.26 372.62C307.15 372.75 309.03 372.86 310.92 372.96C308.83 371.83 307.11 370.36 305.6 368.87C305.51 368.87 305.41 368.87 305.32 368.87C300.94 368.25 294.8 367.7 288.01 367.15Z" fill="#82C3DE"/>
<path d="M231.39 375.46C235.73 376.72 239.72 377.36 242.46 377.44C244.85 378.19 247.24 378.91 249.65 379.6L250.6 375.35C248.15 374.95 245.7 374.51 243.26 374.05C240.83 372.84 237.12 371.49 232.89 370.26C225.68 368.18 219.51 367.2 218.43 368.3C217.1 367.94 215.78 367.57 214.46 367.19C215.73 367.72 217 368.24 218.27 368.76C218.44 370.27 224.02 373.33 231.39 375.46Z" fill="#82C3DE"/>
<path d="M193.74 355.55C189.7 353.58 185.96 352.65 184.74 353.46C183.7 353.02 182.67 352.57 181.64 352.11C181.62 352.15 181.6 352.19 181.58 352.22C182.5 352.87 183.42 353.51 184.35 354.14C184.26 355.59 187.16 358.34 191.37 360.4C193.69 361.53 195.93 362.23 197.65 362.47C198.29 362.84 198.92 363.2 199.56 363.57C200.22 362.22 200.87 360.94 201.51 359.75C200.72 359.49 199.94 359.22 199.15 358.95C197.86 357.84 195.95 356.63 193.75 355.55H193.74Z" fill="#82C3DE"/>
<path d="M286.9 420.77C284.92 419.78 281.11 418.89 276.69 418.37C270.16 417.61 264.7 417.96 264.47 419.44C264.23 420.91 269.41 422.96 276.07 423.74C280.59 424.27 284.58 424.06 286.71 423.41C290.33 423.92 293.96 424.34 297.6 424.71C297.73 424.49 297.86 424.27 298 424.04C298.65 422.93 299.39 421.7 300.36 420.75C295.88 420.86 291.4 420.88 286.91 420.77H286.9Z" fill="#82C3DE"/>
<path d="M226.38 413C231.65 414.66 236.47 415.53 239.58 415.67C243.62 416.93 247.68 418.1 251.78 419.18L252.7 414.93C248.58 414.23 244.47 413.43 240.38 412.55C237.64 411.15 233.14 409.47 227.99 407.85C219.86 405.31 212.93 403.78 211.66 404.76C209.74 404.13 207.82 403.47 205.92 402.79C207.76 403.63 209.61 404.46 211.47 405.26C211.77 406.83 218.07 410.4 226.38 413Z" fill="#82C3DE"/>
<path d="M254.55 429.23C250.12 428.38 245.72 427.42 241.33 426.35C238.75 424.77 233.57 422.69 227.53 420.66C219.07 417.83 211.88 416.13 210.73 417.18C208.85 416.51 206.97 415.83 205.09 415.13C206.91 415.96 208.74 416.77 210.57 417.56C210.66 419.09 217.16 422.89 225.82 425.79C232 427.87 237.6 428.9 240.65 428.89C245.04 430.28 249.47 431.57 253.93 432.75C255 433.52 256.63 434.21 258.54 434.61C260.05 434.92 261.46 435 262.63 434.88C263.29 435.03 263.95 435.18 264.61 435.33C264.02 433.8 263.51 432.2 263.08 430.51C262.12 430.02 260.95 429.59 259.64 429.32C257.69 428.92 255.86 428.92 254.55 429.24V429.23Z" fill="#82C3DE"/>
<path d="M269.83 462.74C273.66 463.37 276.94 462.82 277.47 461.51C278.4 461.55 279.33 461.59 280.26 461.62C279.35 461.42 278.44 461.19 277.53 460.98C277.33 459.57 274.39 458.01 270.65 457.4C268.18 456.99 265.92 457.09 264.49 457.57C263.15 457.18 261.82 456.77 260.48 456.37C261.17 457.79 261.88 459.18 262.62 460.51C263.1 460.55 263.57 460.61 264.05 460.65C265.27 461.54 267.36 462.34 269.82 462.74H269.83Z" fill="#82C3DE"/>
<path d="M190.08 431.74C188.05 430.73 186.03 430.39 184.75 430.7C181.23 429.24 177.73 427.74 174.26 426.14C174.75 426.75 175.26 427.34 175.78 427.9C178.35 429.6 180.94 431.28 183.57 432.91C183.87 433.63 184.53 434.42 185.45 435.16C188.04 436.44 190.6 436.99 192.88 435.33L193.55 434.84C193.3 434.45 193.07 434.04 192.83 433.64C192.11 432.95 191.17 432.29 190.07 431.74H190.08Z" fill="#82C3DE"/>
<path d="M280.64 476.55C285.19 477.08 288.98 476.3 289.11 474.81C289.24 473.32 285.73 471.7 281.26 471.18C278.71 470.88 276.38 471.01 274.81 471.45C273.13 471.01 271.46 470.55 269.79 470.07L269.58 471.29C269.71 471.47 269.84 471.66 269.97 471.85C270.65 472.8 271.39 473.67 272.18 474.52C272.8 474.55 273.42 474.59 274.04 474.61C275.43 475.48 277.83 476.22 280.63 476.54L280.64 476.55Z" fill="#82C3DE"/>
<path d="M306.32 502.61C306.34 501.12 303.12 499.8 299.12 499.67C296.99 499.6 295.07 499.88 293.72 500.38C292.86 500.21 292 500.02 291.14 499.84C291.84 500.85 292.53 501.85 293.2 502.84C293.51 503.3 293.84 503.76 294.18 504.21C294.19 504.22 294.2 504.24 294.21 504.25C295.47 504.7 297.13 505 298.96 505.06C303.01 505.19 306.32 504.09 306.34 502.6L306.32 502.61Z" fill="#82C3DE"/>
<path d="M310.37 516.16C310.35 514.67 307.52 513.44 304.05 513.41C302.16 513.4 300.46 513.75 299.29 514.31L298.34 514.15C298.54 515.31 298.7 516.48 298.83 517.64C299.97 518.34 301.86 518.8 304.01 518.82C307.54 518.84 310.39 517.66 310.37 516.16Z" fill="#82C3DE"/>
<path d="M302.17 545.4C305.53 545.46 308.31 544.63 309.03 543.46C309.83 543.36 310.63 543.24 311.43 543.13C311.43 542.99 311.45 542.859 311.46 542.729C310.69 542.649 309.91 542.569 309.14 542.479C308.66 541.149 305.7 540.059 302.15 539.999C300.31 539.969 298.64 540.22 297.38 540.65C297.13 541.98 296.88 543.31 296.63 544.63C296.86 544.61 297.1 544.6 297.33 544.58C298.59 545.06 300.3 545.37 302.18 545.4H302.17Z" fill="#82C3DE"/>
<path d="M200.78 528.93C198.8 528.06 196.77 528.25 195.94 529.3L195.03 529.03C195.02 529.2 195.01 529.36 195 529.53L195.64 529.91C195.28 531.24 196.53 532.95 198.6 533.87C200.14 534.55 201.7 534.59 202.71 534.1L206.24 536.19C206.29 534.92 206.35 533.65 206.43 532.38L203.62 531.55C203.21 530.55 202.19 529.54 200.79 528.92L200.78 528.93Z" fill="#82C3DE"/>
<path d="M199.69 541.52C197.67 540.68 195.61 540.92 194.83 542.02L194.59 541.95C194.59 542.45 194.59 542.95 194.58 543.45C194.81 544.59 195.95 545.81 197.62 546.5C199.18 547.15 200.74 547.16 201.74 546.64L206.15 549.11C206.12 547.8 206.1 546.48 206.09 545.15L202.63 544.19C202.23 543.16 201.17 542.13 199.7 541.52H199.69Z" fill="#82C3DE"/>
<path d="M198.85 554.71C197.35 554.01 195.83 553.8 194.72 554.05C194.77 555.57 194.85 557.09 194.94 558.62C195.42 558.99 195.97 559.32 196.58 559.61C198.48 560.49 200.38 560.62 201.46 560.04L207.08 563.42C206.93 562.05 206.8 560.66 206.68 559.24L202.2 557.85C201.79 556.72 200.56 555.5 198.85 554.71Z" fill="#82C3DE"/>
<path d="M199.64 568.34C198.23 567.71 196.82 567.51 195.74 567.68C195.86 568.65 195.99 569.61 196.13 570.56L196.41 572.43C196.43 572.54 196.44 572.66 196.46 572.77C196.77 572.95 197.09 573.13 197.43 573.28C199.38 574.15 201.32 574.24 202.39 573.63L209.25 577.58C209.23 577.43 209.2 577.28 209.18 577.14C208.96 575.8 208.73 574.46 208.48 573.13L203.09 571.51C202.68 570.37 201.4 569.14 199.64 568.35V568.34Z" fill="#82C3DE"/>
<path d="M295.73 611.52C299.24 611.67 302.15 610.85 302.76 609.62C303.81 609.51 304.87 609.39 305.92 609.27C304.89 609.14 303.86 608.98 302.84 608.83C302.45 607.46 299.5 606.28 295.91 606.12C293.94 606.03 292.14 606.27 290.84 606.73C290.5 606.66 290.16 606.59 289.82 606.52C289.82 606.64 289.82 606.76 289.82 606.87C289.83 608.1 289.87 609.35 289.93 610.6C290.24 610.58 290.55 610.57 290.86 610.55C292.11 611.07 293.82 611.43 295.73 611.51V611.52Z" fill="#82C3DE"/>
<path d="M201.41 582.48C200.14 581.92 198.9 581.63 197.83 581.58C198.13 583.46 198.45 585.34 198.78 587.21C198.93 587.28 199.08 587.36 199.24 587.42C201.39 588.37 203.47 588.59 204.68 588.12C207.29 589.55 209.92 590.94 212.57 592.3C212.49 591.84 212.4 591.39 212.3 590.95C212.05 589.89 211.77 588.85 211.47 587.77C209.51 587.21 207.54 586.64 205.58 586.04C205.1 584.82 203.53 583.42 201.41 582.49V582.48Z" fill="#82C3DE"/>
<path d="M294.36 624.83C296.88 624.93 298.99 624.08 299.48 622.86L302.32 622.52L299.52 621.92C299.16 620.61 297.1 619.53 294.57 619.43C293.18 619.38 291.91 619.63 290.97 620.07L290.36 619.94C290.38 620.63 290.41 621.33 290.42 622.02C290.42 622.64 290.44 623.29 290.45 623.94L290.77 623.9C291.68 624.42 292.94 624.76 294.37 624.82L294.36 624.83Z" fill="#82C3DE"/>
<path d="M204.46 597.2C203.07 596.6 201.71 596.26 200.55 596.17C200.87 597.63 201.21 599.07 201.57 600.49C201.7 600.99 201.84 601.49 201.97 602C202.09 602.05 202.2 602.11 202.32 602.16C204.68 603.17 206.95 603.46 208.24 603.03C210.86 604.41 213.5 605.74 216.17 607.05C215.79 605.58 215.42 604.1 215.01 602.63C215.01 602.63 215.01 602.62 215.01 602.61C213.05 602.06 211.09 601.49 209.13 600.89C208.54 599.64 206.78 598.19 204.46 597.19V597.2Z" fill="#82C3DE"/>
<path d="M294.82 638.16C295.84 638.2 296.72 637.29 296.95 636.06L298.95 635.67L296.98 635.11C296.86 633.82 296.04 632.8 295.01 632.76C294.25 632.73 293.57 633.25 293.18 634.02L290.99 633.4C291.1 634.43 291.23 635.46 291.39 636.48L291.49 637.13L293.08 636.82C293.42 637.6 294.06 638.13 294.81 638.16H294.82Z" fill="#82C3DE"/>
<path d="M209.71 612.77C207.81 612.01 205.97 611.89 204.79 612.31C204.98 613.04 205.18 613.77 205.37 614.49C205.57 615.27 205.79 616.09 206.05 616.94C206.55 617.25 207.1 617.54 207.71 617.78C209.7 618.57 211.61 618.69 212.77 618.22C215.38 619.53 218.01 620.81 220.65 622.05C220.37 621.21 220.07 620.37 219.77 619.54C219.51 618.82 219.27 618.09 219.03 617.35C217.24 616.89 215.44 616.42 213.65 615.93C213.12 614.78 211.66 613.55 209.71 612.77Z" fill="#82C3DE"/>
<path d="M215.33 628.57C214.15 628.11 212.98 627.94 212.01 628.02L213.51 629.91H209.24C209.36 629.97 209.48 630.03 209.6 630.09C209.78 631.34 211.25 632.77 213.37 633.6C214.99 634.23 216.58 634.35 217.68 634.01C219.97 635.08 222.27 636.13 224.59 637.14C224.52 636.76 224.45 636.38 224.37 636C224.14 634.88 223.89 633.68 223.63 632.51C222 632.07 220.37 631.62 218.75 631.16C218.16 630.17 216.92 629.18 215.33 628.56V628.57Z" fill="#82C3DE"/>
</svg>
