<svg width="511" height="710" viewBox="0 0 511 710" fill="none" xmlns="http://www.w3.org/2000/svg">
<path fill-rule="evenodd" clip-rule="evenodd" d="M288.27 82.8804C289.6 82.6304 290.68 83.3904 290.87 84.6704C291.02 85.7104 290.43 86.4604 290.27 87.6104C290.19 88.1704 290.39 88.8104 290.27 89.1904C289.82 90.6304 287.34 90.9304 285.38 90.2404C284.83 90.0504 284.57 89.5104 283.98 89.1904C283.06 88.6804 282.42 89.0004 282.18 88.0304C281.65 85.8704 283.82 85.5204 284.97 84.8704C286.33 84.1104 286.91 83.1304 288.27 82.8704V82.8804Z" fill="black"/>
<path fill-rule="evenodd" clip-rule="evenodd" d="M242.33 90.5598C243.22 90.3598 244.01 90.4098 244.63 90.7698C245.77 91.4398 247.87 95.4498 246.53 97.2898C245.67 98.4698 242.9 99.4598 241.43 98.4498C240.84 98.0398 239.42 96.1198 239.24 95.2898C238.84 93.5198 239.62 92.7898 240.63 91.8198C241.35 91.1298 241.42 90.7698 242.33 90.5498V90.5598Z" fill="black"/>
<path fill-rule="evenodd" clip-rule="evenodd" d="M225.75 446.93C225.67 446.48 224.73 446.96 224.75 446.4C224.44 444.65 223.17 446.18 222.45 446.19C220.32 446.2 217.86 444.45 216.16 443.14C214.31 441.71 212.56 440.42 211.17 438.93C206.43 442.39 201.11 439.16 197.79 437.04C192.02 433.36 187.94 428.64 184.71 422.52C183.61 420.44 182.48 418.32 181.81 416.1C181.08 413.7 180.22 411.38 179.72 408.85C178.73 403.87 178.99 396.62 179.32 391.08C179.51 387.93 179.72 385.11 180.32 382.66C181.52 377.77 184.28 374.3 186.31 370.14C187.33 368.05 188.16 365.81 189.21 363.73C190.21 361.74 191.46 359.86 192.7 358.05C196.16 352.98 199.64 348.05 199.79 339.64C199.83 337.46 199.43 335.74 198.79 333.86C197.62 330.4 196.37 327.05 195.19 323.65C194.05 320.35 192.34 317.14 191.1 313.87C189.86 310.6 188.81 306.22 189.6 301.88C190.08 299.21 191.49 297.2 193.29 295.57C194.14 294.79 195.2 294.28 196.09 293.47C200.25 289.6 205.43 286.03 209.97 282.84C217.77 277.36 224.66 271.03 231.84 265.38C229.66 265.41 227.62 266.34 225.35 266.43C223.01 266.53 220.57 266.52 218.16 266.65C215.83 266.76 213.67 267.23 211.47 267.17C206.94 267.05 202.61 265.86 198.49 265.18C196.32 264.82 194.43 264.47 192.6 263.6C191.76 263.21 190.95 262.66 190.1 262.33C188.2 261.59 187.02 260.66 185.51 259.39C184.8 258.79 183.99 258.35 183.41 257.71C182.82 257.06 182.63 256.2 182.11 255.4C180.85 253.43 178.82 251.45 177.52 249.4C175.63 246.43 174.17 243.17 172.73 239.93C169.7 233.14 168.4 225.3 167.64 216.37C167.25 211.8 166.91 207.09 167.44 202.7C167.95 198.51 168.74 194.52 169.64 190.6C170.57 186.56 171.37 182.7 172.54 179.13C173.67 175.66 175.46 172.56 176.93 169.34C178.46 166 179.91 162.81 181.62 159.77C183.29 156.81 185.23 154.12 187.31 151.25C188.33 149.86 189.13 148.35 190.11 146.94C191.08 145.54 192.1 144.13 193.01 142.73C198.55 134.26 206.74 128.32 214.98 122.54C216.35 121.57 217.88 120.82 219.27 119.81C220.66 118.8 222.09 117.91 223.56 117.08C226.49 115.41 229.09 113.25 231.95 111.5C228.54 106.79 228.86 98.6001 229.65 91.4101C230.41 84.4801 232.71 78.3601 234.84 73.2101C234.94 72.4801 231.5 69.7901 232.55 68.4801C233.39 67.4301 235.4 69.0001 236.35 69.2101C236.81 68.1601 237 67.1501 237.34 66.0501C237.57 65.3301 238.57 63.5201 238.44 62.8901C237.8 59.8101 236.48 56.4101 236.24 53.0101C236.46 52.8501 236.93 53.5001 237.34 53.8501C238.51 54.8601 239.86 56.1901 240.84 57.4301C243.39 53.9401 246.29 50.8301 250.33 48.9101C250.56 45.4301 250.69 41.5401 251.13 38.6001C252.23 39.5101 253.02 40.9401 253.73 42.2801C254.44 43.6301 254.9 45.2501 255.53 46.7001C259.04 45.6601 262.26 44.3201 266.02 43.5401C265.71 40.3701 265.5 37.0601 265.72 33.8701C268.25 35.6301 268.79 39.4801 270.31 42.2901C272.63 41.7901 274.52 40.3901 277.2 40.6101C277.51 37.4201 278.33 34.7701 278.4 31.8701C279.71 34.0701 280.25 37.0801 280.8 40.0801C285.49 39.6301 287.54 41.9601 290.48 43.3401C291.63 42.8601 292.69 41.9101 293.78 41.0301C294.86 40.1501 296.15 39.4901 296.97 38.4001C297.11 41.1701 295.93 43.4601 295.17 45.6501C298.4 47.6501 301.91 49.3501 304.16 52.3801C306.67 51.5201 309.87 50.3101 312.15 50.1801C312.36 50.8401 311.47 51.2201 311.05 51.6501C310.1 52.6401 309.09 53.5901 308.06 54.6001C307.57 55.0801 307.04 55.5801 306.76 56.0701C307.21 58.2301 308.36 59.6501 309.06 61.5401C311 61.4701 313.15 61.0301 314.65 61.1301C314.71 62.3001 313.56 62.9501 312.75 63.5501C311.9 64.1801 310.88 64.7101 310.06 65.2301C310.72 67.5201 311.36 69.8201 312.05 72.0701C313.82 72.7901 315.68 73.4301 316.64 75.0201C315.62 75.8001 313.64 75.2601 312.65 75.8601C313.52 80.6501 313.87 86.1501 314.34 91.8501C314.68 96.0101 314.57 100.06 315.34 103.84C315.6 105.1 315.66 106.5 316.04 107.52C316.39 108.46 317.82 109.93 318.44 110.88C318.83 111.48 319.28 111.98 319.64 112.56C320.02 113.2 320.2 113.92 320.54 114.55C321.18 115.75 322.19 116.6 322.84 117.71C323.49 118.84 323.97 120.2 324.53 121.39C325.64 123.74 326.09 126.93 326.53 130.23C326.76 131.99 327.04 133.63 327.03 135.28C327.02 136.9 326.56 138.3 326.23 139.91C325.62 142.89 325.26 145.91 323.93 148.43C320.84 154.29 317.39 160.12 311.25 162.63C310.61 162.89 309.88 162.99 309.25 163.26C308.65 163.53 308.16 163.97 307.56 164.21C305.1 165.19 302.29 165.77 299.27 166.42C300.87 171.53 302.31 176.66 303.26 181.98C303.97 185.94 305.39 189.57 306.05 193.87C306.27 195.28 306.26 196.77 306.55 198.18C306.82 199.49 307.63 200.84 308.15 202.17C309.62 205.96 311.9 209.64 313.84 213.01C316.51 217.64 321.06 220.42 324.82 223.95C326.7 225.7 328.38 227.76 330.31 229.42C332.3 231.11 334.39 232.6 336.3 234.36C338.26 236.16 339.6 238.18 340.79 240.88C341.94 243.49 343.19 246.19 343.99 248.98C346.53 251.56 348.81 254.28 350.88 257.28C352.92 260.23 355.37 262.85 357.67 265.59C359.99 268.37 362.28 271.08 364.76 273.7C367.18 276.24 369.8 278.65 372.45 281.07C375.04 283.42 377.34 286.26 380.24 288.43C383.04 290.52 385.52 293.15 388.33 295.36C390.92 297.41 393.52 300.07 395.82 302.93C396.91 304.29 397.79 305.82 398.91 307.46C400.3 309.48 402.3 311.69 401.21 314.4C402.18 316.32 403.5 318 403.31 320.5C403.24 321.35 402.75 321.76 402.61 322.5C402.53 322.91 402.69 323.62 402.61 324.18C402.54 324.69 402.25 325.27 402.11 325.86C400.08 334.61 395.17 340.75 390.03 346.17C381.53 355.12 373.96 364.34 364.67 372.15C361.61 374.72 359.25 378.25 356.78 381.41C354.26 384.63 351.65 387.76 348.89 390.66C346.08 393.62 343.12 396.36 340.6 399.51C338.78 405.17 334.94 409.18 331.31 413.29C328.49 416.48 325.94 419.28 322.43 421.71C321.33 422.46 320.03 423.11 319.03 424.02C317.95 425 317.1 426.79 316.24 428.12C314.45 430.87 312.84 433.91 309.65 435.06C308.14 435.61 305.74 435.4 303.36 435.38C299.75 435.34 296.01 433.78 291.98 433.48C287.88 433.17 284.79 431.92 281.99 430.12C284.48 441.48 291.3 449.03 296.97 456.84C298.22 458.55 299.46 460.21 300.97 461.57C302.48 462.93 303.83 464.42 305.16 465.99C307.84 469.11 310.67 472.03 312.85 475.66C315.12 479.44 317.41 482.85 319.64 486.29C320.82 488.1 322.02 489.86 322.84 491.86C323.67 493.89 324.28 496.03 325.13 498.28C326.79 502.63 328.42 506.75 329.52 511.42C330.62 516.08 330.84 521.25 331.22 527.41C331.26 528.17 331.5 528.68 331.52 529.52C331.62 533 330.92 536.66 330.92 540.36C330.92 544.06 330.55 547.67 330.32 551.19C329.85 558.54 329.66 565.7 328.93 572.65C328.58 576 327.85 579.41 327.73 582.85C327.61 586.39 326.96 589.85 326.83 593.37C326.77 595.1 326.44 596.77 326.23 598.53C326.02 600.31 326.11 602.18 326.03 604C325.89 607.51 325.22 611.01 326.13 614.52C327.57 612.59 328.8 610.58 330.22 608.63C331.64 606.69 332.62 604.34 333.82 602.22C335.02 600.07 336.16 597.87 337.32 595.69C337.89 594.63 338.53 593.63 339.12 592.54C339.71 591.45 340.02 590.18 340.62 589.06C341.76 586.93 343.11 584.88 344.41 582.85C347.05 578.78 349.31 574.54 352.3 570.76C353.01 569.87 353.67 568.87 354.4 567.91C355.1 566.99 356 566.12 356.6 565.17C358.1 562.81 358.77 559.55 361.79 558.66C366.09 553.33 371.22 549.72 377.27 546.98C378.79 546.29 380.41 545.66 381.86 544.78C384.63 543.1 387.61 541.55 390.95 540.36C392.58 539.78 394.31 539.39 396.05 538.78C397.88 538.12 399.67 537.96 401.84 537.84C403.68 537.72 405.52 536.92 407.23 536.57C409.39 536.13 411.24 535.83 413.22 535.84C417.08 535.86 421.01 537.28 424.4 538.05C426.39 538.49 427.53 539.2 429.2 539.94C432.2 541.28 434.8 543.55 436.29 546.47C439.63 553.01 439.48 562.46 437.59 570.14C435.76 577.57 433.38 584.67 430.4 590.55C429.64 592.04 428.95 593.66 428.1 595.17C427.31 596.59 426.32 597.93 425.5 599.37C423.78 602.38 422.71 605.83 420.81 608.42C418.86 611.06 416.81 613.56 414.92 616.2C413.97 617.53 413.18 618.98 412.22 620.3C410.32 622.94 408.3 625.38 406.43 628.19C405.54 629.52 404.38 630.67 403.44 631.98C402.52 633.25 401.3 634.42 400.24 635.65C397.1 639.3 393.76 642.67 390.66 646.49C389.64 647.74 388.43 648.85 387.36 650.07C386.31 651.28 385.14 652.43 384.07 653.54C381.8 655.88 379.82 658.47 377.38 660.48C376.14 661.5 374.91 662.6 373.69 663.64C372.46 664.68 371.15 665.55 369.89 666.59C367.42 668.63 365.21 670.98 362.7 673C360.23 675 357.66 676.92 355.11 678.9C352.57 680.87 349.98 682.64 347.62 685C345.32 687.31 342.81 689.2 340.23 691.21C338.94 692.21 337.8 693.38 336.43 694.26C332.39 696.87 328.06 699.49 322.85 700.89C320.84 701.43 319.03 701.78 317.06 701.63C315.18 701.48 313.67 700.79 311.67 700.36C308 699.57 304.19 698.64 300.99 697.62C299 697 297.2 696.8 295.6 696.26C292.6 695.25 289.71 692.87 287.91 690.47C286.93 689.18 286.35 687.86 285.52 686.05C284.44 683.72 282.91 681.16 282.23 678.59C280.91 673.65 282.89 669.32 284.32 665.44C285.36 662.64 286.79 660.4 288.22 658.4C291.35 654.02 294.25 649.99 298.4 646.93C299.23 644.27 301.74 643.37 303.6 641.78C304.24 640.6 305.06 639.59 305.8 638.51C305.04 633.69 304.85 628.64 304.8 623.69C304.75 618.62 304.25 613.57 304.2 608.54C304.15 603.51 304.66 598.61 305.2 593.72C305.73 588.88 306.06 584.05 306.5 579.31C306.94 574.49 307.57 569.73 308 565C308.21 562.59 308.4 560.29 308.8 557.96C309.9 551.37 311.28 544.87 312.49 538.18C313.33 533.58 313.92 528.92 313.59 523.77C313.31 519.34 312.73 513.76 311.09 510.52C310.24 508.83 309.01 507.4 308 505.89C305 501.43 301.53 496.74 298.71 492.01C296.82 488.83 294.41 485.96 292.12 483.17C289.77 480.31 287.03 478.02 284.83 474.96C280.6 469.08 276.53 462.85 273.44 455.41C272.78 453.82 271.99 451.92 270.75 450.36C270.27 449.75 269.65 449.14 269.05 448.15C268.6 447.41 267.55 446.21 267.25 446.15C266.4 445.98 265.6 447.08 264.76 447.52C264.16 447.84 263.43 447.97 262.66 448.26C260.46 449.11 258 450.03 255.37 450.47C251.67 451.1 247.65 451.43 243.79 451.42C242.11 454.71 241.05 458.29 239.89 461.84C238.74 465.36 237.34 468.81 236.1 472.36C234.24 477.62 232.35 482.98 230.81 488.55C230.28 490.46 230.12 492.5 229.71 494.55C228.92 498.54 228.12 502.66 227.81 507.06C227.51 511.32 226.9 515.67 226.51 520.1C226.12 524.61 226.1 529.27 225.81 533.88C224.98 547.49 225.55 562.4 227.81 574.28C228.58 578.31 229.09 582.48 230.1 586.38C230.6 588.3 231.15 590.13 231.6 592.05C232.05 593.99 232.27 596.02 232.7 598.05C233.09 599.89 233.77 601.72 234.3 603.63C235.86 609.27 237.07 615.08 238.99 620.35C240.17 623.59 241.41 627.41 242.38 631.29C242.83 633.08 243.27 635.17 243.68 637.17C244.11 639.25 244.38 641.42 245.07 642.85C245.73 644.22 247.69 646.01 248.77 647.06C251.43 649.64 252.75 653.32 254.66 656.84C255.56 658.51 256.19 660.61 256.65 662.74C258.83 672.68 253.37 681.41 249.26 686.08C244.58 691.42 237.14 694.78 229.49 697.24C225.66 698.46 221.35 699.37 216.91 699.98C212.35 700.6 207.54 701.11 202.93 701.24C200.62 701.3 198.24 701.69 195.84 701.87C194.64 701.96 193.54 701.64 192.34 701.55C191.18 701.47 190.02 701.75 188.85 701.87C184.04 702.32 179.26 702.5 174.27 702.5C169.28 702.5 164.63 703.03 159.79 703.03C149.93 703.02 140.58 703.51 130.84 704.28C126.14 704.65 121.14 704.21 116.16 703.97C111.14 703.72 106.08 703.9 101.68 703.24C97.5099 702.6 93.5399 700.94 90.6999 698.82C89.1599 697.67 87.8699 696.32 86.4099 695.24C84.8699 694.11 83.5099 692.81 82.4199 691.45C80.0399 688.53 78.7199 685.14 77.8199 680.31C77.3699 677.85 77.5199 675.8 77.9199 673.27C78.2899 670.9 78.5699 668.64 79.4199 666.85C82.9299 659.45 88.3399 655.66 95.2999 651.59C96.1299 651.11 97.0299 650.74 97.7999 650.22C99.9699 648.76 102.35 646.83 104.69 645.49C107.91 643.65 111.41 642.01 114.67 640.02C117.98 638.01 121.4 636.04 124.95 634.86C128.79 633.6 132.64 632.38 136.34 630.87C139.96 629.38 143.46 627.68 147.32 626.45C151.08 625.26 155.07 623.84 159.2 622.98C161.37 622.53 163.68 622.45 165.99 622.14C168.27 621.82 170.51 621.4 172.78 621.3C175.28 621.18 177.76 621.26 180.17 621.08C182.5 620.93 184.77 620.72 187.06 620.77C191.66 620.86 196.07 621.57 200.64 622.45C209.17 624.09 218.19 625.38 225 628.98C225.08 629 225.1 629.08 225.2 629.08C222.49 625.65 220.96 621.33 219.81 616.77C218.65 612.22 217.23 607.54 216.01 602.77C213.58 593.22 212.08 582.92 210.52 572.59C208.9 561.87 208.78 550.03 209.02 538.61C209.14 532.87 209.63 527.21 210.02 521.68C210.22 518.85 210.24 516.1 210.62 513.38C210.98 510.8 211.54 508.24 211.82 505.69C211.94 504.55 211.85 503.46 212.02 502.33C213.1 494.94 214.79 487.34 216.22 480.24C217.06 476.04 217.95 471.9 218.82 467.83C219.05 466.75 219.15 465.7 219.42 464.68C219.66 463.76 220.11 462.88 220.42 461.94C221.03 460.02 221.4 458.09 221.81 456.16C222.57 452.7 224.41 449.79 225.8 447.01L225.75 446.93ZM291.96 54.0601C291.67 54.6401 291.32 55.1401 290.76 55.4201C284.01 66.8801 275.72 78.8201 268.7 90.3401C268.19 91.1701 267.79 92.2401 267.3 92.7601C266.94 93.1501 266.21 93.4401 265.7 93.9101C264.36 95.1801 262.61 96.4001 260.51 96.6501C257.48 97.0001 257.02 95.6801 255.52 94.3401C252.04 91.2201 249.98 87.1701 246.54 83.9301C244.27 81.7901 241.78 79.9001 239.55 77.9301C239.31 77.7201 239.08 77.1801 238.65 77.3001C237.22 82.1401 235.05 87.8001 234.66 93.9101C234.52 96.0501 234.33 98.3901 234.36 100.54C234.41 104.02 235.47 106.43 236.36 109.17C239.99 106.87 244.34 104.83 249.14 103.38C253.92 101.94 258.93 100.36 264.61 100.33C270.65 100.29 276.42 101.03 281.99 102.22C282.52 101.66 282.47 100.48 283.29 100.22C284.02 100.54 284.75 100.75 284.89 101.48C286.22 102.14 287.21 103.09 288.98 103.27C293.94 103.78 297.29 100.79 300.07 98.5301C300.92 97.8501 302.76 96.8501 302.97 96.1201C303.24 95.1401 302.87 93.0101 302.87 91.8101V87.2901C302.87 80.7901 302.09 76.6601 300.97 71.7201C299.43 64.9601 297.07 57.7001 293.58 53.4201C293.48 53.4201 293.46 53.3401 293.38 53.3201C292.92 53.5701 292.58 53.9501 291.99 54.0501L291.96 54.0601ZM307.24 108.54C309.6 112.65 312.36 116.81 314.13 121.48C315.92 126.21 318.48 130.58 320.42 135.15C320.32 131.4 319.49 127.4 318.92 124.32C318.78 123.57 318.87 122.73 318.72 122.01C318.56 121.19 317.74 120.02 317.22 118.96C315.38 115.14 313.49 111.65 310.33 109.7C309.39 109.12 308.32 108.19 307.14 108.23C307.14 108.37 307.18 108.46 307.24 108.55V108.54ZM301.34 115.7C306.8 126.5 310.56 139.09 314.52 151.47C316.69 149.12 318.58 145.57 319.41 141.47C316.89 136.63 314.39 131.34 311.83 126.11C311.17 124.77 310.86 123.25 310.23 121.9C308.36 117.89 306.29 114.21 304.14 110.64C304.14 110.58 304.13 110.52 304.04 110.54C303.17 112.28 302.12 113.84 301.34 115.69V115.7ZM295.06 126.22C300.1 135.56 302.69 147.38 304.94 159.56C307.27 158.4 308.88 156.48 311.03 155.14C307.41 142.65 303.47 130.5 299.15 118.75C297.71 121.16 296.25 123.55 295.05 126.22H295.06ZM290.76 136.63C292.44 139.06 292.41 142.26 292.76 145.78C293.17 149.94 294.22 154.67 294.16 159.14C295.64 160.34 297.8 162.32 300.15 161.03C299.32 149.25 296.89 139.14 293.06 130.53C292.26 132.53 291.64 134.71 290.76 136.63ZM288.07 144.52C287.73 145.53 287.02 146.85 287.07 147.88C287.1 148.46 287.56 149.36 287.77 150.09C288.24 151.74 288.82 152.87 289.47 154.19C289.76 154.79 290.01 155.81 290.46 155.67C290.03 150.86 289.62 146.03 289.16 141.26C288.87 142.33 288.46 143.35 288.06 144.52H288.07ZM281.78 168.61V169.24C280.17 173.6 279.29 178.4 278.38 183.44C277.03 190.94 278.25 199.79 276.88 206.69C276.15 210.37 274.93 213.7 273.89 217.21C271.78 224.3 269.29 230.55 265.6 235.82C269.03 233.3 272.17 230.37 275.48 227.52C278.74 224.7 282.51 222.44 285.67 219.53C288.83 216.61 290.99 213.06 293.16 209.11C293.89 207.78 295.45 205.85 295.46 204.48C295.46 203.41 294.78 201.64 294.46 200.38C292.01 190.44 288.98 181.49 286.77 171.66C285.19 170.49 284.33 168.56 281.88 168.3C281.76 168.32 281.77 168.47 281.78 168.62V168.61ZM228.95 347C230.08 344.7 230.91 342.29 232.05 340.06C235.4 333.46 239.73 327.52 243.13 321.13C244.3 318.94 245.37 316.71 246.63 314.6C249.1 310.46 251.94 306.56 254.42 302.42C256.85 298.33 259.08 293.96 261.81 289.89C264.54 285.82 266.69 281.18 268.4 276.43C270.17 271.53 271.87 266.57 273.59 261.49C275.25 256.57 277.35 251.67 278.58 246.35C278.63 246.35 278.69 246.26 278.58 246.25C276.62 247.65 274.55 249.23 272.49 250.66C270.56 252.01 268.44 253.21 266.8 254.87C265.66 256.03 264.75 257.33 263.6 258.45C257.87 264.02 251.24 268.72 245.43 274.13C243.06 276.33 240.74 278.52 238.24 280.54C233.28 284.56 228.56 288.93 223.56 292.95C221.68 294.47 219.66 295.85 217.87 297.37C217.27 297.87 216.79 298.56 216.17 299.04C213.65 301.04 210.75 302.54 208.48 304.94C210.21 308.9 211.34 313.17 212.57 317.45C213.83 321.85 214.52 326.41 215.96 330.7C218.72 338.92 222.83 346.43 225.95 353.95C226.73 351.51 227.84 349.24 228.94 347.01L228.95 347ZM322.92 261.8C322.53 264.3 321.89 266.82 321.52 269.38C320.73 274.84 321.14 280.67 320.72 286.63C320.53 289.4 319.98 292.2 319.32 294.94C318.68 297.64 318.31 300.43 317.62 303.04C313.52 318.62 309.95 334.93 305.74 349.85C307.51 350.57 308.41 352.57 309.83 353.64C310.52 354.16 311.24 354.33 311.83 354.79C313.68 356.22 314.78 358.07 316.22 360.05C317.97 362.45 320.24 364.6 322.31 366.78C324.49 369.06 326.52 371.15 329.3 372.56C332.03 373.95 335.62 373.89 338.88 375.61C341.07 373.6 342.64 370.98 344.57 368.77C346.51 366.56 348.51 364.35 350.36 362.04C352.22 359.71 354.59 358 356.65 355.82C358.72 353.64 360.9 351.66 362.94 349.52C367.03 345.22 371.72 341.64 375.82 337.32C379.94 332.99 382.49 327.49 386.01 322.5C384.04 319.01 381.9 315.98 379.32 313.02C378.08 311.62 376.87 310.06 375.52 308.72C374.15 307.36 372.67 306.19 371.43 304.73C368.98 301.84 366.55 298.94 363.74 296.31C362.35 295 360.85 293.79 359.55 292.41C358.22 291.02 357.06 289.46 355.65 288.21C352.8 285.67 349.74 283.48 346.86 280.95C344.02 278.46 341.48 275.52 338.67 272.96C337.32 271.73 336.15 270.11 334.97 268.54C331.49 263.91 327.36 259.69 324.79 254.34C324.79 254.27 324.77 254.21 324.69 254.24C323.7 256.63 323.31 259.12 322.89 261.81L322.92 261.8Z" fill="black"/>
<path fill-rule="evenodd" clip-rule="evenodd" d="M166.85 189.43L170.45 191.87C184.03 170.54 198.88 149.94 215.95 131.13C197.83 148.93 181.73 168.77 166.85 189.42V189.43Z" fill="#82C3DE"/>
<path fill-rule="evenodd" clip-rule="evenodd" d="M166.76 209.04L170.54 211.2L176.96 200.02L180.17 194.42C181.24 192.55 182.3 190.68 183.44 188.85C187.91 181.5 192.55 174.24 197.37 167.11C207.01 152.84 217.44 139.08 228.86 126.13C216.91 138.59 205.87 151.94 195.6 165.85C190.46 172.8 185.49 179.89 180.69 187.09C179.47 188.88 178.33 190.72 177.17 192.54L173.7 198.03L166.76 209.02V209.04Z" fill="#82C3DE"/>
<path fill-rule="evenodd" clip-rule="evenodd" d="M170.22 227.189L174.29 228.729C176.05 223.829 177.92 218.989 180.1 214.299C181.18 211.949 182.34 209.649 183.58 207.379L187.36 200.489C192.43 191.329 197.62 182.229 203.06 173.279C208.5 164.339 214.17 155.529 220.17 146.939C226.19 138.369 232.54 130.009 239.28 121.979C232.26 129.779 225.62 137.919 219.29 146.299C212.98 154.699 206.99 163.339 201.22 172.119C195.46 180.909 189.93 189.849 184.53 198.859L180.51 205.629C179.16 207.919 177.88 210.259 176.68 212.639C174.27 217.389 172.19 222.279 170.23 227.179L170.22 227.189Z" fill="#82C3DE"/>
<path fill-rule="evenodd" clip-rule="evenodd" d="M175.52 246.97L179.58 248.55C188.23 225.3 198.38 202.59 210.26 180.76C213.22 175.3 216.29 169.9 219.45 164.55C222.6 159.19 225.81 153.86 229.13 148.6C235.75 138.08 242.84 127.83 250.85 118.29C242.57 127.59 235.16 137.66 228.22 148C224.75 153.17 221.38 158.42 218.06 163.69C214.73 168.96 211.49 174.29 208.36 179.69C195.8 201.25 184.92 223.82 175.53 246.96L175.52 246.97Z" fill="#82C3DE"/>
<path fill-rule="evenodd" clip-rule="evenodd" d="M185.53 259.61L189.68 260.93C197.51 235.14 207.01 209.82 218.6 185.44C230.18 161.07 243.89 137.65 259.86 115.81C243.31 137.21 228.94 160.32 216.65 184.48C204.35 208.65 194.11 233.86 185.53 259.61Z" fill="#82C3DE"/>
<path fill-rule="evenodd" clip-rule="evenodd" d="M198.57 264.81L202.87 265.52C204.91 252.16 208.82 239.07 213.61 226.31C216.01 219.92 218.6 213.61 221.31 207.31C224 200.98 226.48 194.58 229.12 188.27C234.36 175.62 239.83 163.06 246.14 150.91C252.4 138.74 259.59 127.03 267.93 116.14C259.31 126.8 251.78 138.35 245.18 150.4C238.53 162.42 232.71 174.88 227.12 187.41C224.3 193.67 221.66 200 218.82 206.21C215.94 212.43 213.16 218.74 210.57 225.12C205.39 237.88 201.04 251.1 198.57 264.81Z" fill="#82C3DE"/>
<path fill-rule="evenodd" clip-rule="evenodd" d="M212.95 265.02L217.26 265.66C219.02 252.63 222.54 239.85 226.82 227.3C231.1 214.74 236.07 202.39 240.71 189.86C245.11 177.27 249.65 164.79 255.08 152.63C260.49 140.49 266.73 128.68 274.19 117.63C266.44 128.47 259.85 140.14 254.1 152.17C248.32 164.2 243.4 176.65 238.68 189.09C233.73 201.42 228.41 213.66 223.75 226.2C219.09 238.73 215.13 251.66 212.96 265.01L212.95 265.02Z" fill="#82C3DE"/>
<path fill-rule="evenodd" clip-rule="evenodd" d="M227.44 264.53L231.68 265.52C237.15 240.48 243.41 215.61 251.26 191.2C259.11 166.81 268.56 142.87 280.35 120.05C267.92 142.53 257.76 166.25 249.2 190.5C240.63 214.76 233.63 239.56 227.44 264.52V264.53Z" fill="#82C3DE"/>
<path fill-rule="evenodd" clip-rule="evenodd" d="M242.95 257.929L247.2 258.859C251.91 235.619 257.04 212.469 263.42 189.629C269.81 166.809 277.46 144.299 287.25 122.659C276.8 143.989 268.44 166.329 261.33 189.009C254.22 211.709 248.37 234.789 242.94 257.919L242.95 257.929Z" fill="#82C3DE"/>
<path fill-rule="evenodd" clip-rule="evenodd" d="M260.92 236.369L265.18 237.249C270.27 209.069 275.34 180.879 283.97 153.529C273.96 180.409 267.42 208.489 260.91 236.369H260.92Z" fill="#82C3DE"/>
<path fill-rule="evenodd" clip-rule="evenodd" d="M97.8201 703.77L101.23 701.06C94.7901 694.12 89.0201 686.449 84.4301 677.979C87.6901 687.039 92.3201 695.69 97.8201 703.77Z" fill="#82C3DE"/>
<path fill-rule="evenodd" clip-rule="evenodd" d="M118.26 705.94L121.38 702.9C110.59 692.87 101.39 680.9 94.8701 667.39C100.05 681.47 108.16 694.55 118.26 705.94Z" fill="#82C3DE"/>
<path fill-rule="evenodd" clip-rule="evenodd" d="M136.21 704.749L139.23 701.619C132.37 695.509 125.86 688.999 119.99 681.909C114.12 674.829 108.89 667.159 104.73 658.869C108.23 667.459 112.88 675.599 118.26 683.229C123.64 690.869 129.73 697.999 136.21 704.749Z" fill="#82C3DE"/>
<path fill-rule="evenodd" clip-rule="evenodd" d="M153.87 703.269L157.18 700.449C149.89 692.459 142.28 684.909 135.07 676.989C127.87 669.079 121.05 660.779 115.57 651.529C120.42 661.129 126.72 669.969 133.41 678.399C140.11 686.839 147.22 694.919 153.87 703.269Z" fill="#82C3DE"/>
<path fill-rule="evenodd" clip-rule="evenodd" d="M171.82 702.359L175.12 699.519C170.87 695.089 166.67 690.619 162.4 686.239C158.11 681.889 153.79 677.589 149.57 673.199C141.12 664.449 133 655.329 126.23 645.159C132.38 655.719 140.01 665.379 147.96 674.659C151.94 679.309 156 683.869 160.01 688.459C164 693.059 167.88 697.729 171.82 702.349V702.359Z" fill="#82C3DE"/>
<path fill-rule="evenodd" clip-rule="evenodd" d="M190 702.249L193.31 699.419C174.85 678.939 154.48 660.579 137.16 639.279C153.33 661.469 172.84 681.059 190 702.249Z" fill="#82C3DE"/>
<path fill-rule="evenodd" clip-rule="evenodd" d="M207.43 702.01L210.86 699.33C201.29 687.65 190.96 676.68 180.39 666.02C169.82 655.35 159.02 644.96 148.52 634.25C158.49 645.45 168.79 656.38 178.81 667.52C188.83 678.66 198.55 690.04 207.43 702.01Z" fill="#82C3DE"/>
<path fill-rule="evenodd" clip-rule="evenodd" d="M222.68 699.49L226.3 697.07C217.27 684.21 206.74 672.58 195.63 661.69C184.51 650.78 172.81 640.569 161.23 630.229C172.32 641.099 183.53 651.85 194.07 663.21C204.6 674.55 214.46 686.52 222.68 699.49Z" fill="#82C3DE"/>
<path fill-rule="evenodd" clip-rule="evenodd" d="M235.85 694.02L239.61 691.82C231.39 678.5 220.84 666.96 209.56 656.48C198.26 645.98 186.18 636.48 174.26 626.8C185.71 637.03 197.33 647.1 208.04 658.03C218.73 668.94 228.54 680.78 235.86 694.01L235.85 694.02Z" fill="#82C3DE"/>
<path fill-rule="evenodd" clip-rule="evenodd" d="M247.57 686.13L251.32 683.919C243.79 671.869 234.52 661.08 224.31 651.43C214.09 641.77 202.91 633.249 191.29 625.479C202.49 633.839 213.17 642.899 222.77 652.969C232.36 663.029 240.88 674.09 247.57 686.13Z" fill="#82C3DE"/>
<path fill-rule="evenodd" clip-rule="evenodd" d="M254.74 671.079L258.32 668.599C246.36 652.609 231.54 639.019 215.1 628.199C230.7 640.199 244.29 654.699 254.75 671.079H254.74Z" fill="#82C3DE"/>
<path fill-rule="evenodd" clip-rule="evenodd" d="M436.77 570.98L440.62 568.96C437.09 563.79 433.25 558.89 429.18 554.25C432.05 559.71 434.6 565.3 436.76 570.98H436.77Z" fill="#82C3DE"/>
<path fill-rule="evenodd" clip-rule="evenodd" d="M430.14 584.45L434.01 582.46C428.32 572.97 421.94 563.93 414.88 555.55C420.77 564.79 425.84 574.48 430.13 584.45H430.14Z" fill="#82C3DE"/>
<path fill-rule="evenodd" clip-rule="evenodd" d="M423.42 598.02L427.34 596.12C420.22 583.08 412.23 570.42 402.68 559.12C411.07 571.31 417.68 584.51 423.43 598.02H423.42Z" fill="#82C3DE"/>
<path fill-rule="evenodd" clip-rule="evenodd" d="M416.22 610.56L420.12 608.62C411.69 593.27 402.49 578.27 391.74 564.51C401.31 579.12 409.16 594.69 416.22 610.56Z" fill="#82C3DE"/>
<path fill-rule="evenodd" clip-rule="evenodd" d="M408.73 622.17L412.72 620.44C404.27 602.84 393.51 586.62 381.8 571.29C392.32 587.46 401.77 604.37 408.72 622.18L408.73 622.17Z" fill="#82C3DE"/>
<path fill-rule="evenodd" clip-rule="evenodd" d="M400.9 632.59L404.79 630.64C395.03 612.79 384.48 595.35 372.65 578.86C383.26 596.15 392.49 614.2 400.89 632.59H400.9Z" fill="#82C3DE"/>
<path fill-rule="evenodd" clip-rule="evenodd" d="M392.77 641.96L396.65 639.99C386.53 621.65 374.97 604.27 363.1 587.16C373.75 605.05 384.05 623.17 392.77 641.96Z" fill="#82C3DE"/>
<path fill-rule="evenodd" clip-rule="evenodd" d="M384.34 650.42L388.16 648.33C377.59 630.51 366.28 613.2 354.96 595.92C365.04 613.95 375.1 632 384.34 650.42Z" fill="#82C3DE"/>
<path fill-rule="evenodd" clip-rule="evenodd" d="M376.07 658.94L379.79 656.68C368.55 639.52 357.31 622.38 346.57 604.91C356.05 623.1 366.06 641.03 376.07 658.94Z" fill="#82C3DE"/>
<path fill-rule="evenodd" clip-rule="evenodd" d="M367.44 666.69L371.05 664.26C359.31 648.11 348.25 631.41 338.22 614.06C346.96 632.09 356.82 649.62 367.43 666.69H367.44Z" fill="#82C3DE"/>
<path fill-rule="evenodd" clip-rule="evenodd" d="M359.04 674.66L362.53 672.05C350.22 656.81 339.19 640.46 329.79 623.14C337.9 641.11 347.75 658.36 359.05 674.66H359.04Z" fill="#82C3DE"/>
<path fill-rule="evenodd" clip-rule="evenodd" d="M350.67 682.53L354.09 679.83C341.68 665.29 330.2 649.84 321.28 632.78C328.88 650.47 339.27 666.94 350.67 682.53Z" fill="#82C3DE"/>
<path fill-rule="evenodd" clip-rule="evenodd" d="M341.53 689.45L344.84 686.62C332.37 673.17 321.17 658.35 312.9 641.76C319.84 658.95 329.96 674.84 341.53 689.46V689.45Z" fill="#82C3DE"/>
<path fill-rule="evenodd" clip-rule="evenodd" d="M332.47 696.51L335.53 693.42C322.47 681.49 311.74 666.78 304.36 650.37C310.39 667.32 320 683.14 332.46 696.51H332.47Z" fill="#82C3DE"/>
<path fill-rule="evenodd" clip-rule="evenodd" d="M321.19 701.52L324.2 698.37C311.76 687.5 301.53 673.79 295.1 658.2C300.16 674.28 309.31 689.17 321.19 701.51V701.52Z" fill="#82C3DE"/>
<path fill-rule="evenodd" clip-rule="evenodd" d="M303.2 699.84L306.46 696.95C297.68 688.13 290.53 677.47 285.68 665.69C289.16 677.94 295.13 689.62 303.2 699.83V699.84Z" fill="#82C3DE"/>
<path fill-rule="evenodd" clip-rule="evenodd" d="M168.65 190.65C167.41 189.82 168.65 185.93 171.42 181.97C174.19 178.01 177.41 175.51 178.62 176.38C179.83 177.26 178.59 181.14 175.85 185.06C173.11 188.98 169.89 191.48 168.65 190.65Z" fill="#82C3DE"/>
<path fill-rule="evenodd" clip-rule="evenodd" d="M187.87 163.96C186.69 163.06 189.21 157.75 193.7 152.24C198.19 146.73 202.9 143.2 204.02 144.18C205.14 145.17 202.31 150.23 197.89 155.65C193.46 161.07 189.06 164.86 187.87 163.95V163.96Z" fill="#82C3DE"/>
<path fill-rule="evenodd" clip-rule="evenodd" d="M168.65 210.119C167.35 209.379 169.19 204.009 172.75 198.109C176.31 192.209 180.21 188.089 181.47 188.889C182.73 189.699 180.89 195.069 177.37 200.899C173.85 206.729 169.95 210.849 168.65 210.119Z" fill="#82C3DE"/>
<path fill-rule="evenodd" clip-rule="evenodd" d="M189.94 175.939C188.71 175.129 193.45 165.759 201.16 155.439C208.85 145.099 216.55 137.919 217.67 138.889C218.81 139.869 213.07 148.479 205.49 158.669C197.9 168.849 191.2 176.779 189.94 175.949V175.939Z" fill="#82C3DE"/>
<path fill-rule="evenodd" clip-rule="evenodd" d="M172.26 227.96C170.87 227.47 172.15 220.4 175.98 212.6C179.79 204.8 184.41 199.4 185.68 200.14C186.99 200.9 184.52 207.41 180.84 214.96C177.14 222.5 173.68 228.46 172.27 227.95L172.26 227.96Z" fill="#82C3DE"/>
<path fill-rule="evenodd" clip-rule="evenodd" d="M193.15 187.35C191.9 186.62 198.06 173.56 207.95 158.79C217.81 143.98 227.82 133.47 228.96 134.41C230.13 135.36 222.16 147.19 212.43 161.8C202.67 176.39 194.46 188.13 193.15 187.36V187.35Z" fill="#82C3DE"/>
<path fill-rule="evenodd" clip-rule="evenodd" d="M177.55 247.76C176.17 247.23 178.14 238.7 182.35 228.86C186.55 219.02 191.39 211.7 192.73 212.35C194.08 213 191.47 221.26 187.32 230.99C183.15 240.72 178.95 248.3 177.55 247.76Z" fill="#82C3DE"/>
<path fill-rule="evenodd" clip-rule="evenodd" d="M198.58 200.339C197.93 199.979 199.52 195.629 202.62 188.909C205.75 182.209 210.23 172.999 215.84 163.139C221.42 153.259 227.21 144.679 231.87 138.839C236.54 132.999 239.97 129.839 240.54 130.289C241.14 130.769 238.8 134.729 235.01 141.019C231.22 147.319 226.06 156.029 220.54 165.809C214.99 175.579 209.99 184.469 205.98 190.739C202.01 197.009 199.23 200.709 198.58 200.349V200.339Z" fill="#82C3DE"/>
<path fill-rule="evenodd" clip-rule="evenodd" d="M187.61 260.269C186.2 259.829 187.73 250.849 191.46 240.349C195.18 229.849 199.67 221.909 201.05 222.469C202.44 223.029 200.23 231.769 196.55 242.159C192.86 252.549 189.04 260.719 187.61 260.269Z" fill="#82C3DE"/>
<path fill-rule="evenodd" clip-rule="evenodd" d="M205.94 210.53C205.28 210.28 206.57 204.86 209.83 196.52C211.46 192.35 213.6 187.47 216.19 182.15C218.8 176.85 221.85 171.11 225.26 165.21C232.1 153.43 238.91 143.2 244.03 135.93C249.16 128.67 252.63 124.37 253.27 124.76C253.9 125.15 251.57 130.18 247.27 137.96C242.98 145.75 236.7 156.26 229.94 167.91C226.56 173.74 223.43 179.33 220.61 184.43C217.81 189.54 215.35 194.18 213.3 198.09C209.21 205.91 206.67 210.8 205.94 210.52V210.53Z" fill="#82C3DE"/>
<path fill-rule="evenodd" clip-rule="evenodd" d="M200.72 265.16C199.26 264.96 199.31 256.51 202.12 246.67C204.91 236.83 209.05 229.58 210.41 230.1C211.83 230.64 210.01 238.61 207.32 248.13C204.6 257.64 202.21 265.37 200.72 265.16Z" fill="#82C3DE"/>
<path fill-rule="evenodd" clip-rule="evenodd" d="M214.77 219.02C214.08 218.75 215.71 212.76 218.99 203.32C222.28 193.89 227.25 180.98 233.82 167.15C237.12 160.24 240.55 153.79 243.88 148.04C245.58 145.18 247.19 142.47 248.82 140C249.63 138.76 250.39 137.55 251.17 136.42C251.96 135.3 252.72 134.22 253.44 133.19C259.31 125.01 263.69 120.55 264.24 120.97C264.88 121.45 261.61 126.69 256.65 135.26C256.03 136.33 255.38 137.45 254.71 138.62C254.03 139.79 253.38 141.03 252.66 142.3C251.22 144.82 249.78 147.58 248.23 150.45C245.2 156.24 241.96 162.66 238.7 169.47C232.22 183.12 226.72 195.7 222.53 204.75C218.35 213.8 215.47 219.29 214.77 219.01V219.02Z" fill="#82C3DE"/>
<path fill-rule="evenodd" clip-rule="evenodd" d="M215.1 265.349C213.63 265.159 213.34 258.449 215.25 250.579C217.14 242.709 220.34 236.869 221.74 237.319C223.18 237.779 222.33 244.219 220.51 251.839C218.66 259.449 216.6 265.549 215.11 265.349H215.1Z" fill="#82C3DE"/>
<path fill-rule="evenodd" clip-rule="evenodd" d="M225.61 225.84C224.91 225.56 226.61 219.41 229.81 209.63C233.03 199.86 237.72 186.43 243.75 171.86C246.76 164.58 249.89 157.74 252.91 151.6C254.44 148.54 255.91 145.64 257.38 142.98C258.81 140.29 260.25 137.85 261.56 135.62C266.89 126.73 270.89 121.7 271.49 122.07C272.16 122.49 269.33 128.19 264.93 137.42C263.84 139.74 262.62 142.25 261.38 144.99C260.1 147.71 258.79 150.64 257.41 153.72C254.67 159.9 251.72 166.72 248.73 173.93C242.76 188.36 237.51 201.55 233.37 210.99C229.25 220.43 226.29 226.11 225.6 225.84H225.61Z" fill="#82C3DE"/>
<path fill-rule="evenodd" clip-rule="evenodd" d="M229.56 265.029C228.11 264.689 228.16 259.379 229.68 253.149C231.2 246.929 233.6 242.189 235.05 242.559C236.5 242.929 236.44 248.249 234.93 254.439C233.42 260.619 231.02 265.369 229.56 265.029Z" fill="#82C3DE"/>
<path fill-rule="evenodd" clip-rule="evenodd" d="M238 231.349C237.28 231.159 238.39 224.879 240.77 214.859C241.37 212.349 242.04 209.609 242.79 206.679C243.61 203.759 244.5 200.649 245.5 197.399C247.5 190.889 249.88 183.779 252.62 176.409C258.08 161.659 264.01 148.679 268.75 139.529C273.51 130.379 277.02 125.029 277.67 125.359C278.35 125.699 276.06 131.639 272.22 141.129C268.4 150.619 263.1 163.689 257.69 178.299C254.98 185.599 252.48 192.589 250.24 198.959C249.13 202.149 248.07 205.179 247.08 208.019C246.15 210.879 245.27 213.539 244.44 215.959C241.14 225.649 238.73 231.559 238.01 231.369L238 231.349Z" fill="#82C3DE"/>
<path fill-rule="evenodd" clip-rule="evenodd" d="M245.07 258.389C243.61 258.069 243.06 254.989 243.83 251.509C244.6 248.029 246.41 245.469 247.87 245.799C249.32 246.129 249.88 249.209 249.11 252.679C248.34 256.149 246.53 258.699 245.07 258.389Z" fill="#82C3DE"/>
<path fill-rule="evenodd" clip-rule="evenodd" d="M250.35 235.09C248.95 234.81 252.79 210.59 261.95 181.85C271.02 153.08 281.85 131.08 283.16 131.66C284.58 132.27 276.08 155 267.1 183.48C258.03 211.94 251.87 235.42 250.36 235.09H250.35Z" fill="#82C3DE"/>
<path fill-rule="evenodd" clip-rule="evenodd" d="M263.47 234.799C262.74 234.649 263.02 229.919 264.1 222.379C265.19 214.849 267.08 204.499 269.8 193.199C272.53 181.889 275.64 171.799 278.36 164.659C281.07 157.509 283.29 153.299 283.97 153.529C284.69 153.779 283.76 158.409 282.01 165.779C280.23 173.119 277.77 183.269 275.05 194.469C272.35 205.679 269.88 215.849 267.84 223.169C265.8 230.489 264.2 234.959 263.47 234.799Z" fill="#82C3DE"/>
<path fill-rule="evenodd" clip-rule="evenodd" d="M99.52 702.42C98.38 703.36 94.0701 700.02 90.4701 694.53C86.8501 689.04 85.55 683.71 86.88 683.06C88.23 682.39 91.56 686.37 94.99 691.57C98.4 696.78 100.7 701.47 99.5301 702.42H99.52Z" fill="#82C3DE"/>
<path fill-rule="evenodd" clip-rule="evenodd" d="M116.08 700.42C115.02 701.43 109.15 696.94 104.05 689.55C101.51 685.87 99.67 682.24 98.68 679.46C97.68 676.68 97.5 674.77 98.16 674.44C99.52 673.78 103.63 679.48 108.5 686.47C113.34 693.49 117.2 699.38 116.09 700.41L116.08 700.42Z" fill="#82C3DE"/>
<path fill-rule="evenodd" clip-rule="evenodd" d="M133.37 698.88C132.36 699.91 124.69 694.18 117.49 684.88C113.91 680.24 111.19 675.64 109.62 672.11C108.04 668.58 107.55 666.18 108.19 665.83C109.54 665.14 114.82 672.69 121.76 681.57C128.66 690.49 134.45 697.78 133.36 698.87L133.37 698.88Z" fill="#82C3DE"/>
<path fill-rule="evenodd" clip-rule="evenodd" d="M150.58 696.18C150.02 696.67 147.7 695.07 144.39 692.1C141.08 689.12 136.74 684.78 132.31 679.59C127.89 674.4 124.3 669.3 122.1 665.36C119.89 661.42 119 658.71 119.62 658.32C120.26 657.91 122.27 659.86 125.21 663.13C128.15 666.41 132.08 670.98 136.43 676.08C140.78 681.18 144.65 685.91 147.24 689.54C149.83 693.17 151.15 695.68 150.59 696.17L150.58 696.18Z" fill="#82C3DE"/>
<path fill-rule="evenodd" clip-rule="evenodd" d="M165.91 692.46C165.36 692.96 162.84 691.21 159.17 687.99C155.51 684.77 150.67 680.1 145.66 674.56C140.66 669.02 136.52 663.61 133.9 659.43C131.27 655.25 130.12 652.36 130.72 651.95C131.34 651.51 133.59 653.59 136.92 657.09C140.25 660.6 144.73 665.48 149.67 670.95C154.61 676.41 159 681.49 161.96 685.39C164.92 689.28 166.46 691.96 165.91 692.46Z" fill="#82C3DE"/>
<path fill-rule="evenodd" clip-rule="evenodd" d="M191.66 700.84C190.52 701.81 188.93 701.82 188.11 700.86C187.29 699.9 187.53 698.33 188.65 697.35C189.77 696.37 191.36 696.36 192.2 697.33C193.04 698.3 192.8 699.87 191.66 700.84Z" fill="#82C3DE"/>
<path fill-rule="evenodd" clip-rule="evenodd" d="M180.3 688.009C179.75 688.509 177.17 686.679 173.41 683.339C169.66 679.999 164.71 675.149 159.52 669.519C154.33 663.879 149.93 658.489 147.02 654.349C144.11 650.219 142.67 647.379 143.24 646.909C143.82 646.429 146.29 648.399 149.91 651.859C153.53 655.319 158.33 660.259 163.49 665.859C168.65 671.469 173.16 676.729 176.2 680.739C179.25 684.749 180.83 687.499 180.28 687.999L180.3 688.009Z" fill="#82C3DE"/>
<path fill-rule="evenodd" clip-rule="evenodd" d="M209.15 700.67C207.97 701.58 205.55 700.51 203.75 698.27C201.94 696.03 201.41 693.44 202.55 692.48C203.69 691.52 206.11 692.6 207.95 694.88C209.79 697.16 210.32 699.76 209.15 700.67Z" fill="#82C3DE"/>
<path fill-rule="evenodd" clip-rule="evenodd" d="M194.86 683.5C193.73 684.47 184.44 675.71 173.54 664.34C162.65 652.96 154.61 642.9 155.71 641.86C156.78 640.85 166.52 649.19 177.46 660.62C188.41 672.05 196.01 682.53 194.87 683.5H194.86Z" fill="#82C3DE"/>
<path fill-rule="evenodd" clip-rule="evenodd" d="M224.49 698.28C223.24 699.1 220.54 697.41 218.45 694.5C216.36 691.59 215.63 688.49 216.81 687.57C217.99 686.66 220.69 688.349 222.85 691.349C225 694.349 225.74 697.46 224.49 698.28Z" fill="#82C3DE"/>
<path fill-rule="evenodd" clip-rule="evenodd" d="M209.33 678.31C208.75 678.8 206.22 676.82 202.47 673.37C198.72 669.92 193.7 665.04 188.22 659.57C177.23 648.66 168.7 639.27 169.75 638.15C170.74 637.09 180.91 644.7 192.04 655.74C197.59 661.27 202.25 666.66 205.32 670.81C208.39 674.96 209.91 677.83 209.35 678.3L209.33 678.31Z" fill="#82C3DE"/>
<path fill-rule="evenodd" clip-rule="evenodd" d="M237.72 692.92C236.43 693.68 233.77 691.55 231.57 688.29C229.37 685.03 228.4 681.75 229.59 680.85C230.77 679.95 233.75 681.86 236.05 685.27C238.35 688.68 239.01 692.17 237.73 692.92H237.72Z" fill="#82C3DE"/>
<path fill-rule="evenodd" clip-rule="evenodd" d="M221.99 671.419C221.41 671.909 219.03 670.139 215.5 667.039C211.97 663.939 207.24 659.569 202.04 654.689C191.62 644.959 183.42 636.599 184.42 635.429C184.9 634.869 187.56 636.239 191.45 638.969C195.34 641.699 200.45 645.789 205.74 650.749C211.03 655.709 215.43 660.619 218.3 664.439C221.18 668.259 222.55 670.939 222 671.419H221.99Z" fill="#82C3DE"/>
<path fill-rule="evenodd" clip-rule="evenodd" d="M249.45 685.02C248.15 685.77 245.4 683.43 243.08 679.94C240.76 676.45 239.67 673 240.87 672.1C242.06 671.2 245.16 673.31 247.58 676.95C250.01 680.59 250.74 684.28 249.45 685.02Z" fill="#82C3DE"/>
<path fill-rule="evenodd" clip-rule="evenodd" d="M233.8 663.24C232.63 664.2 225.66 657.68 217.09 649.72C208.55 641.73 201.66 635.04 202.58 633.83C203.45 632.67 211.98 637.55 220.78 645.77C229.61 653.98 234.94 662.31 233.8 663.24Z" fill="#82C3DE"/>
<path fill-rule="evenodd" clip-rule="evenodd" d="M256.53 669.84C255.3 670.68 253.28 669.97 252.01 668.23C250.74 666.49 250.68 664.35 251.85 663.44C253.03 662.53 255.05 663.24 256.37 665.05C257.69 666.85 257.76 669 256.53 669.84Z" fill="#82C3DE"/>
<path fill-rule="evenodd" clip-rule="evenodd" d="M244.48 654.52C243.34 655.51 237.95 651.11 231.8 645.35C225.66 639.57 220.95 634.46 221.86 633.26C222.75 632.08 229.13 635.42 235.5 641.41C241.88 647.39 245.6 653.56 244.48 654.51V654.52Z" fill="#82C3DE"/>
<path fill-rule="evenodd" clip-rule="evenodd" d="M438.69 569.97C437.36 570.66 435.16 569.04 433.66 566.42C432.16 563.8 431.87 561.08 433.14 560.29C434.4 559.49 436.78 561 438.35 563.73C439.92 566.46 440.02 569.28 438.7 569.97H438.69Z" fill="#82C3DE"/>
<path fill-rule="evenodd" clip-rule="evenodd" d="M432.07 583.45C430.73 584.12 427.17 579.71 423.7 573.83C420.24 567.95 418.1 562.71 419.33 561.85C420.55 561.01 424.78 565.02 428.35 571.08C431.93 577.14 433.4 582.78 432.07 583.44V583.45Z" fill="#82C3DE"/>
<path fill-rule="evenodd" clip-rule="evenodd" d="M425.37 597.07C424 597.72 419.57 591.121 414.84 582.711C410.13 574.301 406.66 567.22 407.88 566.35C409.08 565.49 414.7 571.41 419.54 580.06C424.39 588.69 426.69 596.44 425.36 597.07H425.37Z" fill="#82C3DE"/>
<path fill-rule="evenodd" clip-rule="evenodd" d="M418.17 609.59C416.81 610.26 411.55 602.12 405.77 591.82C400.02 581.51 395.68 572.9 396.92 572.06C398.14 571.22 404.61 578.67 410.48 589.18C416.36 599.67 419.49 608.96 418.17 609.6V609.59Z" fill="#82C3DE"/>
<path fill-rule="evenodd" clip-rule="evenodd" d="M410.73 621.3C409.33 621.88 404.2 612.78 397.91 601.61C391.64 590.42 386.72 581.14 387.99 580.28C389.19 579.46 396.21 587.52 402.63 598.97C409.08 610.41 412.11 620.75 410.74 621.3H410.73Z" fill="#82C3DE"/>
<path fill-rule="evenodd" clip-rule="evenodd" d="M402.85 631.61C401.5 632.28 395.6 623.02 389.1 611.27C382.62 599.51 377.83 589.67 379.09 588.87C380.34 588.07 387.26 596.76 393.82 608.66C400.4 620.55 404.16 630.96 402.84 631.61H402.85Z" fill="#82C3DE"/>
<path fill-rule="evenodd" clip-rule="evenodd" d="M394.71 640.97C393.36 641.63 387.4 632.41 380.62 620.74C373.85 609.06 368.95 599.17 370.23 598.36C371.47 597.57 378.44 606.22 385.29 618.03C392.16 629.84 396.04 640.31 394.71 640.96V640.97Z" fill="#82C3DE"/>
<path fill-rule="evenodd" clip-rule="evenodd" d="M385.27 647.59C383.96 648.3 377.87 639.7 371.33 628.54C364.8 617.37 360.37 607.77 361.66 607C362.93 606.23 369.43 614.6 376 625.82C382.57 637.04 386.59 646.88 385.28 647.59H385.27Z" fill="#82C3DE"/>
<path fill-rule="evenodd" clip-rule="evenodd" d="M373.99 651.31C372.72 652.08 367 644.86 361.23 635.18C355.46 625.5 351.82 617.04 353.11 616.29C354.4 615.54 360.11 622.76 365.87 632.42C371.63 642.08 375.26 650.53 373.99 651.31Z" fill="#82C3DE"/>
<path fill-rule="evenodd" clip-rule="evenodd" d="M362.62 655.44C361.38 656.25 355.93 650.13 350.74 641.56C345.55 633 342.67 625.31 343.97 624.59C345.28 623.86 350.23 630.29 355.36 638.76C360.48 647.23 363.87 654.61 362.61 655.43L362.62 655.44Z" fill="#82C3DE"/>
<path fill-rule="evenodd" clip-rule="evenodd" d="M360.78 673.36C359.59 674.26 358.01 674.15 357.26 673.13C356.51 672.11 356.88 670.57 358.08 669.7C359.29 668.82 360.86 668.92 361.6 669.93C362.34 670.93 361.97 672.47 360.78 673.36Z" fill="#82C3DE"/>
<path fill-rule="evenodd" clip-rule="evenodd" d="M351.37 660.13C350.15 660.97 344.99 655.61 340.3 647.86C335.6 640.12 333.24 633.06 334.55 632.37C335.88 631.67 340.31 637.47 344.92 645.06C349.52 652.66 352.6 659.28 351.37 660.13Z" fill="#82C3DE"/>
<path fill-rule="evenodd" clip-rule="evenodd" d="M352.37 681.18C351.2 682.11 349.1 681.37 347.68 679.53C346.26 677.69 346.07 675.48 347.27 674.58C348.47 673.68 350.56 674.42 351.96 676.23C353.36 678.04 353.54 680.25 352.37 681.18Z" fill="#82C3DE"/>
<path fill-rule="evenodd" clip-rule="evenodd" d="M340.47 665.25C339.27 666.11 334.22 661.15 329.7 653.81C325.16 646.48 323.06 639.68 324.38 639.02C325.72 638.34 329.88 643.85 334.3 650.98C338.7 658.13 341.7 664.38 340.47 665.25Z" fill="#82C3DE"/>
<path fill-rule="evenodd" clip-rule="evenodd" d="M343.18 688.04C342.05 689.02 339.52 687.84 337.53 685.41C335.54 682.98 334.88 680.27 336.06 679.36C337.24 678.45 339.77 679.62 341.71 681.99C343.65 684.36 344.31 687.06 343.18 688.04Z" fill="#82C3DE"/>
<path fill-rule="evenodd" clip-rule="evenodd" d="M329.38 670.35C328.19 671.21 323.21 666.41 318.93 659.17C314.63 651.93 312.87 645.2 314.22 644.6C315.59 643.98 319.43 649.45 323.58 656.42C327.71 663.41 330.61 669.47 329.38 670.35Z" fill="#82C3DE"/>
<path fill-rule="evenodd" clip-rule="evenodd" d="M334 694.96C332.96 696.03 329.88 694.71 327.29 691.86C324.69 689.01 323.68 685.82 324.83 684.89C326 683.95 328.81 685.51 331.28 688.23C333.75 690.95 335.04 693.9 333.99 694.97L334 694.96Z" fill="#82C3DE"/>
<path fill-rule="evenodd" clip-rule="evenodd" d="M317.74 675.4C316.54 676.26 311.78 671.62 308 664.51C304.2 657.42 302.99 650.87 304.37 650.36C305.78 649.82 309.13 655.21 312.76 661.97C316.36 668.74 318.97 674.53 317.74 675.4Z" fill="#82C3DE"/>
<path fill-rule="evenodd" clip-rule="evenodd" d="M322.69 699.95C321.68 701.04 318.38 699.61 315.56 696.54C312.73 693.48 311.57 690.08 312.74 689.15C313.91 688.22 316.85 689.97 319.53 692.87C322.2 695.77 323.72 698.85 322.69 699.94V699.95Z" fill="#82C3DE"/>
<path fill-rule="evenodd" clip-rule="evenodd" d="M305.53 679.19C304.31 680.01 300.29 676.18 297.32 670.19C294.33 664.21 293.71 658.68 295.1 658.21C296.53 657.72 299.33 662.16 302.15 667.79C304.94 673.43 306.78 678.36 305.53 679.2V679.19Z" fill="#82C3DE"/>
<path fill-rule="evenodd" clip-rule="evenodd" d="M304.83 698.4C303.72 699.4 301.67 698.8 300.25 697.06C298.83 695.32 298.66 693.19 299.86 692.3C301.06 691.41 303.11 692.01 304.44 693.64C305.77 695.27 305.94 697.4 304.83 698.4Z" fill="#82C3DE"/>
<path fill-rule="evenodd" clip-rule="evenodd" d="M293.2 682.2C291.93 682.96 288.74 679.96 286.6 675.25C284.44 670.54 284.27 666.16 285.68 665.7C287.11 665.23 289.49 668.59 291.51 673C293.52 677.42 294.49 681.43 293.2 682.2Z" fill="#82C3DE"/>
<path fill-rule="evenodd" clip-rule="evenodd" d="M299 169.64L299.15 165.29L288.2 166.84L299 169.64Z" fill="#82C3DE"/>
<path fill-rule="evenodd" clip-rule="evenodd" d="M302.59 182.19L302.7 177.84L291.67 179.51L302.59 182.19Z" fill="#82C3DE"/>
<path fill-rule="evenodd" clip-rule="evenodd" d="M305.81 194.76L306 190.41L295.65 192.07L305.81 194.76Z" fill="#82C3DE"/>
<path fill-rule="evenodd" clip-rule="evenodd" d="M309.31 207.37L309.27 203.01L297.83 204.9L309.31 207.37Z" fill="#82C3DE"/>
<path fill-rule="evenodd" clip-rule="evenodd" d="M316.77 219.98L316.72 215.63C310.16 216.44 303.56 217.02 296.91 217.35C303.47 218.47 310.1 219.34 316.77 219.99V219.98Z" fill="#82C3DE"/>
<path fill-rule="evenodd" clip-rule="evenodd" d="M330.91 232.2L330.66 227.85C319.83 229.2 308.87 229.94 297.87 230.01C308.78 231.39 319.82 232.11 330.91 232.2Z" fill="#82C3DE"/>
<path fill-rule="evenodd" clip-rule="evenodd" d="M341.92 244.17L341.51 239.84C326.4 241.99 311.06 242.96 295.69 242.58C310.96 244.41 326.45 244.9 341.92 244.17Z" fill="#82C3DE"/>
<path fill-rule="evenodd" clip-rule="evenodd" d="M279.22 243.04L279.82 238.73L270.27 239.43L279.22 243.04Z" fill="#82C3DE"/>
<path fill-rule="evenodd" clip-rule="evenodd" d="M347.82 256.43L347.31 252.11C329.42 254.96 311.19 256.2 292.95 255.39C311.07 257.65 329.5 257.88 347.82 256.44V256.43Z" fill="#82C3DE"/>
<path fill-rule="evenodd" clip-rule="evenodd" d="M269.53 254.43L270.33 250.16L259.94 250.18L269.53 254.43Z" fill="#82C3DE"/>
<path fill-rule="evenodd" clip-rule="evenodd" d="M357.14 268.13L356.7 263.8L334.27 267.79L357.14 268.13Z" fill="#82C3DE"/>
<path fill-rule="evenodd" clip-rule="evenodd" d="M321.25 270.49L321.15 266.14C310.45 267.11 299.69 267.58 288.88 267.34C299.56 269.02 310.38 270.01 321.25 270.49Z" fill="#82C3DE"/>
<path fill-rule="evenodd" clip-rule="evenodd" d="M258.25 264.68L259.26 260.44L250.35 260.34L258.25 264.68Z" fill="#82C3DE"/>
<path fill-rule="evenodd" clip-rule="evenodd" d="M368.36 279.15L367.68 274.85C361.06 276.62 354.37 278.19 347.61 279.54C354.51 279.63 361.43 279.5 368.36 279.15Z" fill="#82C3DE"/>
<path fill-rule="evenodd" clip-rule="evenodd" d="M321.06 283.04L321.03 278.69C309.06 279.5 297 279.62 284.94 278.97C296.84 281.06 308.91 282.4 321.06 283.04Z" fill="#82C3DE"/>
<path fill-rule="evenodd" clip-rule="evenodd" d="M246.75 273.77L247.94 269.58C242.85 268.89 237.76 268.02 232.69 266.95C237.27 269.38 241.96 271.65 246.75 273.76V273.77Z" fill="#82C3DE"/>
<path fill-rule="evenodd" clip-rule="evenodd" d="M379.66 289.56L378.46 285.38C373.16 287.65 367.72 289.7 362.17 291.51C367.99 291.12 373.83 290.48 379.66 289.57V289.56Z" fill="#82C3DE"/>
<path fill-rule="evenodd" clip-rule="evenodd" d="M318.45 297.55L318.49 293.2C305.34 293.79 292.08 293.29 278.87 291.83C291.83 294.72 305.06 296.69 318.44 297.56L318.45 297.55Z" fill="#82C3DE"/>
<path fill-rule="evenodd" clip-rule="evenodd" d="M235.29 283.8L236.79 279.71C232.37 278.87 227.96 277.78 223.59 276.4C227.3 279.08 231.22 281.54 235.29 283.8Z" fill="#82C3DE"/>
<path fill-rule="evenodd" clip-rule="evenodd" d="M390.31 299.44L388.86 295.34C382.94 298.21 376.82 300.74 370.53 302.94C377.14 302.15 383.75 301 390.31 299.44Z" fill="#82C3DE"/>
<path fill-rule="evenodd" clip-rule="evenodd" d="M315.91 309.93L316.08 305.58C301.54 305.75 286.91 304.69 272.38 302.81C286.66 306.11 301.19 308.64 315.92 309.93H315.91Z" fill="#82C3DE"/>
<path fill-rule="evenodd" clip-rule="evenodd" d="M224.07 292.05L225.75 288.03C221.39 286.99 217.06 285.71 212.78 284.13C216.34 286.97 220.13 289.61 224.07 292.04V292.05Z" fill="#82C3DE"/>
<path fill-rule="evenodd" clip-rule="evenodd" d="M399.38 309.17L397.85 305.09C391.99 308.06 385.95 310.76 379.77 313.18C386.33 312.16 392.88 310.83 399.38 309.16V309.17Z" fill="#82C3DE"/>
<path fill-rule="evenodd" clip-rule="evenodd" d="M313.1 322.85L313.24 318.5C297.06 318.71 280.78 317.34 264.7 314.57C280.48 318.75 296.68 321.6 313.1 322.85Z" fill="#82C3DE"/>
<path fill-rule="evenodd" clip-rule="evenodd" d="M214.65 300.38L216.67 296.53C212.32 295.07 208.02 293.37 203.8 291.41C207.22 294.58 210.85 297.57 214.65 300.39V300.38Z" fill="#82C3DE"/>
<path fill-rule="evenodd" clip-rule="evenodd" d="M404.11 320.46L402.17 316.57C396.82 320.05 391.07 323.07 385.09 325.67C391.49 324.46 397.87 322.77 404.11 320.47V320.46Z" fill="#82C3DE"/>
<path fill-rule="evenodd" clip-rule="evenodd" d="M308.94 336.17L309.05 331.82C291.24 332.08 273.32 330.6 255.77 326.79C272.96 332.01 290.89 334.97 308.94 336.17Z" fill="#82C3DE"/>
<path fill-rule="evenodd" clip-rule="evenodd" d="M209.51 310.59L211.64 306.8C206.7 304.85 201.83 302.63 197.07 300.12C200.99 303.81 205.15 307.31 209.51 310.6V310.59Z" fill="#82C3DE"/>
<path fill-rule="evenodd" clip-rule="evenodd" d="M399.52 335.42L397.82 331.41C389.07 335.9 379.74 339.45 370.13 342.21C380.03 340.88 389.9 338.7 399.52 335.42Z" fill="#82C3DE"/>
<path fill-rule="evenodd" clip-rule="evenodd" d="M289.54 346.4L290.13 342.09C276.29 340.93 262.48 338.71 248.84 335.56C262.08 340.1 275.68 343.77 289.54 346.4Z" fill="#82C3DE"/>
<path fill-rule="evenodd" clip-rule="evenodd" d="M213.45 325.14L215.33 321.21C208.26 318.62 201.32 315.63 194.71 311.83C200.48 316.81 206.86 321.17 213.45 325.13V325.14Z" fill="#82C3DE"/>
<path fill-rule="evenodd" clip-rule="evenodd" d="M385.29 352.72L383.97 348.57C375.12 352.14 366.02 355.21 356.65 357.5C366.25 356.64 375.83 354.96 385.28 352.72H385.29Z" fill="#82C3DE"/>
<path fill-rule="evenodd" clip-rule="evenodd" d="M314.78 361.68L314.81 357.33C305.84 358 296.75 357.98 287.66 357.4C296.54 359.41 305.59 360.9 314.78 361.68Z" fill="#82C3DE"/>
<path fill-rule="evenodd" clip-rule="evenodd" d="M275.46 357.53L276.3 353.26C264.76 351.74 253.28 349.42 241.89 346.6C252.84 350.81 264.01 354.56 275.46 357.54V357.53Z" fill="#82C3DE"/>
<path fill-rule="evenodd" clip-rule="evenodd" d="M218.23 340.22L219.98 336.23C213.26 334.08 206.62 331.63 200.16 328.63C205.88 332.88 211.98 336.69 218.23 340.22Z" fill="#82C3DE"/>
<path fill-rule="evenodd" clip-rule="evenodd" d="M366.47 370.92L365.66 366.64C357.85 368.85 349.85 370.58 341.74 371.87C349.95 372.03 358.21 371.73 366.47 370.91V370.92Z" fill="#82C3DE"/>
<path fill-rule="evenodd" clip-rule="evenodd" d="M328.9 374.61L328.92 370.26C312.81 370.93 296.6 370.41 280.47 368.54C296.36 371.84 312.58 373.83 328.9 374.61Z" fill="#82C3DE"/>
<path fill-rule="evenodd" clip-rule="evenodd" d="M269.65 368.8L270.5 364.53C258.98 362.98 247.51 360.71 236.19 357.67C247.05 362.08 258.24 365.79 269.65 368.8Z" fill="#82C3DE"/>
<path fill-rule="evenodd" clip-rule="evenodd" d="M221.19 354.39L222.84 350.36C215.22 348.03 207.69 345.33 200.38 341.97C206.97 346.59 213.99 350.67 221.2 354.39H221.19Z" fill="#82C3DE"/>
<path fill-rule="evenodd" clip-rule="evenodd" d="M353.31 385.98L352.74 381.66C327.5 385.71 301.45 385.13 276 380.93C301.17 386.56 327.34 388.65 353.31 385.98Z" fill="#82C3DE"/>
<path fill-rule="evenodd" clip-rule="evenodd" d="M266.47 381.181L267.42 376.931C255.27 374.951 243.2 372.201 231.28 368.771C242.71 373.571 254.46 377.741 266.47 381.181Z" fill="#82C3DE"/>
<path fill-rule="evenodd" clip-rule="evenodd" d="M216.8 365.4L218.54 361.41C211.53 359.14 204.61 356.52 197.85 353.44C203.89 357.78 210.25 361.75 216.8 365.4Z" fill="#82C3DE"/>
<path fill-rule="evenodd" clip-rule="evenodd" d="M341.1 400.59L340.78 396.25C318.85 398.58 296.48 397.53 274.53 393.88C296.2 398.95 318.61 401.5 341.1 400.59Z" fill="#82C3DE"/>
<path fill-rule="evenodd" clip-rule="evenodd" d="M265.18 394.08L266.17 389.84C253.2 387.56 240.33 384.39 227.68 380.38C239.82 385.75 252.35 390.35 265.18 394.08Z" fill="#82C3DE"/>
<path fill-rule="evenodd" clip-rule="evenodd" d="M212.69 376.5L214.5 372.54C206.48 369.67 198.57 366.43 190.95 362.46C197.8 367.66 205.15 372.26 212.69 376.5Z" fill="#82C3DE"/>
<path fill-rule="evenodd" clip-rule="evenodd" d="M331.21 414.13L331.12 409.78C312.71 410.9 294.1 409.75 275.71 406.94C293.83 411.17 312.42 413.8 331.22 414.13H331.21Z" fill="#82C3DE"/>
<path fill-rule="evenodd" clip-rule="evenodd" d="M265.56 407.06L266.52 402.81C252.35 400.36 238.31 396.82 224.59 392.15C237.77 398.17 251.5 403.14 265.56 407.06Z" fill="#82C3DE"/>
<path fill-rule="evenodd" clip-rule="evenodd" d="M208.89 387.7L210.76 383.77C202.36 380.59 194.1 376.98 186.17 372.59C193.29 378.19 200.98 383.15 208.89 387.7Z" fill="#82C3DE"/>
<path fill-rule="evenodd" clip-rule="evenodd" d="M318.12 426.661L318.25 422.311C305.97 422.681 293.61 422.191 281.28 421.021C293.39 423.621 305.68 425.571 318.12 426.661Z" fill="#82C3DE"/>
<path fill-rule="evenodd" clip-rule="evenodd" d="M268.6 420.77L269.52 416.52C253.68 413.82 238 409.79 222.74 404.38C237.46 411.14 252.83 416.61 268.6 420.77Z" fill="#82C3DE"/>
<path fill-rule="evenodd" clip-rule="evenodd" d="M206.41 399.51L208.31 395.59C199.04 391.9 189.93 387.71 181.28 382.56C189.1 388.9 197.63 394.45 206.41 399.51Z" fill="#82C3DE"/>
<path fill-rule="evenodd" clip-rule="evenodd" d="M281.96 437.02L282.74 432.74C262.04 429.73 241.64 424.12 221.9 416.71C241.09 425.46 261.16 432.52 281.96 437.02Z" fill="#82C3DE"/>
<path fill-rule="evenodd" clip-rule="evenodd" d="M205.06 411.881L206.97 407.971C197.6 404.201 188.4 399.951 179.64 394.771C187.58 401.141 196.2 406.741 205.07 411.881H205.06Z" fill="#82C3DE"/>
<path fill-rule="evenodd" clip-rule="evenodd" d="M291.23 450.97L291.8 446.65C268.51 444.31 245.45 438.8 223.33 430.57C244.9 440.14 267.73 447.13 291.23 450.97Z" fill="#82C3DE"/>
<path fill-rule="evenodd" clip-rule="evenodd" d="M206.41 425.57L208.39 421.69C198.39 417.39 188.42 413.17 178.94 407.8C187.62 414.38 197.08 419.98 206.41 425.56V425.57Z" fill="#82C3DE"/>
<path fill-rule="evenodd" clip-rule="evenodd" d="M275.17 457.32L274.27 461.58C281.87 462.44 289.49 462.99 297.08 463.21C289.67 461.55 282.36 459.57 275.16 457.32H275.17Z" fill="#82C3DE"/>
<path fill-rule="evenodd" clip-rule="evenodd" d="M245 453.86L246.31 449.71L228.75 445.95L245 453.86Z" fill="#82C3DE"/>
<path fill-rule="evenodd" clip-rule="evenodd" d="M210.1 440.36L211.99 436.44C203.74 433.28 195.56 429.92 187.55 426.08C194.82 431.17 202.41 435.86 210.1 440.36Z" fill="#82C3DE"/>
<path fill-rule="evenodd" clip-rule="evenodd" d="M286.61 471.66L285.88 475.95C292.58 476.35 299.27 476.51 305.93 476.39C299.41 475.06 292.96 473.47 286.61 471.65V471.66Z" fill="#82C3DE"/>
<path fill-rule="evenodd" clip-rule="evenodd" d="M239.07 464.36L240.39 460.21L223.53 456.84L239.07 464.36Z" fill="#82C3DE"/>
<path fill-rule="evenodd" clip-rule="evenodd" d="M296.97 487.14L296.43 491.46C303.35 491.59 310.25 491.45 317.11 491C310.32 490 303.6 488.7 296.97 487.14Z" fill="#82C3DE"/>
<path fill-rule="evenodd" clip-rule="evenodd" d="M235.43 476.74L236.88 472.64L219.65 468.36L235.43 476.74Z" fill="#82C3DE"/>
<path fill-rule="evenodd" clip-rule="evenodd" d="M306.98 501.23L306.63 505.57C312.17 505.29 317.67 504.83 323.14 504.2C317.7 503.39 312.31 502.39 306.98 501.24V501.23Z" fill="#82C3DE"/>
<path fill-rule="evenodd" clip-rule="evenodd" d="M231.68 488.53L233.18 484.44L217.32 480.5L231.68 488.53Z" fill="#82C3DE"/>
<path fill-rule="evenodd" clip-rule="evenodd" d="M312.34 515.26L312.12 519.61L327.19 517.74L312.34 515.26Z" fill="#82C3DE"/>
<path fill-rule="evenodd" clip-rule="evenodd" d="M228.89 500.96L230.49 496.91L214.82 492.58L228.89 500.96Z" fill="#82C3DE"/>
<path fill-rule="evenodd" clip-rule="evenodd" d="M313.51 528.39L313.28 532.74C318.87 532.31 324.42 531.68 329.92 530.84C324.4 530.23 318.93 529.41 313.52 528.39H313.51Z" fill="#82C3DE"/>
<path fill-rule="evenodd" clip-rule="evenodd" d="M227.33 513.35L228.92 509.3L213.25 505.07L227.33 513.35Z" fill="#82C3DE"/>
<path fill-rule="evenodd" clip-rule="evenodd" d="M312.05 541.98L311.78 546.32C317.88 545.97 323.94 545.37 329.93 544.48C323.9 543.91 317.94 543.06 312.04 541.97L312.05 541.98Z" fill="#82C3DE"/>
<path fill-rule="evenodd" clip-rule="evenodd" d="M225.7 526.11L227.33 522.08L211.67 517.58L225.7 526.11Z" fill="#82C3DE"/>
<path fill-rule="evenodd" clip-rule="evenodd" d="M310.44 554.94L310.18 559.29C316.86 558.96 323.5 558.34 330.07 557.43C323.46 556.89 316.91 556.05 310.43 554.95L310.44 554.94Z" fill="#82C3DE"/>
<path fill-rule="evenodd" clip-rule="evenodd" d="M225.24 539.08L226.87 535.05L210.1 530.1L225.24 539.08Z" fill="#82C3DE"/>
<path fill-rule="evenodd" clip-rule="evenodd" d="M308.23 568.21L307.93 572.55C315.04 572.32 322.11 571.67 329.06 570.57C322.03 570.23 315.08 569.41 308.23 568.21Z" fill="#82C3DE"/>
<path fill-rule="evenodd" clip-rule="evenodd" d="M224.91 551.8L226.5 547.75L208.98 542.86L224.91 551.8Z" fill="#82C3DE"/>
<path fill-rule="evenodd" clip-rule="evenodd" d="M307.02 581.48L306.69 585.82C313.55 585.61 320.36 585.151 327.13 584.461C320.37 583.701 313.66 582.72 307.02 581.48Z" fill="#82C3DE"/>
<path fill-rule="evenodd" clip-rule="evenodd" d="M225.52 566L227.19 561.98L210.01 556.65L225.52 566Z" fill="#82C3DE"/>
<path fill-rule="evenodd" clip-rule="evenodd" d="M306.28 594.6L305.93 598.94C312.49 598.74 319.02 598.25 325.48 597.46C319.01 596.8 312.6 595.83 306.28 594.6Z" fill="#82C3DE"/>
<path fill-rule="evenodd" clip-rule="evenodd" d="M227.18 579.79L228.8 575.75L210.77 570.34L227.18 579.79Z" fill="#82C3DE"/>
<path fill-rule="evenodd" clip-rule="evenodd" d="M305.76 607.93L305.4 612.27C311.22 612.03 317.02 611.56 322.75 610.86C317.02 610.11 311.36 609.13 305.76 607.93Z" fill="#82C3DE"/>
<path fill-rule="evenodd" clip-rule="evenodd" d="M230.54 594.48L232.1 590.42C225.3 588.58 218.54 586.5 211.83 584.2C217.93 587.82 224.16 591.25 230.53 594.48H230.54Z" fill="#82C3DE"/>
<path fill-rule="evenodd" clip-rule="evenodd" d="M306.33 621.35L306 625.69L319.14 624.11L306.33 621.35Z" fill="#82C3DE"/>
<path fill-rule="evenodd" clip-rule="evenodd" d="M234.73 609.5L236.25 605.42C228.9 603.46 221.59 601.23 214.34 598.74C220.99 602.55 227.78 606.14 234.73 609.5Z" fill="#82C3DE"/>
<path fill-rule="evenodd" clip-rule="evenodd" d="M306.82 634.71L306.6 639.06L315.77 637.26L306.82 634.71Z" fill="#82C3DE"/>
<path fill-rule="evenodd" clip-rule="evenodd" d="M238.25 624.01L239.69 619.9C232.61 618.18 225.56 616.22 218.55 614.04C224.99 617.56 231.55 620.89 238.25 624.01Z" fill="#82C3DE"/>
<path fill-rule="evenodd" clip-rule="evenodd" d="M242.08 639.03L243.49 634.91C234.66 632.64 225.9 629.96 217.24 626.91C225.31 631.28 233.59 635.35 242.08 639.03Z" fill="#82C3DE"/>
<path fill-rule="evenodd" clip-rule="evenodd" d="M299.08 167.47C299.03 168.96 298.22 170.14 297.27 170.1C296.32 170.06 295.61 168.82 295.68 167.33C295.75 165.84 296.57 164.66 297.49 164.7C298.42 164.74 299.13 165.98 299.08 167.47Z" fill="#82C3DE"/>
<path fill-rule="evenodd" clip-rule="evenodd" d="M302.65 180.02C302.62 181.51 301.34 182.68 299.81 182.62C298.28 182.57 297.09 181.31 297.16 179.82C297.23 178.33 298.5 177.17 300 177.22C301.5 177.27 302.68 178.53 302.65 180.02Z" fill="#82C3DE"/>
<path fill-rule="evenodd" clip-rule="evenodd" d="M305.91 192.591C305.85 194.081 304.72 195.241 303.39 195.181C302.06 195.121 301.05 193.861 301.12 192.371C301.19 190.881 302.32 189.721 303.64 189.781C304.96 189.841 305.97 191.101 305.91 192.591Z" fill="#82C3DE"/>
<path fill-rule="evenodd" clip-rule="evenodd" d="M309.29 205.19C309.31 206.68 308.09 207.88 306.57 207.87C305.05 207.86 303.85 206.64 303.89 205.15C303.93 203.66 305.15 202.46 306.61 202.47C308.07 202.48 309.27 203.7 309.29 205.19Z" fill="#82C3DE"/>
<path fill-rule="evenodd" clip-rule="evenodd" d="M316.74 217.8C316.76 219.29 313.84 220.47 310.21 220.43C306.58 220.39 303.68 219.15 303.74 217.66C303.8 216.17 306.72 214.99 310.27 215.03C313.82 215.07 316.72 216.31 316.74 217.8Z" fill="#82C3DE"/>
<path fill-rule="evenodd" clip-rule="evenodd" d="M330.78 230.03C330.88 231.51 324.76 233.12 317.09 233.19C309.43 233.27 303.27 231.77 303.35 230.29C303.42 228.79 309.55 227.87 317.04 227.79C324.53 227.72 330.68 228.53 330.78 230.03Z" fill="#82C3DE"/>
<path fill-rule="evenodd" clip-rule="evenodd" d="M341.72 242.01C341.86 243.49 339.65 244.88 336.78 245.09C333.91 245.3 331.51 244.28 331.43 242.79C331.35 241.3 333.56 239.92 336.37 239.71C339.18 239.5 341.57 240.53 341.72 242.01Z" fill="#82C3DE"/>
<path fill-rule="evenodd" clip-rule="evenodd" d="M322.5 243.171C322.55 244.661 317.76 246.021 311.81 245.951C305.85 245.881 301.1 244.401 301.19 242.921C301.28 241.431 306.06 240.491 311.88 240.551C317.7 240.621 322.46 241.671 322.51 243.171H322.5Z" fill="#82C3DE"/>
<path fill-rule="evenodd" clip-rule="evenodd" d="M279.52 240.89C279.32 242.37 277.66 243.34 275.81 243.06C273.96 242.78 272.66 241.36 272.91 239.89C273.16 238.42 274.82 237.45 276.62 237.72C278.42 237.99 279.72 239.41 279.52 240.89Z" fill="#82C3DE"/>
<path fill-rule="evenodd" clip-rule="evenodd" d="M347.56 254.27C347.74 255.75 345.27 257.21 342.04 257.53C338.81 257.85 336.1 256.9 335.99 255.41C335.88 253.92 338.35 252.46 341.51 252.15C344.67 251.84 347.38 252.79 347.56 254.27Z" fill="#82C3DE"/>
<path fill-rule="evenodd" clip-rule="evenodd" d="M325.75 256.03C325.83 257.51 319.23 259.06 311.01 258.95C302.79 258.85 296.23 257.12 296.35 255.65C296.47 254.15 303.05 253.46 311.08 253.55C319.1 253.66 325.67 254.53 325.75 256.03Z" fill="#82C3DE"/>
<path fill-rule="evenodd" clip-rule="evenodd" d="M269.93 252.29C269.66 253.76 267.78 254.61 265.72 254.18C263.67 253.76 262.27 252.24 262.6 250.78C262.93 249.33 264.81 248.48 266.81 248.89C268.81 249.3 270.2 250.82 269.93 252.29Z" fill="#82C3DE"/>
<path fill-rule="evenodd" clip-rule="evenodd" d="M356.92 265.97C357.07 267.45 354.26 268.92 350.65 269.25C347.03 269.58 344.01 268.63 343.9 267.15C343.79 265.66 346.6 264.2 350.17 263.87C353.74 263.54 356.77 264.49 356.92 265.97Z" fill="#82C3DE"/>
<path fill-rule="evenodd" clip-rule="evenodd" d="M321.2 268.31C321.24 269.79 315.22 271.18 307.73 271.04C300.24 270.9 294.26 269.25 294.37 267.77C294.48 266.28 300.5 265.51 307.83 265.64C315.16 265.78 321.16 266.81 321.2 268.31Z" fill="#82C3DE"/>
<path fill-rule="evenodd" clip-rule="evenodd" d="M258.75 262.561C258.41 264.011 256.66 264.811 254.84 264.341C253.02 263.871 251.87 262.321 252.28 260.891C252.69 259.451 254.44 258.661 256.19 259.111C257.95 259.561 259.09 261.111 258.75 262.561Z" fill="#82C3DE"/>
<path fill-rule="evenodd" clip-rule="evenodd" d="M368.02 277.001C368.26 278.471 365.22 280.101 361.24 280.641C357.26 281.171 353.9 280.411 353.74 278.921C353.58 277.441 356.61 275.811 360.52 275.281C364.43 274.751 367.78 275.531 368.02 277.001Z" fill="#82C3DE"/>
<path fill-rule="evenodd" clip-rule="evenodd" d="M313.54 280.83C313.53 282.31 307.95 283.46 301.11 283.07C294.26 282.68 288.86 280.89 289.02 279.41C289.18 277.92 294.72 277.29 301.42 277.68C308.12 278.07 313.56 279.34 313.54 280.84V280.83Z" fill="#82C3DE"/>
<path fill-rule="evenodd" clip-rule="evenodd" d="M247.34 271.68C246.94 273.12 244 273.46 240.78 272.45C237.56 271.44 235.35 269.48 235.84 268.07C236.33 266.66 239.27 266.31 242.4 267.3C245.53 268.28 247.74 270.24 247.34 271.68Z" fill="#82C3DE"/>
<path fill-rule="evenodd" clip-rule="evenodd" d="M379.06 287.471C379.48 288.901 376.61 291.001 372.6 291.981C368.6 292.971 365.08 292.441 364.79 290.981C364.5 289.511 367.43 287.691 371.31 286.731C375.19 285.781 378.64 286.031 379.06 287.471Z" fill="#82C3DE"/>
<path fill-rule="evenodd" clip-rule="evenodd" d="M309.55 295.12C309.5 296.6 303.23 297.57 295.6 296.79C287.97 296.02 282.02 293.83 282.26 292.37C282.5 290.89 288.69 290.67 296.14 291.42C303.59 292.18 309.61 293.63 309.55 295.13V295.12Z" fill="#82C3DE"/>
<path fill-rule="evenodd" clip-rule="evenodd" d="M236.04 281.75C235.54 283.15 232.76 283.44 229.89 282.25C227.02 281.06 225.26 278.87 225.91 277.53C226.56 276.18 229.24 276.13 231.96 277.26C234.68 278.4 236.54 280.34 236.03 281.75H236.04Z" fill="#82C3DE"/>
<path fill-rule="evenodd" clip-rule="evenodd" d="M389.58 297.39C390.09 298.79 387.52 301.01 383.78 302.16C380.05 303.32 376.68 302.94 376.3 301.5C375.92 300.05 378.58 298.11 382.18 297C385.78 295.89 389.06 295.99 389.57 297.39H389.58Z" fill="#82C3DE"/>
<path fill-rule="evenodd" clip-rule="evenodd" d="M304.35 307.061C304.24 308.541 298.11 309.291 290.7 308.361C283.29 307.431 277.54 305.211 277.79 303.751C278.04 302.271 284.11 302.091 291.37 303.001C298.63 303.921 304.46 305.571 304.35 307.061Z" fill="#82C3DE"/>
<path fill-rule="evenodd" clip-rule="evenodd" d="M224.91 290.05C224.35 291.43 221.43 291.54 218.47 290.13C215.51 288.72 213.75 286.38 214.47 285.08C215.19 283.77 217.98 283.92 220.79 285.26C223.6 286.6 225.48 288.67 224.91 290.06V290.05Z" fill="#82C3DE"/>
<path fill-rule="evenodd" clip-rule="evenodd" d="M398.62 307.13C399.15 308.52 396.88 310.57 393.56 311.71C390.23 312.84 387.18 312.6 386.75 311.18C386.32 309.75 388.59 307.7 391.81 306.6C395.04 305.5 398.09 305.74 398.62 307.13Z" fill="#82C3DE"/>
<path fill-rule="evenodd" clip-rule="evenodd" d="M313.17 320.671C313.12 322.161 312.16 323.331 311.02 323.291C309.88 323.241 309.02 322.001 309.09 320.511C309.16 319.021 310.12 317.851 311.24 317.891C312.35 317.931 313.21 319.181 313.17 320.671Z" fill="#82C3DE"/>
<path fill-rule="evenodd" clip-rule="evenodd" d="M298.25 319.76C298.13 321.24 291.58 321.91 283.69 320.76C275.8 319.62 269.71 317.13 270.01 315.68C270.31 314.21 276.75 314.31 284.46 315.42C292.17 316.54 298.36 318.27 298.24 319.76H298.25Z" fill="#82C3DE"/>
<path fill-rule="evenodd" clip-rule="evenodd" d="M215.66 298.45C214.98 299.77 212.01 299.61 209.12 297.92C206.23 296.23 204.62 293.73 205.44 292.49C206.26 291.24 209.09 291.65 211.84 293.26C214.59 294.87 216.34 297.13 215.66 298.46V298.45Z" fill="#82C3DE"/>
<path fill-rule="evenodd" clip-rule="evenodd" d="M403.14 318.51C403.82 319.83 401.18 322.54 397.1 324.23C393.02 325.92 389.25 325.88 388.79 324.47C388.32 323.05 391.18 320.84 395.03 319.24C398.89 317.65 402.45 317.19 403.14 318.52V318.51Z" fill="#82C3DE"/>
<path fill-rule="evenodd" clip-rule="evenodd" d="M309 333.991C308.96 335.481 307.26 336.621 305.2 336.541C303.14 336.461 301.53 335.181 301.61 333.691C301.69 332.201 303.4 331.061 305.41 331.141C307.43 331.221 309.04 332.491 309 333.991Z" fill="#82C3DE"/>
<path fill-rule="evenodd" clip-rule="evenodd" d="M290.2 332.83C290.07 334.3 283.27 334.92 275.09 333.59C266.9 332.27 260.65 329.51 261 328.07C261.36 326.61 267.99 326.98 275.95 328.26C283.91 329.56 290.33 331.33 290.19 332.83H290.2Z" fill="#82C3DE"/>
<path fill-rule="evenodd" clip-rule="evenodd" d="M210.58 308.69C209.86 309.99 206.47 309.5 203.13 307.4C199.78 305.31 197.86 302.47 198.71 301.26C199.57 300.04 202.78 300.82 205.99 302.82C209.2 304.83 211.3 307.38 210.58 308.68V308.69Z" fill="#82C3DE"/>
<path fill-rule="evenodd" clip-rule="evenodd" d="M398.68 333.42C399.28 334.78 395.12 337.91 389.19 339.88C383.28 341.86 378.08 341.88 377.73 340.44C377.37 338.98 381.81 336.65 387.48 334.76C393.15 332.88 398.07 332.05 398.68 333.42Z" fill="#82C3DE"/>
<path fill-rule="evenodd" clip-rule="evenodd" d="M281.81 343.02C281.58 344.49 275.04 344.67 267.29 342.98C259.54 341.3 253.66 338.42 254.06 337C254.46 335.55 260.85 336.06 268.44 337.71C276.02 339.37 282.05 341.55 281.82 343.03L281.81 343.02Z" fill="#82C3DE"/>
<path fill-rule="evenodd" clip-rule="evenodd" d="M214.4 323.18C213.77 324.52 209.91 324.06 205.88 321.88C201.84 319.71 199.33 316.69 200.14 315.44C200.95 314.18 204.59 315.05 208.45 317.13C212.31 319.22 215.05 321.83 214.41 323.18H214.4Z" fill="#82C3DE"/>
<path fill-rule="evenodd" clip-rule="evenodd" d="M384.63 350.65C385.09 352.06 380.7 354.77 374.7 356.36C368.7 357.95 363.53 357.74 363.24 356.28C362.95 354.81 367.5 352.68 373.31 351.13C379.13 349.59 384.15 349.22 384.62 350.65H384.63Z" fill="#82C3DE"/>
<path fill-rule="evenodd" clip-rule="evenodd" d="M314.79 359.5C314.8 360.98 308.6 362.22 300.97 361.6C293.35 361 287.42 358.85 287.65 357.39C287.88 355.9 294.01 355.63 301.39 356.21C308.77 356.81 314.77 357.99 314.78 359.49L314.79 359.5Z" fill="#82C3DE"/>
<path fill-rule="evenodd" clip-rule="evenodd" d="M273.23 354.86C272.94 356.32 266.55 356.27 259.07 354.34C251.59 352.41 245.97 349.41 246.41 347.99C246.85 346.56 253.09 347.22 260.42 349.11C267.75 351.01 273.52 353.39 273.23 354.86Z" fill="#82C3DE"/>
<path fill-rule="evenodd" clip-rule="evenodd" d="M219.1 338.23C218.51 339.6 214.71 339.28 210.68 337.33C206.65 335.38 204.04 332.56 204.77 331.26C205.5 329.95 209.14 330.59 213.04 332.47C216.93 334.36 219.7 336.85 219.1 338.23Z" fill="#82C3DE"/>
<path fill-rule="evenodd" clip-rule="evenodd" d="M366.07 368.78C366.36 370.24 362.94 372.14 358.4 372.8C353.86 373.47 350.04 372.63 349.9 371.16C349.75 369.67 353.22 368.11 357.62 367.46C362.02 366.82 365.79 367.32 366.08 368.78H366.07Z" fill="#82C3DE"/>
<path fill-rule="evenodd" clip-rule="evenodd" d="M328.91 372.431C328.93 373.901 317.93 375.211 304.4 374.121C290.86 373.061 280.21 369.981 280.47 368.531C280.73 367.041 291.57 367.701 304.83 368.731C318.09 369.801 328.9 370.901 328.91 372.421V372.431Z" fill="#82C3DE"/>
<path fill-rule="evenodd" clip-rule="evenodd" d="M267.43 366.13C267.14 367.58 260.61 367.51 252.95 365.5C245.29 363.5 239.57 360.35 240.03 358.94C240.5 357.51 246.84 358.32 254.32 360.28C261.8 362.25 267.72 364.67 267.42 366.14L267.43 366.13Z" fill="#82C3DE"/>
<path fill-rule="evenodd" clip-rule="evenodd" d="M222.02 352.38C221.47 353.76 217.33 353.41 212.85 351.37C208.37 349.33 205.39 346.4 206.08 345.08C206.78 343.76 210.75 344.48 215.09 346.45C219.43 348.43 222.58 350.99 222.02 352.38Z" fill="#82C3DE"/>
<path fill-rule="evenodd" clip-rule="evenodd" d="M339.51 385.17C339.56 385.9 336.03 386.86 330.22 387.51C324.41 388.16 316.32 388.42 307.43 387.81C298.54 387.19 290.57 385.84 284.9 384.44C279.23 383.04 275.85 381.65 275.99 380.94C276.3 379.42 290.42 381.24 307.8 382.42C325.17 383.67 339.38 383.64 339.5 385.17H339.51Z" fill="#82C3DE"/>
<path fill-rule="evenodd" clip-rule="evenodd" d="M263 378.151C262.67 379.601 255.99 379.301 248.21 377.041C240.43 374.801 234.62 371.501 235.11 370.101C235.6 368.681 242.08 369.651 249.71 371.851C257.33 374.061 263.33 376.681 263 378.151Z" fill="#82C3DE"/>
<path fill-rule="evenodd" clip-rule="evenodd" d="M217.67 363.4C217.08 364.77 212.79 364.24 208.19 361.99C203.58 359.74 200.53 356.65 201.26 355.36C201.99 354.06 206.09 354.96 210.56 357.14C215.02 359.33 218.26 362.03 217.67 363.4Z" fill="#82C3DE"/>
<path fill-rule="evenodd" clip-rule="evenodd" d="M330.06 398.94C330.08 399.67 326.96 400.46 321.86 400.89C316.76 401.33 309.68 401.35 301.91 400.63C286.35 399.19 274.22 395.29 274.54 393.88C274.86 392.38 287.23 393.85 302.41 395.25C317.59 396.71 330 397.42 330.06 398.94Z" fill="#82C3DE"/>
<path fill-rule="evenodd" clip-rule="evenodd" d="M260.43 390.69C260.08 392.13 253.13 391.68 245.04 389.18C236.95 386.7 230.94 383.17 231.46 381.78C231.98 380.37 238.71 381.59 246.63 384.02C254.55 386.46 260.79 389.23 260.43 390.69Z" fill="#82C3DE"/>
<path fill-rule="evenodd" clip-rule="evenodd" d="M213.59 374.52C212.98 375.87 208.54 375.21 203.76 372.8C198.98 370.38 195.82 367.14 196.58 365.86C197.34 364.57 201.57 365.64 206.2 367.98C210.83 370.33 214.2 373.16 213.58 374.52H213.59Z" fill="#82C3DE"/>
<path fill-rule="evenodd" clip-rule="evenodd" d="M320.28 411.93C320.28 413.4 310.06 414.48 297.59 413.04C285.12 411.63 275.41 408.38 275.71 406.94C276.01 405.45 286.02 406.29 298.2 407.67C310.38 409.08 320.3 410.42 320.28 411.93Z" fill="#82C3DE"/>
<path fill-rule="evenodd" clip-rule="evenodd" d="M259.54 403.39C259.2 404.83 251.85 404.31 243.3 401.63C234.74 398.97 228.41 395.21 228.95 393.83C229.49 392.43 236.55 393.87 244.91 396.47C253.27 399.08 259.89 401.92 259.54 403.38V403.39Z" fill="#82C3DE"/>
<path fill-rule="evenodd" clip-rule="evenodd" d="M209.82 385.73C209.19 387.07 204.48 386.22 199.4 383.54C194.32 380.86 190.96 377.38 191.75 376.12C192.54 374.85 197 376.17 201.93 378.76C206.85 381.36 210.46 384.37 209.82 385.73Z" fill="#82C3DE"/>
<path fill-rule="evenodd" clip-rule="evenodd" d="M305.16 423.8C305.06 425.28 299.54 426.11 292.88 425.32C286.22 424.54 281.05 422.49 281.28 421.02C281.52 419.54 286.97 419.19 293.5 419.95C300.03 420.72 305.25 422.3 305.15 423.79L305.16 423.8Z" fill="#82C3DE"/>
<path fill-rule="evenodd" clip-rule="evenodd" d="M260 416.52C259.66 417.96 252.05 417.37 243.2 414.58C234.34 411.81 227.77 407.93 228.31 406.56C228.86 405.16 236.16 406.72 244.82 409.43C253.48 412.16 260.36 415.06 260 416.52Z" fill="#82C3DE"/>
<path fill-rule="evenodd" clip-rule="evenodd" d="M207.35 397.55C206.71 398.89 201.64 397.83 196.16 394.85C190.67 391.88 187.03 388.14 187.83 386.89C188.64 385.63 193.41 387.23 198.74 390.11C204.06 393 208 396.2 207.35 397.55Z" fill="#82C3DE"/>
<path fill-rule="evenodd" clip-rule="evenodd" d="M282.35 434.88C282.09 436.35 278.96 436.93 275.35 436.19C271.74 435.44 269.1 433.66 269.45 432.21C269.8 430.76 272.93 430.17 276.45 430.9C279.97 431.63 282.61 433.41 282.35 434.88Z" fill="#82C3DE"/>
<path fill-rule="evenodd" clip-rule="evenodd" d="M259.87 429.78C259.5 431.21 251.69 430.41 242.62 427.37C233.55 424.34 226.83 420.3 227.39 418.93C227.95 417.53 235.45 419.27 244.34 422.24C253.22 425.22 260.25 428.32 259.87 429.77V429.78Z" fill="#82C3DE"/>
<path fill-rule="evenodd" clip-rule="evenodd" d="M206.02 409.92C205.38 411.26 200.62 410.33 195.51 407.57C190.39 404.82 187.01 401.31 187.79 400.05C188.58 398.78 193.1 400.15 198.07 402.82C203.04 405.5 206.66 408.57 206.01 409.92H206.02Z" fill="#82C3DE"/>
<path fill-rule="evenodd" clip-rule="evenodd" d="M291.52 448.81C291.34 450.29 286.87 450.94 281.58 450.04C276.29 449.15 272.29 447.06 272.6 445.61C272.91 444.15 277.32 443.85 282.48 444.72C287.64 445.6 291.71 447.33 291.52 448.81Z" fill="#82C3DE"/>
<path fill-rule="evenodd" clip-rule="evenodd" d="M262.91 443.43C262.58 444.87 254.41 444.2 244.89 441.2C235.36 438.22 228.28 434.11 228.82 432.74C229.37 431.34 237.19 433.13 246.5 436.04C255.81 438.97 263.25 441.95 262.9 443.42L262.91 443.43Z" fill="#82C3DE"/>
<path fill-rule="evenodd" clip-rule="evenodd" d="M207.4 423.64C206.72 424.97 202.33 424.03 197.59 421.54C192.85 419.05 189.6 415.97 190.33 414.67C191.06 413.37 195.45 414.31 200.14 416.77C204.83 419.23 208.08 422.31 207.4 423.64Z" fill="#82C3DE"/>
<path fill-rule="evenodd" clip-rule="evenodd" d="M294.36 462.86C294.16 464.34 290.71 465 286.65 464.33C282.59 463.66 279.5 461.93 279.76 460.46C280.02 458.99 283.47 458.33 287.47 458.99C291.47 459.65 294.55 461.38 294.36 462.86Z" fill="#82C3DE"/>
<path fill-rule="evenodd" clip-rule="evenodd" d="M245.65 451.78C245.2 453.2 242.34 453.52 239.25 452.48C236.16 451.44 234.06 449.47 234.56 448.06C235.06 446.66 237.93 446.34 240.96 447.36C243.99 448.38 246.09 450.35 245.65 451.78Z" fill="#82C3DE"/>
<path fill-rule="evenodd" clip-rule="evenodd" d="M211.04 438.4C210.4 439.75 207.46 439.64 204.49 438.16C201.51 436.68 199.66 434.41 200.35 433.09C201.04 431.77 203.97 431.87 206.9 433.33C209.83 434.79 211.69 437.06 211.04 438.4Z" fill="#82C3DE"/>
<path fill-rule="evenodd" clip-rule="evenodd" d="M305.93 476.401C305.8 477.891 302 478.661 297.46 478.141C292.91 477.611 289.4 475.991 289.61 474.511C289.82 473.031 293.61 472.251 298.08 472.771C302.55 473.291 306.07 474.911 305.93 476.401Z" fill="#82C3DE"/>
<path fill-rule="evenodd" clip-rule="evenodd" d="M239.73 462.29C239.28 463.71 236.43 464.04 233.36 463.03C230.29 462.02 228.2 460.05 228.69 458.64C229.18 457.23 232.03 456.9 235.06 457.9C238.09 458.9 240.18 460.87 239.73 462.29Z" fill="#82C3DE"/>
<path fill-rule="evenodd" clip-rule="evenodd" d="M317.1 491.001C317.05 492.491 313.57 493.491 309.33 493.221C305.09 492.961 301.77 491.541 301.9 490.051C302.03 488.561 305.51 487.571 309.67 487.831C313.83 488.091 317.16 489.511 317.1 491.001Z" fill="#82C3DE"/>
<path fill-rule="evenodd" clip-rule="evenodd" d="M236.16 474.69C235.67 476.1 232.82 476.33 229.8 475.2C226.78 474.07 224.78 472.03 225.33 470.65C225.88 469.26 228.73 469.04 231.69 470.14C234.65 471.25 236.66 473.28 236.16 474.69Z" fill="#82C3DE"/>
<path fill-rule="evenodd" clip-rule="evenodd" d="M323.14 504.2C323.12 505.69 319.82 506.79 315.76 506.66C311.7 506.53 308.48 505.21 308.56 503.72C308.64 502.23 311.94 501.13 315.94 501.26C319.94 501.39 323.16 502.71 323.14 504.2Z" fill="#82C3DE"/>
<path fill-rule="evenodd" clip-rule="evenodd" d="M232.43 486.491C231.92 487.891 229.08 488.091 226.09 486.931C223.1 485.771 221.13 483.711 221.7 482.331C222.27 480.951 225.11 480.751 228.04 481.891C230.97 483.031 232.94 485.091 232.43 486.491Z" fill="#82C3DE"/>
<path fill-rule="evenodd" clip-rule="evenodd" d="M327.19 517.74C327.21 519.23 324.36 520.421 320.83 520.401C317.3 520.371 314.47 519.151 314.51 517.651C314.55 516.161 317.4 514.97 320.87 514.99C324.34 515.01 327.17 516.24 327.19 517.74Z" fill="#82C3DE"/>
<path fill-rule="evenodd" clip-rule="evenodd" d="M229.69 498.94C229.15 500.33 226.32 500.46 223.36 499.22C220.41 497.99 218.51 495.88 219.12 494.52C219.73 493.16 222.56 493.03 225.45 494.24C228.34 495.45 230.24 497.55 229.69 498.94Z" fill="#82C3DE"/>
<path fill-rule="evenodd" clip-rule="evenodd" d="M327.19 530.84C327.23 532.33 324.69 533.55 321.53 533.56C318.37 533.57 315.83 532.37 315.85 530.88C315.87 529.39 318.41 528.17 321.51 528.16C324.61 528.15 327.15 529.35 327.19 530.84Z" fill="#82C3DE"/>
<path fill-rule="evenodd" clip-rule="evenodd" d="M228.13 511.321C227.59 512.711 224.76 512.861 221.82 511.641C218.87 510.431 216.97 508.331 217.56 506.971C218.16 505.601 220.98 505.461 223.87 506.651C226.76 507.841 228.67 509.931 228.13 511.321Z" fill="#82C3DE"/>
<path fill-rule="evenodd" clip-rule="evenodd" d="M326.03 544.42C326.07 545.91 322.92 547.06 318.99 546.99C315.06 546.92 311.89 545.65 311.92 544.16C311.95 542.67 315.1 541.52 318.96 541.59C322.82 541.66 325.99 542.93 326.03 544.42Z" fill="#82C3DE"/>
<path fill-rule="evenodd" clip-rule="evenodd" d="M222.77 522.55C222.19 523.93 220.05 524.3 217.97 523.39C215.9 522.48 214.72 520.64 215.34 519.29C215.96 517.93 218.11 517.56 220.14 518.45C222.17 519.34 223.34 521.18 222.77 522.55Z" fill="#82C3DE"/>
<path fill-rule="evenodd" clip-rule="evenodd" d="M325.23 557.35C325.28 558.84 321.94 560 317.78 559.93C313.62 559.87 310.27 558.6 310.31 557.11C310.35 555.62 313.68 554.46 317.76 554.53C321.84 554.6 325.18 555.86 325.23 557.35Z" fill="#82C3DE"/>
<path fill-rule="evenodd" clip-rule="evenodd" d="M220.49 534.75C219.91 536.12 217.64 536.44 215.42 535.46C213.2 534.48 211.91 532.58 212.53 531.23C213.15 529.88 215.43 529.56 217.6 530.52C219.78 531.48 221.07 533.38 220.49 534.75Z" fill="#82C3DE"/>
<path fill-rule="evenodd" clip-rule="evenodd" d="M324.57 570.53C324.68 572.04 320.87 573.39 316.28 573.28C311.69 573.19 308.05 571.86 308.08 570.38C308.11 568.88 311.86 567.79 316.37 567.88C320.89 567.98 324.46 569.06 324.57 570.53Z" fill="#82C3DE"/>
<path fill-rule="evenodd" clip-rule="evenodd" d="M219.49 547.28C218.93 548.66 216.66 549.03 214.43 548.09C212.2 547.16 210.86 545.29 211.45 543.92C212.04 542.55 214.3 542.18 216.51 543.11C218.72 544.03 220.05 545.9 219.49 547.28Z" fill="#82C3DE"/>
<path fill-rule="evenodd" clip-rule="evenodd" d="M320.38 584.03C320.38 585.52 317.32 586.65 313.54 586.54C309.76 586.43 306.77 585.14 306.85 583.65C306.93 582.16 309.99 581.04 313.69 581.14C317.38 581.24 320.38 582.54 320.38 584.03Z" fill="#82C3DE"/>
<path fill-rule="evenodd" clip-rule="evenodd" d="M219.04 560.84C218.44 562.2 215.91 562.36 213.39 561.19C210.87 560.02 209.36 557.98 210.01 556.64C210.66 555.3 213.19 555.14 215.66 556.29C218.13 557.44 219.64 559.47 219.04 560.84Z" fill="#82C3DE"/>
<path fill-rule="evenodd" clip-rule="evenodd" d="M320.85 597.29C320.84 598.78 317.48 599.97 313.34 599.87C311.27 599.82 309.39 599.46 308.04 598.9C307.36 598.62 306.82 598.29 306.44 597.93C306.25 597.75 306.11 597.56 305.97 597.35C305.91 597.25 305.92 597.13 305.99 597.04C306.04 596.95 306.08 596.85 306.11 596.76C306.02 595.46 309.39 594.37 313.46 594.47C317.54 594.56 320.86 595.79 320.85 597.29Z" fill="#82C3DE"/>
<path fill-rule="evenodd" clip-rule="evenodd" d="M219.94 574.44C219.36 575.81 216.81 576 214.25 574.86C211.69 573.72 210.13 571.7 210.76 570.34C211.39 568.99 213.94 568.8 216.45 569.92C218.96 571.04 220.52 573.06 219.94 574.44Z" fill="#82C3DE"/>
<path fill-rule="evenodd" clip-rule="evenodd" d="M319.71 610.72C319.71 612.21 316.51 613.28 312.55 613.11C308.59 612.94 305.47 611.59 305.58 610.1C305.68 608.61 308.89 607.54 312.74 607.71C316.59 607.88 319.71 609.23 319.71 610.72Z" fill="#82C3DE"/>
<path fill-rule="evenodd" clip-rule="evenodd" d="M222.45 588.88C221.88 590.26 219.01 590.32 216.05 589.01C213.09 587.7 211.2 585.55 211.83 584.2C212.46 582.85 215.32 582.79 218.23 584.07C221.13 585.35 223.02 587.51 222.45 588.88Z" fill="#82C3DE"/>
<path fill-rule="evenodd" clip-rule="evenodd" d="M316.41 623.92C316.39 625.41 314.05 626.53 311.18 626.42C308.31 626.31 306.06 625.01 306.16 623.52C306.26 622.03 308.6 620.91 311.39 621.02C314.18 621.13 316.42 622.43 316.41 623.92Z" fill="#82C3DE"/>
<path fill-rule="evenodd" clip-rule="evenodd" d="M226.08 603.79C225.52 605.17 222.41 605.15 219.14 603.74C215.87 602.33 213.72 600.09 214.33 598.73C214.95 597.37 218.06 597.39 221.27 598.78C224.48 600.16 226.63 602.4 226.08 603.79Z" fill="#82C3DE"/>
<path fill-rule="evenodd" clip-rule="evenodd" d="M313.82 637.121C313.78 638.611 312.8 639.791 311.63 639.751C310.47 639.711 309.57 638.471 309.63 636.981C309.69 635.491 310.67 634.311 311.82 634.351C312.96 634.391 313.86 635.631 313.82 637.121Z" fill="#82C3DE"/>
<path fill-rule="evenodd" clip-rule="evenodd" d="M230.61 618.89C230.08 620.29 227.36 620.5 224.52 619.37C221.69 618.24 219.86 616.21 220.44 614.83C221.02 613.45 223.74 613.24 226.53 614.35C229.31 615.46 231.14 617.49 230.61 618.89Z" fill="#82C3DE"/>
<path fill-rule="evenodd" clip-rule="evenodd" d="M235.85 634.5C235.34 635.9 232.8 636.21 230.19 635.19C227.58 634.17 225.92 632.23 226.49 630.85C227.06 629.47 229.59 629.16 232.15 630.16C234.71 631.16 236.37 633.1 235.85 634.5Z" fill="#82C3DE"/>
<path fill-rule="evenodd" clip-rule="evenodd" d="M225.75 446.93C225.67 446.48 224.73 446.96 224.75 446.4C224.44 444.65 223.17 446.18 222.45 446.19C220.32 446.2 217.86 444.45 216.16 443.14C214.31 441.71 212.56 440.42 211.17 438.93C206.43 442.39 201.11 439.16 197.79 437.04C192.02 433.36 187.94 428.64 184.71 422.52C183.61 420.44 182.48 418.32 181.81 416.1C181.08 413.7 180.22 411.38 179.72 408.85C178.73 403.87 178.99 396.62 179.32 391.08C179.51 387.93 179.72 385.11 180.32 382.66C181.52 377.77 184.28 374.3 186.31 370.14C187.33 368.05 188.16 365.81 189.21 363.73C190.21 361.74 191.46 359.86 192.7 358.05C196.16 352.98 199.64 348.05 199.79 339.64C199.83 337.46 199.43 335.74 198.79 333.86C197.62 330.4 196.37 327.05 195.19 323.65C194.05 320.35 192.34 317.14 191.1 313.87C189.86 310.6 188.81 306.22 189.6 301.88C190.08 299.21 191.49 297.2 193.29 295.57C194.14 294.79 195.2 294.28 196.09 293.47C200.25 289.6 205.43 286.03 209.97 282.84C217.77 277.36 224.66 271.03 231.84 265.38C229.66 265.41 227.62 266.34 225.35 266.43C223.01 266.53 220.57 266.52 218.16 266.65C215.83 266.76 213.67 267.23 211.47 267.17C206.94 267.05 202.61 265.86 198.49 265.18C196.32 264.82 194.43 264.47 192.6 263.6C191.76 263.21 190.95 262.66 190.1 262.33C188.2 261.59 187.02 260.66 185.51 259.39C184.8 258.79 183.99 258.35 183.41 257.71C182.82 257.06 182.63 256.2 182.11 255.4C180.85 253.43 178.82 251.45 177.52 249.4C175.63 246.43 174.17 243.17 172.73 239.93C169.7 233.14 168.4 225.3 167.64 216.37C167.25 211.8 166.91 207.09 167.44 202.7C167.95 198.51 168.74 194.52 169.64 190.6C170.57 186.56 171.37 182.7 172.54 179.13C173.67 175.66 175.46 172.56 176.93 169.34C178.46 166 179.91 162.81 181.62 159.77C183.29 156.81 185.23 154.12 187.31 151.25C188.33 149.86 189.13 148.35 190.11 146.94C191.08 145.54 192.1 144.13 193.01 142.73C198.55 134.26 206.74 128.32 214.98 122.54C216.35 121.57 217.88 120.82 219.27 119.81C220.66 118.8 222.09 117.91 223.56 117.08C226.49 115.41 229.09 113.25 231.95 111.5C228.54 106.79 228.86 98.6001 229.65 91.4101C230.41 84.4801 232.71 78.3601 234.84 73.2101C234.94 72.4801 231.5 69.7901 232.55 68.4801C233.39 67.4301 235.4 69.0001 236.35 69.2101C236.81 68.1601 237 67.1501 237.34 66.0501C237.57 65.3301 238.57 63.5201 238.44 62.8901C237.8 59.8101 236.48 56.4101 236.24 53.0101C236.46 52.8501 236.93 53.5001 237.34 53.8501C238.51 54.8601 239.86 56.1901 240.84 57.4301C243.39 53.9401 246.29 50.8301 250.33 48.9101C250.56 45.4301 250.69 41.5401 251.13 38.6001C252.23 39.5101 253.02 40.9401 253.73 42.2801C254.44 43.6301 254.9 45.2501 255.53 46.7001C259.04 45.6601 262.26 44.3201 266.02 43.5401C265.71 40.3701 265.5 37.0601 265.72 33.8701C268.25 35.6301 268.79 39.4801 270.31 42.2901C272.63 41.7901 274.52 40.3901 277.2 40.6101C277.51 37.4201 278.33 34.7701 278.4 31.8701C279.71 34.0701 280.25 37.0801 280.8 40.0801C285.49 39.6301 287.54 41.9601 290.48 43.3401C291.63 42.8601 292.69 41.9101 293.78 41.0301C294.86 40.1501 296.15 39.4901 296.97 38.4001C297.11 41.1701 295.93 43.4601 295.17 45.6501C298.4 47.6501 301.91 49.3501 304.16 52.3801C306.67 51.5201 309.87 50.3101 312.15 50.1801C312.36 50.8401 311.47 51.2201 311.05 51.6501C310.1 52.6401 309.09 53.5901 308.06 54.6001C307.57 55.0801 307.04 55.5801 306.76 56.0701C307.21 58.2301 308.36 59.6501 309.06 61.5401C311 61.4701 313.15 61.0301 314.65 61.1301C314.71 62.3001 313.56 62.9501 312.75 63.5501C311.9 64.1801 310.88 64.7101 310.06 65.2301C310.72 67.5201 311.36 69.8201 312.05 72.0701C313.82 72.7901 315.68 73.4301 316.64 75.0201C315.62 75.8001 313.64 75.2601 312.65 75.8601C313.52 80.6501 313.87 86.1501 314.34 91.8501C314.68 96.0101 314.57 100.06 315.34 103.84C315.6 105.1 315.66 106.5 316.04 107.52C316.39 108.46 317.82 109.93 318.44 110.88C318.83 111.48 319.28 111.98 319.64 112.56C320.02 113.2 320.2 113.92 320.54 114.55C321.18 115.75 322.19 116.6 322.84 117.71C323.49 118.84 323.97 120.2 324.53 121.39C325.64 123.74 326.09 126.93 326.53 130.23C326.76 131.99 327.04 133.63 327.03 135.28C327.02 136.9 326.56 138.3 326.23 139.91C325.62 142.89 325.26 145.91 323.93 148.43C320.84 154.29 317.39 160.12 311.25 162.63C310.61 162.89 309.88 162.99 309.25 163.26C308.65 163.53 308.16 163.97 307.56 164.21C305.1 165.19 302.29 165.77 299.27 166.42C300.87 171.53 302.31 176.66 303.26 181.98C303.97 185.94 305.39 189.57 306.05 193.87C306.27 195.28 306.26 196.77 306.55 198.18C306.82 199.49 307.63 200.84 308.15 202.17C309.62 205.96 311.9 209.64 313.84 213.01C316.51 217.64 321.06 220.42 324.82 223.95C326.7 225.7 328.38 227.76 330.31 229.42C332.3 231.11 334.39 232.6 336.3 234.36C338.26 236.16 339.6 238.18 340.79 240.88C341.94 243.49 343.19 246.19 343.99 248.98C346.53 251.56 348.81 254.28 350.88 257.28C352.92 260.23 355.37 262.85 357.67 265.59C359.99 268.37 362.28 271.08 364.76 273.7C367.18 276.24 369.8 278.65 372.45 281.07C375.04 283.42 377.34 286.26 380.24 288.43C383.04 290.52 385.52 293.15 388.33 295.36C390.92 297.41 393.52 300.07 395.82 302.93C396.91 304.29 397.79 305.82 398.91 307.46C400.3 309.48 402.3 311.69 401.21 314.4C402.18 316.32 403.5 318 403.31 320.5C403.24 321.35 402.75 321.76 402.61 322.5C402.53 322.91 402.69 323.62 402.61 324.18C402.54 324.69 402.25 325.27 402.11 325.86C400.08 334.61 395.17 340.75 390.03 346.17C381.53 355.12 373.96 364.34 364.67 372.15C361.61 374.72 359.25 378.25 356.78 381.41C354.26 384.63 351.65 387.76 348.89 390.66C346.08 393.62 343.12 396.36 340.6 399.51C338.78 405.17 334.94 409.18 331.31 413.29C328.49 416.48 325.94 419.28 322.43 421.71C321.33 422.46 320.03 423.11 319.03 424.02C317.95 425 317.1 426.79 316.24 428.12C314.45 430.87 312.84 433.91 309.65 435.06C308.14 435.61 305.74 435.4 303.36 435.38C299.75 435.34 296.01 433.78 291.98 433.48C287.88 433.17 284.79 431.92 281.99 430.12C284.48 441.48 291.3 449.03 296.97 456.84C298.22 458.55 299.46 460.21 300.97 461.57C302.48 462.93 303.83 464.42 305.16 465.99C307.84 469.11 310.67 472.03 312.85 475.66C315.12 479.44 317.41 482.85 319.64 486.29C320.82 488.1 322.02 489.86 322.84 491.86C323.67 493.89 324.28 496.03 325.13 498.28C326.79 502.63 328.42 506.75 329.52 511.42C330.62 516.08 330.84 521.25 331.22 527.41C331.26 528.17 331.5 528.68 331.52 529.52C331.62 533 330.92 536.66 330.92 540.36C330.92 544.06 330.55 547.67 330.32 551.19C329.85 558.54 329.66 565.7 328.93 572.65C328.58 576 327.85 579.41 327.73 582.85C327.61 586.39 326.96 589.85 326.83 593.37C326.77 595.1 326.44 596.77 326.23 598.53C326.02 600.31 326.11 602.18 326.03 604C325.89 607.51 325.22 611.01 326.13 614.52C327.57 612.59 328.8 610.58 330.22 608.63C331.64 606.69 332.62 604.34 333.82 602.22C335.02 600.07 336.16 597.87 337.32 595.69C337.89 594.63 338.53 593.63 339.12 592.54C339.71 591.45 340.02 590.18 340.62 589.06C341.76 586.93 343.11 584.88 344.41 582.85C347.05 578.78 349.31 574.54 352.3 570.76C353.01 569.87 353.67 568.87 354.4 567.91C355.1 566.99 356 566.12 356.6 565.17C358.1 562.81 358.77 559.55 361.79 558.66C366.09 553.33 371.22 549.72 377.27 546.98C378.79 546.29 380.41 545.66 381.86 544.78C384.63 543.1 387.61 541.55 390.95 540.36C392.58 539.78 394.31 539.39 396.05 538.78C397.88 538.12 399.67 537.96 401.84 537.84C403.68 537.72 405.52 536.92 407.23 536.57C409.39 536.13 411.24 535.83 413.22 535.84C417.08 535.86 421.01 537.28 424.4 538.05C426.39 538.49 427.53 539.2 429.2 539.94C432.2 541.28 434.8 543.55 436.29 546.47C439.63 553.01 439.48 562.46 437.59 570.14C435.76 577.57 433.38 584.67 430.4 590.55C429.64 592.04 428.95 593.66 428.1 595.17C427.31 596.59 426.32 597.93 425.5 599.37C423.78 602.38 422.71 605.83 420.81 608.42C418.86 611.06 416.81 613.56 414.92 616.2C413.97 617.53 413.18 618.98 412.22 620.3C410.32 622.94 408.3 625.38 406.43 628.19C405.54 629.52 404.38 630.67 403.44 631.98C402.52 633.25 401.3 634.42 400.24 635.65C397.1 639.3 393.76 642.67 390.66 646.49C389.64 647.74 388.43 648.85 387.36 650.07C386.31 651.28 385.14 652.43 384.07 653.54C381.8 655.88 379.82 658.47 377.38 660.48C376.14 661.5 374.91 662.6 373.69 663.64C372.46 664.68 371.15 665.55 369.89 666.59C367.42 668.63 365.21 670.98 362.7 673C360.23 675 357.66 676.92 355.11 678.9C352.57 680.87 349.98 682.64 347.62 685C345.32 687.31 342.81 689.2 340.23 691.21C338.94 692.21 337.8 693.38 336.43 694.26C332.39 696.87 328.06 699.49 322.85 700.89C320.84 701.43 319.03 701.78 317.06 701.63C315.18 701.48 313.67 700.79 311.67 700.36C308 699.57 304.19 698.64 300.99 697.62C299 697 297.2 696.8 295.6 696.26C292.6 695.25 289.71 692.87 287.91 690.47C286.93 689.18 286.35 687.86 285.52 686.05C284.44 683.72 282.91 681.16 282.23 678.59C280.91 673.65 282.89 669.32 284.32 665.44C285.36 662.64 286.79 660.4 288.22 658.4C291.35 654.02 294.25 649.99 298.4 646.93C299.23 644.27 301.74 643.37 303.6 641.78C304.24 640.6 305.06 639.59 305.8 638.51C305.04 633.69 304.85 628.64 304.8 623.69C304.75 618.62 304.25 613.57 304.2 608.54C304.15 603.51 304.66 598.61 305.2 593.72C305.73 588.88 306.06 584.05 306.5 579.31C306.94 574.49 307.57 569.73 308 565C308.21 562.59 308.4 560.29 308.8 557.96C309.9 551.37 311.28 544.87 312.49 538.18C313.33 533.58 313.92 528.92 313.59 523.77C313.31 519.34 312.73 513.76 311.09 510.52C310.24 508.83 309.01 507.4 308 505.89C305 501.43 301.53 496.74 298.71 492.01C296.82 488.83 294.41 485.96 292.12 483.17C289.77 480.31 287.03 478.02 284.83 474.96C280.6 469.08 276.53 462.85 273.44 455.41C272.78 453.82 271.99 451.92 270.75 450.36C270.27 449.75 269.65 449.14 269.05 448.15C268.6 447.41 267.55 446.21 267.25 446.15C266.4 445.98 265.6 447.08 264.76 447.52C264.16 447.84 263.43 447.97 262.66 448.26C260.46 449.11 258 450.03 255.37 450.47C251.67 451.1 247.65 451.43 243.79 451.42C242.11 454.71 241.05 458.29 239.89 461.84C238.74 465.36 237.34 468.81 236.1 472.36C234.24 477.62 232.35 482.98 230.81 488.55C230.28 490.46 230.12 492.5 229.71 494.55C228.92 498.54 228.12 502.66 227.81 507.06C227.51 511.32 226.9 515.67 226.51 520.1C226.12 524.61 226.1 529.27 225.81 533.88C224.98 547.49 225.55 562.4 227.81 574.28C228.58 578.31 229.09 582.48 230.1 586.38C230.6 588.3 231.15 590.13 231.6 592.05C232.05 593.99 232.27 596.02 232.7 598.05C233.09 599.89 233.77 601.72 234.3 603.63C235.86 609.27 237.07 615.08 238.99 620.35C240.17 623.59 241.41 627.41 242.38 631.29C242.83 633.08 243.27 635.17 243.68 637.17C244.11 639.25 244.38 641.42 245.07 642.85C245.73 644.22 247.69 646.01 248.77 647.06C251.43 649.64 252.75 653.32 254.66 656.84C255.56 658.51 256.19 660.61 256.65 662.74C258.83 672.68 253.37 681.41 249.26 686.08C244.58 691.42 237.14 694.78 229.49 697.24C225.66 698.46 221.35 699.37 216.91 699.98C212.35 700.6 207.54 701.11 202.93 701.24C200.62 701.3 198.24 701.69 195.84 701.87C194.64 701.96 193.54 701.64 192.34 701.55C191.18 701.47 190.02 701.75 188.85 701.87C184.04 702.32 179.26 702.5 174.27 702.5C169.28 702.5 164.63 703.03 159.79 703.03C149.93 703.02 140.58 703.51 130.84 704.28C126.14 704.65 121.14 704.21 116.16 703.97C111.14 703.72 106.08 703.9 101.68 703.24C97.5099 702.6 93.5399 700.94 90.6999 698.82C89.1599 697.67 87.8699 696.32 86.4099 695.24C84.8699 694.11 83.5099 692.81 82.4199 691.45C80.0399 688.53 78.7199 685.14 77.8199 680.31C77.3699 677.85 77.5199 675.8 77.9199 673.27C78.2899 670.9 78.5699 668.64 79.4199 666.85C82.9299 659.45 88.3399 655.66 95.2999 651.59C96.1299 651.11 97.0299 650.74 97.7999 650.22C99.9699 648.76 102.35 646.83 104.69 645.49C107.91 643.65 111.41 642.01 114.67 640.02C117.98 638.01 121.4 636.04 124.95 634.86C128.79 633.6 132.64 632.38 136.34 630.87C139.96 629.38 143.46 627.68 147.32 626.45C151.08 625.26 155.07 623.84 159.2 622.98C161.37 622.53 163.68 622.45 165.99 622.14C168.27 621.82 170.51 621.4 172.78 621.3C175.28 621.18 177.76 621.26 180.17 621.08C182.5 620.93 184.77 620.72 187.06 620.77C191.66 620.86 196.07 621.57 200.64 622.45C209.17 624.09 218.19 625.38 225 628.98C225.08 629 225.1 629.08 225.2 629.08C222.49 625.65 220.96 621.33 219.81 616.77C218.65 612.22 217.23 607.54 216.01 602.77C213.58 593.22 212.08 582.92 210.52 572.59C208.9 561.87 208.78 550.03 209.02 538.61C209.14 532.87 209.63 527.21 210.02 521.68C210.22 518.85 210.24 516.1 210.62 513.38C210.98 510.8 211.54 508.24 211.82 505.69C211.94 504.55 211.85 503.46 212.02 502.33C213.1 494.94 214.79 487.34 216.22 480.24C217.06 476.04 217.95 471.9 218.82 467.83C219.05 466.75 219.15 465.7 219.42 464.68C219.66 463.76 220.11 462.88 220.42 461.94C221.03 460.02 221.4 458.09 221.81 456.16C222.57 452.7 224.41 449.79 225.8 447.01L225.75 446.93ZM281.78 168.61V169.24C280.17 173.6 279.29 178.4 278.38 183.44C277.03 190.94 278.25 199.79 276.88 206.69C276.15 210.37 274.93 213.7 273.89 217.21C271.78 224.3 269.29 230.55 265.6 235.82C269.03 233.3 272.17 230.37 275.48 227.52C278.74 224.7 282.51 222.44 285.67 219.53C288.83 216.61 290.99 213.06 293.16 209.11C293.89 207.78 295.45 205.85 295.46 204.48C295.46 203.41 294.78 201.64 294.46 200.38C292.01 190.44 288.98 181.49 286.77 171.66C285.19 170.49 284.33 168.56 281.88 168.3C281.76 168.32 281.77 168.47 281.78 168.62V168.61ZM228.95 347C230.08 344.7 230.91 342.29 232.05 340.06C235.4 333.46 239.73 327.52 243.13 321.13C244.3 318.94 245.37 316.71 246.63 314.6C249.1 310.46 251.94 306.56 254.42 302.42C256.85 298.33 259.08 293.96 261.81 289.89C264.54 285.82 266.69 281.18 268.4 276.43C270.17 271.53 271.87 266.57 273.59 261.49C275.25 256.57 277.35 251.67 278.58 246.35C278.63 246.35 278.69 246.26 278.58 246.25C276.62 247.65 274.55 249.23 272.49 250.66C270.56 252.01 268.44 253.21 266.8 254.87C265.66 256.03 264.75 257.33 263.6 258.45C257.87 264.02 251.24 268.72 245.43 274.13C243.06 276.33 240.74 278.52 238.24 280.54C233.28 284.56 228.56 288.93 223.56 292.95C221.68 294.47 219.66 295.85 217.87 297.37C217.27 297.87 216.79 298.56 216.17 299.04C213.65 301.04 210.75 302.54 208.48 304.94C210.21 308.9 211.34 313.17 212.57 317.45C213.83 321.85 214.52 326.41 215.96 330.7C218.72 338.92 222.83 346.43 225.95 353.95C226.73 351.51 227.84 349.24 228.94 347.01L228.95 347ZM322.92 261.8C322.53 264.3 321.89 266.82 321.52 269.38C320.73 274.84 321.14 280.67 320.72 286.63C320.53 289.4 319.98 292.2 319.32 294.94C318.68 297.64 318.31 300.43 317.62 303.04C313.52 318.62 309.95 334.93 305.74 349.85C307.51 350.57 308.41 352.57 309.83 353.64C310.52 354.16 311.24 354.33 311.83 354.79C313.68 356.22 314.78 358.07 316.22 360.05C317.97 362.45 320.24 364.6 322.31 366.78C324.49 369.06 326.52 371.15 329.3 372.56C332.03 373.95 335.62 373.89 338.88 375.61C341.07 373.6 342.64 370.98 344.57 368.77C346.51 366.56 348.51 364.35 350.36 362.04C352.22 359.71 354.59 358 356.65 355.82C358.72 353.64 360.9 351.66 362.94 349.52C367.03 345.22 371.72 341.64 375.82 337.32C379.94 332.99 382.49 327.49 386.01 322.5C384.04 319.01 381.9 315.98 379.32 313.02C378.08 311.62 376.87 310.06 375.52 308.72C374.15 307.36 372.67 306.19 371.43 304.73C368.98 301.84 366.55 298.94 363.74 296.31C362.35 295 360.85 293.79 359.55 292.41C358.22 291.02 357.06 289.46 355.65 288.21C352.8 285.67 349.74 283.48 346.86 280.95C344.02 278.46 341.48 275.52 338.67 272.96C337.32 271.73 336.15 270.11 334.97 268.54C331.49 263.91 327.36 259.69 324.79 254.34C324.79 254.27 324.77 254.21 324.69 254.24C323.7 256.63 323.31 259.12 322.89 261.81L322.92 261.8Z" stroke="black" stroke-width="5" stroke-miterlimit="10"/>
<path d="M281.97 430.1C266.79 409.94 266.94 363.4 287.25 345.77C292.77 340.98 303.67 347.66 305.74 349.84" stroke="black" stroke-width="5" stroke-miterlimit="10"/>
<path d="M224.76 446.4C187.55 426.07 217.67 363.4 225.96 353.94" stroke="black" stroke-width="5" stroke-miterlimit="10"/>
</svg>
